%TF.GenerationSoftware,KiCad,Pcbnew,10.0.3*%
%TF.CreationDate,2026-08-01T18:23:17+02:00*%
%TF.ProjectId,Pack_Controller,5061636b-5f43-46f6-9e74-726f6c6c6572,rev?*%
%TF.SameCoordinates,Original*%
%TF.FileFunction,Copper,L2,Inr*%
%TF.FilePolarity,Positive*%
%FSLAX46Y46*%
G04 Gerber Fmt 4.6, Leading zero omitted, Abs format (unit mm)*
G04 Created by KiCad (PCBNEW 10.0.3) date 2026-08-01 18:23:17*
%MOMM*%
%LPD*%
G01*
G04 APERTURE LIST*
G04 Aperture macros list*
%AMRoundRect*
0 Rectangle with rounded corners*
0 $1 Rounding radius*
0 $2 $3 $4 $5 $6 $7 $8 $9 X,Y pos of 4 corners*
0 Add a 4 corners polygon primitive as box body*
4,1,4,$2,$3,$4,$5,$6,$7,$8,$9,$2,$3,0*
0 Add four circle primitives for the rounded corners*
1,1,$1+$1,$2,$3*
1,1,$1+$1,$4,$5*
1,1,$1+$1,$6,$7*
1,1,$1+$1,$8,$9*
0 Add four rect primitives between the rounded corners*
20,1,$1+$1,$2,$3,$4,$5,0*
20,1,$1+$1,$4,$5,$6,$7,0*
20,1,$1+$1,$6,$7,$8,$9,0*
20,1,$1+$1,$8,$9,$2,$3,0*%
G04 Aperture macros list end*
%TA.AperFunction,ComponentPad*%
%ADD10RoundRect,0.250000X1.050000X1.050000X-1.050000X1.050000X-1.050000X-1.050000X1.050000X-1.050000X0*%
%TD*%
%TA.AperFunction,ComponentPad*%
%ADD11C,2.600000*%
%TD*%
%TA.AperFunction,ComponentPad*%
%ADD12RoundRect,0.250001X0.499999X0.759999X-0.499999X0.759999X-0.499999X-0.759999X0.499999X-0.759999X0*%
%TD*%
%TA.AperFunction,ComponentPad*%
%ADD13O,1.500000X2.020000*%
%TD*%
%TA.AperFunction,ComponentPad*%
%ADD14RoundRect,0.250001X-0.499999X-0.759999X0.499999X-0.759999X0.499999X0.759999X-0.499999X0.759999X0*%
%TD*%
%TA.AperFunction,ComponentPad*%
%ADD15RoundRect,0.250001X0.499999X0.499999X-0.499999X0.499999X-0.499999X-0.499999X0.499999X-0.499999X0*%
%TD*%
%TA.AperFunction,ComponentPad*%
%ADD16C,1.500000*%
%TD*%
%TA.AperFunction,ComponentPad*%
%ADD17C,2.400000*%
%TD*%
%TA.AperFunction,ComponentPad*%
%ADD18RoundRect,0.250001X0.759999X-0.499999X0.759999X0.499999X-0.759999X0.499999X-0.759999X-0.499999X0*%
%TD*%
%TA.AperFunction,ComponentPad*%
%ADD19O,2.020000X1.500000*%
%TD*%
%TA.AperFunction,ComponentPad*%
%ADD20RoundRect,0.250001X-0.499999X-0.499999X0.499999X-0.499999X0.499999X0.499999X-0.499999X0.499999X0*%
%TD*%
%TA.AperFunction,ComponentPad*%
%ADD21RoundRect,0.250000X-1.050000X-1.050000X1.050000X-1.050000X1.050000X1.050000X-1.050000X1.050000X0*%
%TD*%
%TA.AperFunction,ComponentPad*%
%ADD22R,1.000000X1.000000*%
%TD*%
%TA.AperFunction,ComponentPad*%
%ADD23C,1.000000*%
%TD*%
%TA.AperFunction,ComponentPad*%
%ADD24RoundRect,0.250000X0.550000X0.550000X-0.550000X0.550000X-0.550000X-0.550000X0.550000X-0.550000X0*%
%TD*%
%TA.AperFunction,ComponentPad*%
%ADD25C,1.600000*%
%TD*%
%TA.AperFunction,ComponentPad*%
%ADD26RoundRect,0.285000X0.665000X0.665000X-0.665000X0.665000X-0.665000X-0.665000X0.665000X-0.665000X0*%
%TD*%
%TA.AperFunction,ComponentPad*%
%ADD27RoundRect,0.250000X-0.550000X0.550000X-0.550000X-0.550000X0.550000X-0.550000X0.550000X0.550000X0*%
%TD*%
%TA.AperFunction,ComponentPad*%
%ADD28C,1.800000*%
%TD*%
%TA.AperFunction,ComponentPad*%
%ADD29R,2.300000X1.500000*%
%TD*%
%TA.AperFunction,ComponentPad*%
%ADD30O,2.300000X1.500000*%
%TD*%
%TA.AperFunction,ViaPad*%
%ADD31C,0.600000*%
%TD*%
%TA.AperFunction,ViaPad*%
%ADD32C,1.000000*%
%TD*%
G04 APERTURE END LIST*
D10*
%TO.N,Net-(D1102-K)*%
%TO.C,D1102*%
X153570000Y-37602500D03*
D11*
%TO.N,/Precharge/+5V_TS_P_VEHI*%
X140870000Y-37602500D03*
%TD*%
D12*
%TO.N,/TS_P_ACCU*%
%TO.C,HV_ACCU101*%
X102520000Y-24352500D03*
D13*
%TO.N,unconnected-(HV_ACCU101-Pin_2-Pad2)*%
X99520000Y-24352500D03*
%TO.N,unconnected-(HV_ACCU101-Pin_3-Pad3)*%
X96520000Y-24352500D03*
%TO.N,/TS_N_ACCU*%
X93520000Y-24352500D03*
%TD*%
D14*
%TO.N,/HumiditySensing/LeakSens1/R_Leak_ElecIn*%
%TO.C,Leak1*%
X118530000Y-140440000D03*
D13*
%TO.N,/HumiditySensing/LeakSens1/R_Leak_ElecOut*%
X121530000Y-140440000D03*
%TD*%
D15*
%TO.N,GND*%
%TO.C,AIR401*%
X22000000Y-85000000D03*
D16*
X19000000Y-85000000D03*
%TO.N,/AIR/AIR_P_AUX2*%
X16000000Y-85000000D03*
%TO.N,/AIR/AIR_N_AUX2*%
X13000000Y-85000000D03*
%TO.N,/AIR/AIR_P_CTRL1*%
X22000000Y-82000000D03*
%TO.N,/AIR/AIR_N_CTRL1*%
X19000000Y-82000000D03*
%TO.N,/AIR/AIR_P_AUX1*%
X16000000Y-82000000D03*
%TO.N,/AIR/AIR_N_AUX1*%
X13000000Y-82000000D03*
%TD*%
D14*
%TO.N,/TempMeas/NTC1_+_4*%
%TO.C,NTC2*%
X78750000Y-138835000D03*
D13*
%TO.N,/TempMeas/NTC1_-*%
X81750000Y-138835000D03*
%TD*%
D12*
%TO.N,/TS_P_VEHI*%
%TO.C,HV_Indi101*%
X131395000Y-30302500D03*
D13*
%TO.N,unconnected-(HV_Indi101-Pin_2-Pad2)*%
X128395000Y-30302500D03*
%TO.N,unconnected-(HV_Indi101-Pin_3-Pad3)*%
X125395000Y-30302500D03*
%TO.N,/TS_N_VEHI*%
X122395000Y-30302500D03*
%TD*%
D17*
%TO.N,/TS_P_ACCU*%
%TO.C,F1901*%
X133840000Y-15187500D03*
%TO.N,Net-(Q1902-D)*%
X93200000Y-15187500D03*
%TD*%
D15*
%TO.N,+5V*%
%TO.C,U911*%
X105112500Y-55537500D03*
D16*
%TO.N,GND*%
X105112500Y-52997500D03*
%TO.N,/TS_N_VEHI*%
X105112500Y-45377500D03*
%TO.N,+5V_VEHI*%
X105112500Y-40297500D03*
%TD*%
D18*
%TO.N,/DCDC_AIR/TS_P_DCDC*%
%TO.C,HV_DCDC101*%
X32750000Y-23750000D03*
D19*
%TO.N,unconnected-(HV_DCDC101-Pin_2-Pad2)*%
X32750000Y-20750000D03*
%TO.N,unconnected-(HV_DCDC101-Pin_3-Pad3)*%
X32750000Y-17750000D03*
%TO.N,/TS_N_ACCU*%
X32750000Y-14750000D03*
%TD*%
D15*
%TO.N,+5V*%
%TO.C,U908*%
X87562500Y-52287500D03*
D16*
%TO.N,GND*%
X87562500Y-49747500D03*
%TO.N,/TS_N_ACCU*%
X87562500Y-42127500D03*
%TO.N,+5V_ACCU*%
X87562500Y-37047500D03*
%TD*%
D20*
%TO.N,/IMD_Monitoring/SC_In*%
%TO.C,MAIN_LV101*%
X81500000Y-83580000D03*
D16*
%TO.N,/+Batt_In*%
X84500000Y-83580000D03*
X87500000Y-83580000D03*
%TO.N,GND*%
X90500000Y-83580000D03*
X93500000Y-83580000D03*
%TO.N,/CAN1/CAN_P*%
X96500000Y-83580000D03*
%TO.N,/CAN1/CAN_N*%
X81500000Y-86580000D03*
%TO.N,/CAN2/CAN_P*%
X84500000Y-86580000D03*
%TO.N,/CAN2/CAN_N*%
X87500000Y-86580000D03*
%TO.N,/TSAL_GRN*%
X90500000Y-86580000D03*
%TO.N,/GND Hoop*%
X93500000Y-86580000D03*
%TO.N,unconnected-(MAIN_LV101-Pin_12-Pad12)*%
X96500000Y-86580000D03*
%TD*%
D14*
%TO.N,/TempMeas/NTC1_+_3*%
%TO.C,NTC3*%
X78750000Y-146655000D03*
D13*
%TO.N,/TempMeas/NTC1_-_1*%
X81750000Y-146655000D03*
%TD*%
D21*
%TO.N,Net-(D1103-K)*%
%TO.C,D1103*%
X140620000Y-22852500D03*
D11*
%TO.N,Net-(D1101-K)*%
X153320000Y-22852500D03*
%TD*%
D12*
%TO.N,/TS_P_VEHI*%
%TO.C,HV_VEHI101*%
X131345000Y-44267500D03*
D13*
%TO.N,unconnected-(HV_VEHI101-Pin_2-Pad2)*%
X128345000Y-44267500D03*
%TO.N,unconnected-(HV_VEHI101-Pin_3-Pad3)*%
X125345000Y-44267500D03*
%TO.N,/TS_N_VEHI*%
X122345000Y-44267500D03*
%TD*%
D12*
%TO.N,/Buzzer/Buzzer+*%
%TO.C,BUZZ101*%
X43000000Y-47750000D03*
D13*
%TO.N,/Buzzer/Buzzer-*%
X40000000Y-47750000D03*
%TD*%
D10*
%TO.N,Net-(D1903-K)*%
%TO.C,D1903*%
X50850000Y-26250000D03*
D11*
%TO.N,/DCDC_AIR/+5V_TS_P_DCDC*%
X38150000Y-26250000D03*
%TD*%
D22*
%TO.N,unconnected-(JTAG201-Pin_1-Pad1)*%
%TO.C,JTAG201*%
X81385000Y-73560000D03*
D23*
%TO.N,unconnected-(JTAG201-Pin_2-Pad2)*%
X80115000Y-73560000D03*
%TO.N,+3.3V*%
X81385000Y-72290000D03*
%TO.N,JTMS{slash}SWDIO*%
X80115000Y-72290000D03*
%TO.N,GND*%
X81385000Y-71020000D03*
%TO.N,JCLK{slash}SWCLK*%
X80115000Y-71020000D03*
%TO.N,GND*%
X81385000Y-69750000D03*
%TO.N,JTDO{slash}SWO*%
X80115000Y-69750000D03*
%TO.N,unconnected-(JTAG201-Pin_9-Pad9)*%
X81385000Y-68480000D03*
%TO.N,JTDI{slash}NC*%
X80115000Y-68480000D03*
%TO.N,GND*%
X81385000Y-67210000D03*
%TO.N,nRES*%
X80115000Y-67210000D03*
%TO.N,T_VCP_RX*%
X81385000Y-65940000D03*
%TO.N,T_VCP_TX*%
X80115000Y-65940000D03*
%TD*%
D24*
%TO.N,+BATT*%
%TO.C,C102*%
X107432380Y-76000000D03*
D25*
%TO.N,GND*%
X104932380Y-76000000D03*
%TD*%
D14*
%TO.N,/TempMeas/NTC1_+_1*%
%TO.C,NTC5*%
X78750000Y-162295000D03*
D13*
%TO.N,/TempMeas/NTC1_-_3*%
X81750000Y-162295000D03*
%TD*%
D12*
%TO.N,/TS_P_VEHI*%
%TO.C,IMD_HV101*%
X131395000Y-37137500D03*
D13*
%TO.N,unconnected-(IMD_HV101-Pin_2-Pad2)*%
X128395000Y-37137500D03*
%TO.N,unconnected-(IMD_HV101-Pin_3-Pad3)*%
X125395000Y-37137500D03*
%TO.N,/TS_N_VEHI*%
X122395000Y-37137500D03*
%TD*%
D26*
%TO.N,/DCDC_AIR/TS_P_DCDC*%
%TO.C,K1901*%
X48230000Y-33637500D03*
%TO.N,Net-(D1902-A)*%
X76170000Y-33637500D03*
%TO.N,Net-(D1905-K)*%
X72715000Y-46337500D03*
%TO.N,GND*%
X51685000Y-46337500D03*
%TD*%
D14*
%TO.N,/TempMeas/NTC1_+*%
%TO.C,NTC1*%
X78750000Y-131015000D03*
D13*
%TO.N,/TempMeas/NTC1_-_4*%
X81750000Y-131015000D03*
%TD*%
D15*
%TO.N,+5V*%
%TO.C,U2002*%
X16392500Y-43850000D03*
D16*
%TO.N,GND*%
X16392500Y-41310000D03*
%TO.N,/TS_N_ACCU*%
X16392500Y-33690000D03*
%TO.N,+5V_DCDC*%
X16392500Y-28610000D03*
%TD*%
D24*
%TO.N,+3.3V*%
%TO.C,C1804*%
X115750000Y-72500000D03*
D25*
%TO.N,GND*%
X112250000Y-72500000D03*
%TD*%
D27*
%TO.N,+BATT*%
%TO.C,C1801*%
X105250000Y-83097349D03*
D25*
%TO.N,GND*%
X105250000Y-86597349D03*
%TD*%
D20*
%TO.N,GND*%
%TO.C,IMD_LV101*%
X30750000Y-66830000D03*
D16*
%TO.N,+BATT*%
X33750000Y-66830000D03*
%TO.N,GND*%
X36750000Y-66830000D03*
%TO.N,/GND Hoop*%
X30750000Y-69830000D03*
%TO.N,/IMD_Monitoring/M_HSLS*%
X33750000Y-69830000D03*
%TO.N,/IMD_Monitoring/OK_HS*%
X36750000Y-69830000D03*
%TD*%
D12*
%TO.N,/StackCommInterface/IFH_H*%
%TO.C,ISOUART_H101*%
X194750000Y-40415000D03*
D13*
%TO.N,/StackCommInterface/IFH_L*%
X191750000Y-40415000D03*
%TD*%
D14*
%TO.N,/HumiditySensing/LeakSens2/R_Leak_ElecIn*%
%TO.C,Leak2*%
X118530000Y-148260000D03*
D13*
%TO.N,/HumiditySensing/LeakSens2/R_Leak_ElecOut*%
X121530000Y-148260000D03*
%TD*%
D28*
%TO.N,Net-(TH1101-Pad2)*%
%TO.C,TH1102*%
X160470000Y-28102500D03*
%TO.N,Net-(Q1102-D)*%
X161770000Y-20602500D03*
%TD*%
%TO.N,Net-(Q1902-D)*%
%TO.C,TH1901*%
X86770000Y-15937500D03*
%TO.N,Net-(TH1901-Pad2)*%
X79270000Y-14637500D03*
%TD*%
D15*
%TO.N,+5V*%
%TO.C,U1903*%
X30967500Y-46600000D03*
D16*
%TO.N,GND*%
X30967500Y-44060000D03*
%TO.N,/DCDC_AIR/TS_P_DCDC*%
X30967500Y-36440000D03*
%TO.N,/DCDC_AIR/+5V_TS_P_DCDC*%
X30967500Y-31360000D03*
%TD*%
D29*
%TO.N,+BATT*%
%TO.C,U1801*%
X116457500Y-85697500D03*
D30*
%TO.N,GND*%
X116457500Y-83157500D03*
%TO.N,+3.3V*%
X116457500Y-80617500D03*
%TD*%
D10*
%TO.N,Net-(D1104-K)*%
%TO.C,D1104*%
X165820000Y-43852500D03*
D11*
%TO.N,Net-(D1102-K)*%
X153120000Y-43852500D03*
%TD*%
D28*
%TO.N,Net-(D1103-K)*%
%TO.C,TH1101*%
X143570000Y-28852500D03*
%TO.N,Net-(TH1101-Pad2)*%
X151070000Y-30152500D03*
%TD*%
%TO.N,Net-(TH1901-Pad2)*%
%TO.C,TH1902*%
X69270000Y-15587500D03*
%TO.N,Net-(Q1901-D)*%
X61770000Y-14287500D03*
%TD*%
D14*
%TO.N,/TempMeas/NTC1_+_2*%
%TO.C,NTC4*%
X78750000Y-154475000D03*
D13*
%TO.N,/TempMeas/NTC1_-_2*%
X81750000Y-154475000D03*
%TD*%
D26*
%TO.N,/TS_P_VEHI*%
%TO.C,K1101*%
X138430000Y-48552500D03*
%TO.N,Net-(D1108-A)*%
X166370000Y-48552500D03*
%TO.N,Net-(D1105-K)*%
X162915000Y-61252500D03*
%TO.N,GND*%
X141885000Y-61252500D03*
%TD*%
D14*
%TO.N,GND*%
%TO.C,FAN101*%
X88250000Y-62835000D03*
D13*
%TO.N,+BATT*%
X91250000Y-62835000D03*
%TO.N,Net-(D101-K)*%
X94250000Y-62835000D03*
%TD*%
D12*
%TO.N,/StackCommInterface/IFL_H*%
%TO.C,ISOUART_L101*%
X183250000Y-40415000D03*
D13*
%TO.N,/StackCommInterface/IFL_L*%
X180250000Y-40415000D03*
%TD*%
D15*
%TO.N,+5V*%
%TO.C,U1103*%
X130145000Y-65387500D03*
D16*
%TO.N,GND*%
X130145000Y-62847500D03*
%TO.N,/TS_P_VEHI*%
X130145000Y-55227500D03*
%TO.N,/Precharge/+5V_TS_P_VEHI*%
X130145000Y-50147500D03*
%TD*%
D29*
%TO.N,+BATT*%
%TO.C,U1802*%
X125542500Y-80302500D03*
D30*
%TO.N,GND*%
X125542500Y-82842500D03*
%TO.N,+5V*%
X125542500Y-85382500D03*
%TD*%
D10*
%TO.N,Net-(D1101-K)*%
%TO.C,D1101*%
X153245000Y-15137500D03*
D11*
%TO.N,/TS_P_ACCU*%
X140545000Y-15137500D03*
%TD*%
D31*
%TO.N,/MCU/FAN_PWM*%
X84000000Y-62500000D03*
%TO.N,/Buzzer/Buzzer_CTRL*%
X43500000Y-53500000D03*
%TO.N,/IMD_Monitoring/IMD_OK*%
X39500000Y-72000000D03*
X45750000Y-71750000D03*
X46750000Y-69125000D03*
%TO.N,/IMD_Monitoring/IMD_State*%
X35944083Y-72687560D03*
%TO.N,/IMD_Monitoring/IMD_SC_Closed*%
X45750000Y-70750000D03*
%TO.N,Net-(3V3Good1801-A)*%
X118000000Y-76000000D03*
%TO.N,Net-(5VGood1801-A)*%
X133000000Y-84750000D03*
%TO.N,/CAN1/CAN_RX*%
X64750000Y-80000000D03*
%TO.N,/CAN1/CAN_N*%
X81750000Y-76750000D03*
%TO.N,/CAN1/CAN_TX*%
X77500000Y-80500000D03*
%TO.N,/CAN2/CAN_TX*%
X53329442Y-78620558D03*
%TO.N,/CAN2/CAN_RX*%
X55250000Y-81000000D03*
%TO.N,+3.3V*%
X52000000Y-67000000D03*
%TO.N,Latch_SC*%
X59000000Y-83250000D03*
X56250000Y-81000000D03*
%TO.N,SC_Latched*%
X56492473Y-83037843D03*
X58000000Y-81350000D03*
%TO.N,/MCU/Boot0*%
X64500000Y-64250000D03*
%TO.N,+3.3V*%
X61750000Y-61500000D03*
D32*
%TO.N,/TS_N_ACCU*%
X94720000Y-38937500D03*
X22712500Y-27500000D03*
D31*
%TO.N,/StackCommInterface/VDDC*%
X204512500Y-64512500D03*
X209250000Y-65250000D03*
%TO.N,GND*%
X186000000Y-72750000D03*
X176000000Y-66250000D03*
X23000000Y-44500000D03*
X106750000Y-65000000D03*
X186250000Y-63500000D03*
X57000000Y-47250000D03*
X64500000Y-49250000D03*
X166500000Y-67250000D03*
X15000000Y-47750000D03*
X210000000Y-60000000D03*
X158500000Y-64000000D03*
X202750000Y-70500000D03*
X156750000Y-71500000D03*
X19500000Y-50500000D03*
X210000000Y-56500000D03*
X112500000Y-57500000D03*
X215500000Y-71750000D03*
X167500000Y-61750000D03*
X73500000Y-49000000D03*
X206500000Y-56500000D03*
X206500000Y-60000000D03*
X198500000Y-66000000D03*
X82000000Y-55500000D03*
X208250000Y-58250000D03*
X213250000Y-65000000D03*
X176250000Y-59500000D03*
X70000000Y-54825000D03*
%TO.N,/AIR/AIR_P_Actual*%
X27645000Y-46145000D03*
%TO.N,Net-(U1002-Pad3)*%
X26395000Y-51395000D03*
%TO.N,/AIR/AIR_N_Actual*%
X24113307Y-49292810D03*
%TO.N,Net-(U1002-Pad6)*%
X23395000Y-49645000D03*
%TO.N,Net-(U1002-Pad8)*%
X22895000Y-50395000D03*
%TO.N,/MCU/PCHRG_ACTUAL*%
X25145000Y-50145000D03*
X164250000Y-58500000D03*
%TO.N,/HV_Measurement/nDANGER_V*%
X21502396Y-58502396D03*
X20618512Y-57618512D03*
%TO.N,Net-(U1005A-nCLR)*%
X21145000Y-59395000D03*
X32645000Y-55845000D03*
D32*
%TO.N,Net-(U910-INP)*%
X114145000Y-26687500D03*
D31*
%TO.N,/HV_Measurement/V_VEHI*%
X111750000Y-59750000D03*
D32*
%TO.N,/TS_N_VEHI*%
X105895000Y-41687500D03*
X110645000Y-36687500D03*
%TO.N,Net-(R1106-Pad2)*%
X172395000Y-43437500D03*
X172167217Y-39939487D03*
%TO.N,+5V_VEHI*%
X106145000Y-37937500D03*
D31*
%TO.N,Net-(U301-IFL_H)*%
X197500000Y-73750000D03*
X200425000Y-71250000D03*
D32*
%TO.N,/DCDC_AIR/TS_P_DCDC*%
X16250000Y-10750000D03*
%TO.N,+5V_ACCU*%
X90847383Y-31048112D03*
%TO.N,Net-(U2003-INP)*%
X21250000Y-29000000D03*
D31*
%TO.N,Net-(U1003-Pad6)*%
X24645000Y-54645000D03*
%TO.N,Net-(U301-IFL_L)*%
X199906880Y-70640446D03*
X196250000Y-74375000D03*
D32*
%TO.N,Net-(U907-INP)*%
X91895000Y-32687500D03*
D31*
%TO.N,Net-(U1001-Pad1)*%
X27395000Y-55145000D03*
%TO.N,/TSAL_Logik/TS_ON*%
X27145000Y-49395000D03*
D32*
%TO.N,Net-(D1902-K)*%
X67791250Y-30958750D03*
%TO.N,Net-(R921-Pad2)*%
X108895000Y-24187500D03*
%TO.N,+3.3V_DCDC*%
X21250000Y-26250000D03*
X15250000Y-27250000D03*
X18000000Y-27250000D03*
D31*
%TO.N,Net-(D1903-K)*%
X61250000Y-35000000D03*
%TD*%
M02*
