%TF.GenerationSoftware,KiCad,Pcbnew,10.0.3*%
%TF.CreationDate,2026-08-01T18:23:17+02:00*%
%TF.ProjectId,Pack_Controller,5061636b-5f43-46f6-9e74-726f6c6c6572,rev?*%
%TF.SameCoordinates,Original*%
%TF.FileFunction,Copper,L4,Bot*%
%TF.FilePolarity,Positive*%
%FSLAX46Y46*%
G04 Gerber Fmt 4.6, Leading zero omitted, Abs format (unit mm)*
G04 Created by KiCad (PCBNEW 10.0.3) date 2026-08-01 18:23:17*
%MOMM*%
%LPD*%
G01*
G04 APERTURE LIST*
G04 Aperture macros list*
%AMRoundRect*
0 Rectangle with rounded corners*
0 $1 Rounding radius*
0 $2 $3 $4 $5 $6 $7 $8 $9 X,Y pos of 4 corners*
0 Add a 4 corners polygon primitive as box body*
4,1,4,$2,$3,$4,$5,$6,$7,$8,$9,$2,$3,0*
0 Add four circle primitives for the rounded corners*
1,1,$1+$1,$2,$3*
1,1,$1+$1,$4,$5*
1,1,$1+$1,$6,$7*
1,1,$1+$1,$8,$9*
0 Add four rect primitives between the rounded corners*
20,1,$1+$1,$2,$3,$4,$5,0*
20,1,$1+$1,$4,$5,$6,$7,0*
20,1,$1+$1,$6,$7,$8,$9,0*
20,1,$1+$1,$8,$9,$2,$3,0*%
G04 Aperture macros list end*
%TA.AperFunction,SMDPad,CuDef*%
%ADD10RoundRect,0.237500X0.250000X0.237500X-0.250000X0.237500X-0.250000X-0.237500X0.250000X-0.237500X0*%
%TD*%
%TA.AperFunction,ComponentPad*%
%ADD11RoundRect,0.250000X1.050000X1.050000X-1.050000X1.050000X-1.050000X-1.050000X1.050000X-1.050000X0*%
%TD*%
%TA.AperFunction,ComponentPad*%
%ADD12C,2.600000*%
%TD*%
%TA.AperFunction,ComponentPad*%
%ADD13RoundRect,0.250001X0.499999X0.759999X-0.499999X0.759999X-0.499999X-0.759999X0.499999X-0.759999X0*%
%TD*%
%TA.AperFunction,ComponentPad*%
%ADD14O,1.500000X2.020000*%
%TD*%
%TA.AperFunction,ComponentPad*%
%ADD15RoundRect,0.250001X-0.499999X-0.759999X0.499999X-0.759999X0.499999X0.759999X-0.499999X0.759999X0*%
%TD*%
%TA.AperFunction,SMDPad,CuDef*%
%ADD16RoundRect,0.225000X0.375000X-0.225000X0.375000X0.225000X-0.375000X0.225000X-0.375000X-0.225000X0*%
%TD*%
%TA.AperFunction,SMDPad,CuDef*%
%ADD17RoundRect,0.237500X-0.237500X0.250000X-0.237500X-0.250000X0.237500X-0.250000X0.237500X0.250000X0*%
%TD*%
%TA.AperFunction,SMDPad,CuDef*%
%ADD18RoundRect,0.150000X-0.825000X-0.150000X0.825000X-0.150000X0.825000X0.150000X-0.825000X0.150000X0*%
%TD*%
%TA.AperFunction,SMDPad,CuDef*%
%ADD19RoundRect,0.150000X-0.150000X0.587500X-0.150000X-0.587500X0.150000X-0.587500X0.150000X0.587500X0*%
%TD*%
%TA.AperFunction,ComponentPad*%
%ADD20RoundRect,0.250001X0.499999X0.499999X-0.499999X0.499999X-0.499999X-0.499999X0.499999X-0.499999X0*%
%TD*%
%TA.AperFunction,ComponentPad*%
%ADD21C,1.500000*%
%TD*%
%TA.AperFunction,SMDPad,CuDef*%
%ADD22RoundRect,0.150000X0.150000X-0.587500X0.150000X0.587500X-0.150000X0.587500X-0.150000X-0.587500X0*%
%TD*%
%TA.AperFunction,SMDPad,CuDef*%
%ADD23RoundRect,0.112500X-0.187500X-0.112500X0.187500X-0.112500X0.187500X0.112500X-0.187500X0.112500X0*%
%TD*%
%TA.AperFunction,SMDPad,CuDef*%
%ADD24RoundRect,0.250000X0.475000X-0.337500X0.475000X0.337500X-0.475000X0.337500X-0.475000X-0.337500X0*%
%TD*%
%TA.AperFunction,SMDPad,CuDef*%
%ADD25RoundRect,0.237500X0.237500X-0.250000X0.237500X0.250000X-0.237500X0.250000X-0.237500X-0.250000X0*%
%TD*%
%TA.AperFunction,SMDPad,CuDef*%
%ADD26RoundRect,0.200000X-0.200000X-0.275000X0.200000X-0.275000X0.200000X0.275000X-0.200000X0.275000X0*%
%TD*%
%TA.AperFunction,SMDPad,CuDef*%
%ADD27RoundRect,0.225000X-0.225000X-0.250000X0.225000X-0.250000X0.225000X0.250000X-0.225000X0.250000X0*%
%TD*%
%TA.AperFunction,SMDPad,CuDef*%
%ADD28RoundRect,0.237500X0.300000X0.237500X-0.300000X0.237500X-0.300000X-0.237500X0.300000X-0.237500X0*%
%TD*%
%TA.AperFunction,SMDPad,CuDef*%
%ADD29RoundRect,0.237500X-0.300000X-0.237500X0.300000X-0.237500X0.300000X0.237500X-0.300000X0.237500X0*%
%TD*%
%TA.AperFunction,ComponentPad*%
%ADD30C,2.400000*%
%TD*%
%TA.AperFunction,SMDPad,CuDef*%
%ADD31RoundRect,0.237500X-0.237500X0.300000X-0.237500X-0.300000X0.237500X-0.300000X0.237500X0.300000X0*%
%TD*%
%TA.AperFunction,SMDPad,CuDef*%
%ADD32RoundRect,0.162500X-0.162500X0.650000X-0.162500X-0.650000X0.162500X-0.650000X0.162500X0.650000X0*%
%TD*%
%TA.AperFunction,ComponentPad*%
%ADD33RoundRect,0.250001X0.759999X-0.499999X0.759999X0.499999X-0.759999X0.499999X-0.759999X-0.499999X0*%
%TD*%
%TA.AperFunction,ComponentPad*%
%ADD34O,2.020000X1.500000*%
%TD*%
%TA.AperFunction,ComponentPad*%
%ADD35RoundRect,0.250001X-0.499999X-0.499999X0.499999X-0.499999X0.499999X0.499999X-0.499999X0.499999X0*%
%TD*%
%TA.AperFunction,SMDPad,CuDef*%
%ADD36RoundRect,0.200000X0.275000X-0.200000X0.275000X0.200000X-0.275000X0.200000X-0.275000X-0.200000X0*%
%TD*%
%TA.AperFunction,SMDPad,CuDef*%
%ADD37RoundRect,0.150000X-0.512500X-0.150000X0.512500X-0.150000X0.512500X0.150000X-0.512500X0.150000X0*%
%TD*%
%TA.AperFunction,ComponentPad*%
%ADD38RoundRect,0.250000X-1.050000X-1.050000X1.050000X-1.050000X1.050000X1.050000X-1.050000X1.050000X0*%
%TD*%
%TA.AperFunction,SMDPad,CuDef*%
%ADD39RoundRect,0.087500X0.087500X-0.537500X0.087500X0.537500X-0.087500X0.537500X-0.087500X-0.537500X0*%
%TD*%
%TA.AperFunction,ComponentPad*%
%ADD40R,1.000000X1.000000*%
%TD*%
%TA.AperFunction,ComponentPad*%
%ADD41C,1.000000*%
%TD*%
%TA.AperFunction,ComponentPad*%
%ADD42RoundRect,0.250000X0.550000X0.550000X-0.550000X0.550000X-0.550000X-0.550000X0.550000X-0.550000X0*%
%TD*%
%TA.AperFunction,ComponentPad*%
%ADD43C,1.600000*%
%TD*%
%TA.AperFunction,ComponentPad*%
%ADD44RoundRect,0.285000X0.665000X0.665000X-0.665000X0.665000X-0.665000X-0.665000X0.665000X-0.665000X0*%
%TD*%
%TA.AperFunction,ComponentPad*%
%ADD45RoundRect,0.250000X-0.550000X0.550000X-0.550000X-0.550000X0.550000X-0.550000X0.550000X0.550000X0*%
%TD*%
%TA.AperFunction,SMDPad,CuDef*%
%ADD46RoundRect,0.237500X-0.250000X-0.237500X0.250000X-0.237500X0.250000X0.237500X-0.250000X0.237500X0*%
%TD*%
%TA.AperFunction,SMDPad,CuDef*%
%ADD47RoundRect,0.200000X0.200000X0.275000X-0.200000X0.275000X-0.200000X-0.275000X0.200000X-0.275000X0*%
%TD*%
%TA.AperFunction,ComponentPad*%
%ADD48C,1.800000*%
%TD*%
%TA.AperFunction,SMDPad,CuDef*%
%ADD49RoundRect,0.250000X-0.475000X0.337500X-0.475000X-0.337500X0.475000X-0.337500X0.475000X0.337500X0*%
%TD*%
%TA.AperFunction,SMDPad,CuDef*%
%ADD50RoundRect,0.250000X0.475000X-0.250000X0.475000X0.250000X-0.475000X0.250000X-0.475000X-0.250000X0*%
%TD*%
%TA.AperFunction,SMDPad,CuDef*%
%ADD51RoundRect,0.250000X0.337500X0.475000X-0.337500X0.475000X-0.337500X-0.475000X0.337500X-0.475000X0*%
%TD*%
%TA.AperFunction,ComponentPad*%
%ADD52R,2.300000X1.500000*%
%TD*%
%TA.AperFunction,ComponentPad*%
%ADD53O,2.300000X1.500000*%
%TD*%
%TA.AperFunction,SMDPad,CuDef*%
%ADD54RoundRect,0.225000X0.225000X0.375000X-0.225000X0.375000X-0.225000X-0.375000X0.225000X-0.375000X0*%
%TD*%
%TA.AperFunction,SMDPad,CuDef*%
%ADD55RoundRect,0.237500X0.237500X-0.300000X0.237500X0.300000X-0.237500X0.300000X-0.237500X-0.300000X0*%
%TD*%
%TA.AperFunction,SMDPad,CuDef*%
%ADD56RoundRect,0.150000X-0.150000X0.512500X-0.150000X-0.512500X0.150000X-0.512500X0.150000X0.512500X0*%
%TD*%
%TA.AperFunction,SMDPad,CuDef*%
%ADD57RoundRect,0.150000X0.150000X-0.512500X0.150000X0.512500X-0.150000X0.512500X-0.150000X-0.512500X0*%
%TD*%
%TA.AperFunction,SMDPad,CuDef*%
%ADD58RoundRect,0.112500X0.187500X0.112500X-0.187500X0.112500X-0.187500X-0.112500X0.187500X-0.112500X0*%
%TD*%
%TA.AperFunction,SMDPad,CuDef*%
%ADD59RoundRect,0.150000X0.587500X0.150000X-0.587500X0.150000X-0.587500X-0.150000X0.587500X-0.150000X0*%
%TD*%
%TA.AperFunction,SMDPad,CuDef*%
%ADD60RoundRect,0.162500X-0.162500X0.750000X-0.162500X-0.750000X0.162500X-0.750000X0.162500X0.750000X0*%
%TD*%
%TA.AperFunction,SMDPad,CuDef*%
%ADD61RoundRect,0.250000X-0.250000X-0.475000X0.250000X-0.475000X0.250000X0.475000X-0.250000X0.475000X0*%
%TD*%
%TA.AperFunction,SMDPad,CuDef*%
%ADD62RoundRect,0.225000X0.250000X-0.225000X0.250000X0.225000X-0.250000X0.225000X-0.250000X-0.225000X0*%
%TD*%
%TA.AperFunction,SMDPad,CuDef*%
%ADD63RoundRect,0.150000X-0.587500X-0.150000X0.587500X-0.150000X0.587500X0.150000X-0.587500X0.150000X0*%
%TD*%
%TA.AperFunction,SMDPad,CuDef*%
%ADD64RoundRect,0.250000X-0.450000X0.350000X-0.450000X-0.350000X0.450000X-0.350000X0.450000X0.350000X0*%
%TD*%
%TA.AperFunction,SMDPad,CuDef*%
%ADD65RoundRect,0.250000X0.250000X0.475000X-0.250000X0.475000X-0.250000X-0.475000X0.250000X-0.475000X0*%
%TD*%
%TA.AperFunction,SMDPad,CuDef*%
%ADD66RoundRect,0.225000X-0.250000X0.225000X-0.250000X-0.225000X0.250000X-0.225000X0.250000X0.225000X0*%
%TD*%
%TA.AperFunction,SMDPad,CuDef*%
%ADD67RoundRect,0.225000X-0.225000X-0.375000X0.225000X-0.375000X0.225000X0.375000X-0.225000X0.375000X0*%
%TD*%
%TA.AperFunction,SMDPad,CuDef*%
%ADD68RoundRect,0.200000X-0.275000X0.200000X-0.275000X-0.200000X0.275000X-0.200000X0.275000X0.200000X0*%
%TD*%
%TA.AperFunction,SMDPad,CuDef*%
%ADD69RoundRect,0.250000X0.650000X-1.000000X0.650000X1.000000X-0.650000X1.000000X-0.650000X-1.000000X0*%
%TD*%
%TA.AperFunction,SMDPad,CuDef*%
%ADD70RoundRect,0.250000X-0.250000X-0.250000X0.250000X-0.250000X0.250000X0.250000X-0.250000X0.250000X0*%
%TD*%
%TA.AperFunction,SMDPad,CuDef*%
%ADD71RoundRect,0.225000X0.225000X0.250000X-0.225000X0.250000X-0.225000X-0.250000X0.225000X-0.250000X0*%
%TD*%
%TA.AperFunction,SMDPad,CuDef*%
%ADD72RoundRect,0.250000X0.350000X0.450000X-0.350000X0.450000X-0.350000X-0.450000X0.350000X-0.450000X0*%
%TD*%
%TA.AperFunction,SMDPad,CuDef*%
%ADD73RoundRect,0.150000X0.512500X0.150000X-0.512500X0.150000X-0.512500X-0.150000X0.512500X-0.150000X0*%
%TD*%
%TA.AperFunction,SMDPad,CuDef*%
%ADD74RoundRect,0.250000X-0.350000X-0.450000X0.350000X-0.450000X0.350000X0.450000X-0.350000X0.450000X0*%
%TD*%
%TA.AperFunction,SMDPad,CuDef*%
%ADD75RoundRect,0.162500X0.162500X-0.750000X0.162500X0.750000X-0.162500X0.750000X-0.162500X-0.750000X0*%
%TD*%
%TA.AperFunction,SMDPad,CuDef*%
%ADD76R,0.600000X2.200000*%
%TD*%
%TA.AperFunction,SMDPad,CuDef*%
%ADD77RoundRect,0.100000X0.100000X-0.637500X0.100000X0.637500X-0.100000X0.637500X-0.100000X-0.637500X0*%
%TD*%
%TA.AperFunction,SMDPad,CuDef*%
%ADD78RoundRect,0.250000X-0.475000X0.250000X-0.475000X-0.250000X0.475000X-0.250000X0.475000X0.250000X0*%
%TD*%
%TA.AperFunction,SMDPad,CuDef*%
%ADD79RoundRect,0.249999X-0.450001X-1.425001X0.450001X-1.425001X0.450001X1.425001X-0.450001X1.425001X0*%
%TD*%
%TA.AperFunction,SMDPad,CuDef*%
%ADD80RoundRect,0.250000X0.262500X0.450000X-0.262500X0.450000X-0.262500X-0.450000X0.262500X-0.450000X0*%
%TD*%
%TA.AperFunction,SMDPad,CuDef*%
%ADD81RoundRect,0.225000X-0.375000X0.225000X-0.375000X-0.225000X0.375000X-0.225000X0.375000X0.225000X0*%
%TD*%
%TA.AperFunction,SMDPad,CuDef*%
%ADD82RoundRect,0.250000X-0.450000X0.262500X-0.450000X-0.262500X0.450000X-0.262500X0.450000X0.262500X0*%
%TD*%
%TA.AperFunction,ViaPad*%
%ADD83C,0.600000*%
%TD*%
%TA.AperFunction,ViaPad*%
%ADD84C,1.000000*%
%TD*%
%TA.AperFunction,Conductor*%
%ADD85C,0.250000*%
%TD*%
%TA.AperFunction,Conductor*%
%ADD86C,0.500000*%
%TD*%
%TA.AperFunction,Conductor*%
%ADD87C,1.000000*%
%TD*%
%TA.AperFunction,Conductor*%
%ADD88C,2.000000*%
%TD*%
%TA.AperFunction,Conductor*%
%ADD89C,0.750000*%
%TD*%
%TA.AperFunction,Conductor*%
%ADD90C,0.200000*%
%TD*%
G04 APERTURE END LIST*
D10*
%TO.P,R215,2*%
%TO.N,GND*%
X61337500Y-64250000D03*
%TO.P,R215,1*%
%TO.N,/MCU/Boot0*%
X63162500Y-64250000D03*
%TD*%
D11*
%TO.P,D1102,1,K_1*%
%TO.N,Net-(D1102-K)*%
X153570000Y-37602500D03*
D12*
%TO.P,D1102,2,A_2*%
%TO.N,/Precharge/+5V_TS_P_VEHI*%
X140870000Y-37602500D03*
%TD*%
D13*
%TO.P,HV_ACCU101,1,Pin_1_1*%
%TO.N,/TS_P_ACCU*%
X102520000Y-24352500D03*
D14*
%TO.P,HV_ACCU101,2,Pin_2_2*%
%TO.N,unconnected-(HV_ACCU101-Pin_2-Pad2)*%
X99520000Y-24352500D03*
%TO.P,HV_ACCU101,3,Pin_3_3*%
%TO.N,unconnected-(HV_ACCU101-Pin_3-Pad3)*%
X96520000Y-24352500D03*
%TO.P,HV_ACCU101,4,Pin_4_4*%
%TO.N,/TS_N_ACCU*%
X93520000Y-24352500D03*
%TD*%
D15*
%TO.P,Leak1,1,Pin_1_1*%
%TO.N,/HumiditySensing/LeakSens1/R_Leak_ElecIn*%
X118530000Y-140440000D03*
D14*
%TO.P,Leak1,2,Pin_2_2*%
%TO.N,/HumiditySensing/LeakSens1/R_Leak_ElecOut*%
X121530000Y-140440000D03*
%TD*%
D16*
%TO.P,D2302,1,K_1*%
%TO.N,+3.3V*%
X39000000Y-79650000D03*
%TO.P,D2302,2,A_2*%
%TO.N,Net-(D2302-A)*%
X39000000Y-76350000D03*
%TD*%
D10*
%TO.P,R1802,1*%
%TO.N,Net-(5VGood1801-A)*%
X132162500Y-84750000D03*
%TO.P,R1802,2*%
%TO.N,+5V*%
X130337500Y-84750000D03*
%TD*%
D17*
%TO.P,R804,1*%
%TO.N,Net-(Q801-G)*%
X41976750Y-50337500D03*
%TO.P,R804,2*%
%TO.N,GND*%
X41976750Y-52162500D03*
%TD*%
D18*
%TO.P,U601,1,TXD_1*%
%TO.N,/CAN2/CAN_TX*%
X68025000Y-87435000D03*
%TO.P,U601,2,VSS_2*%
%TO.N,GND*%
X68025000Y-86165000D03*
%TO.P,U601,3,VDD_3*%
%TO.N,+5V*%
X68025000Y-84895000D03*
%TO.P,U601,4,RXD_4*%
%TO.N,Net-(U601-RXD)*%
X68025000Y-83625000D03*
%TO.P,U601,5,Vio_5*%
%TO.N,+3.3V*%
X72975000Y-83625000D03*
%TO.P,U601,6,CANL_6*%
%TO.N,/CAN2/CAN_N*%
X72975000Y-84895000D03*
%TO.P,U601,7,CANH_7*%
%TO.N,/CAN2/CAN_P*%
X72975000Y-86165000D03*
%TO.P,U601,8,STBY_8*%
%TO.N,Net-(U601-STBY)*%
X72975000Y-87435000D03*
%TD*%
D19*
%TO.P,Q101,1,B_1*%
%TO.N,Net-(Q101-B)*%
X88300000Y-65312500D03*
%TO.P,Q101,2,E_2*%
%TO.N,GND*%
X90200000Y-65312500D03*
%TO.P,Q101,3,C_3*%
%TO.N,Net-(Q101-C)*%
X89250000Y-67187500D03*
%TD*%
D10*
%TO.P,R503,1*%
%TO.N,GND*%
X87412500Y-79780000D03*
%TO.P,R503,2*%
%TO.N,Net-(U501-STBY)*%
X85587500Y-79780000D03*
%TD*%
D20*
%TO.P,AIR401,1,Pin_1_1*%
%TO.N,GND*%
X22000000Y-85000000D03*
D21*
%TO.P,AIR401,2,Pin_2_2*%
X19000000Y-85000000D03*
%TO.P,AIR401,3,Pin_3_3*%
%TO.N,/AIR/AIR_P_AUX2*%
X16000000Y-85000000D03*
%TO.P,AIR401,4,Pin_4_4*%
%TO.N,/AIR/AIR_N_AUX2*%
X13000000Y-85000000D03*
%TO.P,AIR401,5,Pin_5_5*%
%TO.N,/AIR/AIR_P_CTRL1*%
X22000000Y-82000000D03*
%TO.P,AIR401,6,Pin_6_6*%
%TO.N,/AIR/AIR_N_CTRL1*%
X19000000Y-82000000D03*
%TO.P,AIR401,7,Pin_7_7*%
%TO.N,/AIR/AIR_P_AUX1*%
X16000000Y-82000000D03*
%TO.P,AIR401,8,Pin_8_8*%
%TO.N,/AIR/AIR_N_AUX1*%
X13000000Y-82000000D03*
%TD*%
D22*
%TO.P,Q2301,1,B_1*%
%TO.N,/IMD_Monitoring/IMD_SC_Closed*%
X41950000Y-64437500D03*
%TO.P,Q2301,2,E_2*%
%TO.N,GND*%
X40050000Y-64437500D03*
%TO.P,Q2301,3,C_3*%
%TO.N,Net-(Q2301-C)*%
X41000000Y-62562500D03*
%TD*%
D15*
%TO.P,NTC2,1,Pin_1_1*%
%TO.N,/TempMeas/NTC1_+_4*%
X78750000Y-138835000D03*
D14*
%TO.P,NTC2,2,Pin_2_2*%
%TO.N,/TempMeas/NTC1_-*%
X81750000Y-138835000D03*
%TD*%
D23*
%TO.P,D602,1,K_1*%
%TO.N,/CAN2/CAN_N*%
X86700000Y-88500000D03*
%TO.P,D602,2,A_2*%
%TO.N,GND*%
X88800000Y-88500000D03*
%TD*%
D24*
%TO.P,C1805,1*%
%TO.N,+BATT*%
X128500000Y-82787500D03*
%TO.P,C1805,2*%
%TO.N,GND*%
X128500000Y-80712500D03*
%TD*%
D25*
%TO.P,R2301,1*%
%TO.N,+3.3V*%
X41000000Y-78162500D03*
%TO.P,R2301,2*%
%TO.N,Net-(D2302-A)*%
X41000000Y-76337500D03*
%TD*%
D26*
%TO.P,R101,1*%
%TO.N,/MCU/FAN_PWM*%
X84925000Y-63250000D03*
%TO.P,R101,2*%
%TO.N,GND*%
X86575000Y-63250000D03*
%TD*%
D27*
%TO.P,C2302,1*%
%TO.N,+3.3V*%
X44475000Y-76000000D03*
%TO.P,C2302,2*%
%TO.N,GND*%
X46025000Y-76000000D03*
%TD*%
D13*
%TO.P,HV_Indi101,1,Pin_1_1*%
%TO.N,/TS_P_VEHI*%
X131395000Y-30302500D03*
D14*
%TO.P,HV_Indi101,2,Pin_2_2*%
%TO.N,unconnected-(HV_Indi101-Pin_2-Pad2)*%
X128395000Y-30302500D03*
%TO.P,HV_Indi101,3,Pin_3_3*%
%TO.N,unconnected-(HV_Indi101-Pin_3-Pad3)*%
X125395000Y-30302500D03*
%TO.P,HV_Indi101,4,Pin_4_4*%
%TO.N,/TS_N_VEHI*%
X122395000Y-30302500D03*
%TD*%
D16*
%TO.P,D2301,1,K_1*%
%TO.N,Net-(D2301-K)*%
X42000000Y-69650000D03*
%TO.P,D2301,2,A_2*%
%TO.N,/IMD_Monitoring/IMD_SC_Closed*%
X42000000Y-66350000D03*
%TD*%
D28*
%TO.P,C202,1*%
%TO.N,+3.3V*%
X59362500Y-78250000D03*
%TO.P,C202,2*%
%TO.N,GND*%
X57637500Y-78250000D03*
%TD*%
D29*
%TO.P,C601,1*%
%TO.N,GND*%
X64137500Y-84780000D03*
%TO.P,C601,2*%
%TO.N,+5V*%
X65862500Y-84780000D03*
%TD*%
D30*
%TO.P,F1901,1*%
%TO.N,/TS_P_ACCU*%
X133840000Y-15187500D03*
%TO.P,F1901,2*%
%TO.N,Net-(Q1902-D)*%
X93200000Y-15187500D03*
%TD*%
D20*
%TO.P,U911,1,+Vin_1*%
%TO.N,+5V*%
X105112500Y-55537500D03*
D21*
%TO.P,U911,2,-Vin_2*%
%TO.N,GND*%
X105112500Y-52997500D03*
%TO.P,U911,5,-Vout_5*%
%TO.N,/TS_N_VEHI*%
X105112500Y-45377500D03*
%TO.P,U911,7,+Vout_7*%
%TO.N,+5V_VEHI*%
X105112500Y-40297500D03*
%TD*%
D31*
%TO.P,C214,1*%
%TO.N,GND*%
X56150000Y-72037500D03*
%TO.P,C214,2*%
%TO.N,+3.3V*%
X56150000Y-73762500D03*
%TD*%
D32*
%TO.P,U205,1,A0_1*%
%TO.N,GND*%
X58095000Y-68162500D03*
%TO.P,U205,2,A1_2*%
X59365000Y-68162500D03*
%TO.P,U205,3,A2_3*%
X60635000Y-68162500D03*
%TO.P,U205,4,GND_4*%
X61905000Y-68162500D03*
%TO.P,U205,5,SDA_5*%
%TO.N,/MCU/SDA1*%
X61905000Y-75337500D03*
%TO.P,U205,6,SCL_6*%
%TO.N,/MCU/SCL1*%
X60635000Y-75337500D03*
%TO.P,U205,7,WP_7*%
%TO.N,/MCU/WP1*%
X59365000Y-75337500D03*
%TO.P,U205,8,VCC_8*%
%TO.N,+3.3V*%
X58095000Y-75337500D03*
%TD*%
D33*
%TO.P,HV_DCDC101,1,Pin_1_1*%
%TO.N,/DCDC_AIR/TS_P_DCDC*%
X32750000Y-23750000D03*
D34*
%TO.P,HV_DCDC101,2,Pin_2_2*%
%TO.N,unconnected-(HV_DCDC101-Pin_2-Pad2)*%
X32750000Y-20750000D03*
%TO.P,HV_DCDC101,3,Pin_3_3*%
%TO.N,unconnected-(HV_DCDC101-Pin_3-Pad3)*%
X32750000Y-17750000D03*
%TO.P,HV_DCDC101,4,Pin_4_4*%
%TO.N,/TS_N_ACCU*%
X32750000Y-14750000D03*
%TD*%
D17*
%TO.P,R2304,1*%
%TO.N,/IMD_Monitoring/IMD_State*%
X35250000Y-73587500D03*
%TO.P,R2304,2*%
%TO.N,+3.3V*%
X35250000Y-75412500D03*
%TD*%
D20*
%TO.P,U908,1,+Vin_1*%
%TO.N,+5V*%
X87562500Y-52287500D03*
D21*
%TO.P,U908,2,-Vin_2*%
%TO.N,GND*%
X87562500Y-49747500D03*
%TO.P,U908,5,-Vout_5*%
%TO.N,/TS_N_ACCU*%
X87562500Y-42127500D03*
%TO.P,U908,7,+Vout_7*%
%TO.N,+5V_ACCU*%
X87562500Y-37047500D03*
%TD*%
D35*
%TO.P,MAIN_LV101,1,Pin_1_1*%
%TO.N,/IMD_Monitoring/SC_In*%
X81500000Y-83580000D03*
D21*
%TO.P,MAIN_LV101,2,Pin_2_2*%
%TO.N,/+Batt_In*%
X84500000Y-83580000D03*
%TO.P,MAIN_LV101,3,Pin_3_3*%
X87500000Y-83580000D03*
%TO.P,MAIN_LV101,4,Pin_4_4*%
%TO.N,GND*%
X90500000Y-83580000D03*
%TO.P,MAIN_LV101,5,Pin_5_5*%
X93500000Y-83580000D03*
%TO.P,MAIN_LV101,6,Pin_6_6*%
%TO.N,/CAN1/CAN_P*%
X96500000Y-83580000D03*
%TO.P,MAIN_LV101,7,Pin_7_7*%
%TO.N,/CAN1/CAN_N*%
X81500000Y-86580000D03*
%TO.P,MAIN_LV101,8,Pin_8_8*%
%TO.N,/CAN2/CAN_P*%
X84500000Y-86580000D03*
%TO.P,MAIN_LV101,9,Pin_9_9*%
%TO.N,/CAN2/CAN_N*%
X87500000Y-86580000D03*
%TO.P,MAIN_LV101,10,Pin_10_10*%
%TO.N,/TSAL_GRN*%
X90500000Y-86580000D03*
%TO.P,MAIN_LV101,11,Pin_11_11*%
%TO.N,/GND Hoop*%
X93500000Y-86580000D03*
%TO.P,MAIN_LV101,12,Pin_12_12*%
%TO.N,unconnected-(MAIN_LV101-Pin_12-Pad12)*%
X96500000Y-86580000D03*
%TD*%
D36*
%TO.P,R102,1*%
%TO.N,Net-(Q101-B)*%
X86750000Y-66575000D03*
%TO.P,R102,2*%
%TO.N,/MCU/FAN_PWM*%
X86750000Y-64925000D03*
%TD*%
D15*
%TO.P,NTC3,1,Pin_1_1*%
%TO.N,/TempMeas/NTC1_+_3*%
X78750000Y-146655000D03*
D14*
%TO.P,NTC3,2,Pin_2_2*%
%TO.N,/TempMeas/NTC1_-_1*%
X81750000Y-146655000D03*
%TD*%
D22*
%TO.P,Q801,1,G_1*%
%TO.N,Net-(Q801-G)*%
X40450000Y-51687500D03*
%TO.P,Q801,2,S_2*%
%TO.N,GND*%
X38550000Y-51687500D03*
%TO.P,Q801,3,D_3*%
%TO.N,/Buzzer/Buzzer-*%
X39500000Y-49812500D03*
%TD*%
D28*
%TO.P,C602,1*%
%TO.N,GND*%
X76862500Y-83030000D03*
%TO.P,C602,2*%
%TO.N,+3.3V*%
X75137500Y-83030000D03*
%TD*%
D37*
%TO.P,U2303,1,1A_1*%
%TO.N,Net-(D2302-A)*%
X38612500Y-74700000D03*
%TO.P,U2303,2,GND_2*%
%TO.N,GND*%
X38612500Y-73750000D03*
%TO.P,U2303,3,2A_3*%
%TO.N,/IMD_Monitoring/IMD_OK*%
X38612500Y-72800000D03*
%TO.P,U2303,4,2Y_4*%
%TO.N,Net-(D2303-K)*%
X40887500Y-72800000D03*
%TO.P,U2303,5,V_{CC}_5*%
%TO.N,+3.3V*%
X40887500Y-73750000D03*
%TO.P,U2303,6,1Y_6*%
%TO.N,Net-(U2301A-nPRE)*%
X40887500Y-74700000D03*
%TD*%
D38*
%TO.P,D1103,1,K_1*%
%TO.N,Net-(D1103-K)*%
X140620000Y-22852500D03*
D12*
%TO.P,D1103,2,A_2*%
%TO.N,Net-(D1101-K)*%
X153320000Y-22852500D03*
%TD*%
D17*
%TO.P,R1801,1*%
%TO.N,Net-(3V3Good1801-A)*%
X118250000Y-77087500D03*
%TO.P,R1801,2*%
%TO.N,+3.3V*%
X118250000Y-78912500D03*
%TD*%
D13*
%TO.P,HV_VEHI101,1,Pin_1_1*%
%TO.N,/TS_P_VEHI*%
X131345000Y-44267500D03*
D14*
%TO.P,HV_VEHI101,2,Pin_2_2*%
%TO.N,unconnected-(HV_VEHI101-Pin_2-Pad2)*%
X128345000Y-44267500D03*
%TO.P,HV_VEHI101,3,Pin_3_3*%
%TO.N,unconnected-(HV_VEHI101-Pin_3-Pad3)*%
X125345000Y-44267500D03*
%TO.P,HV_VEHI101,4,Pin_4_4*%
%TO.N,/TS_N_VEHI*%
X122345000Y-44267500D03*
%TD*%
D13*
%TO.P,BUZZ101,1,Pin_1_1*%
%TO.N,/Buzzer/Buzzer+*%
X43000000Y-47750000D03*
D14*
%TO.P,BUZZ101,2,Pin_2_2*%
%TO.N,/Buzzer/Buzzer-*%
X40000000Y-47750000D03*
%TD*%
D18*
%TO.P,U501,1,TXD_1*%
%TO.N,/CAN1/CAN_TX*%
X78525000Y-79185000D03*
%TO.P,U501,2,VSS_2*%
%TO.N,GND*%
X78525000Y-77915000D03*
%TO.P,U501,3,VDD_3*%
%TO.N,+5V*%
X78525000Y-76645000D03*
%TO.P,U501,4,RXD_4*%
%TO.N,Net-(U501-RXD)*%
X78525000Y-75375000D03*
%TO.P,U501,5,Vio_5*%
%TO.N,+3.3V*%
X83475000Y-75375000D03*
%TO.P,U501,6,CANL_6*%
%TO.N,/CAN1/CAN_N*%
X83475000Y-76645000D03*
%TO.P,U501,7,CANH_7*%
%TO.N,/CAN1/CAN_P*%
X83475000Y-77915000D03*
%TO.P,U501,8,STBY_8*%
%TO.N,Net-(U501-STBY)*%
X83475000Y-79185000D03*
%TD*%
D39*
%TO.P,U2301,1,CLK_1*%
%TO.N,GND*%
X44750000Y-74150000D03*
%TO.P,U2301,2,D_2*%
X44250000Y-74150000D03*
%TO.P,U2301,3,nQ_3*%
%TO.N,unconnected-(U2301A-nQ-Pad3)*%
X43750000Y-74150000D03*
%TO.P,U2301,4,GND_4*%
%TO.N,+3.3V*%
X43250000Y-74150000D03*
%TO.P,U2301,5,Q_5*%
%TO.N,Net-(D2301-K)*%
X43250000Y-71350000D03*
%TO.P,U2301,6,nCLR_6*%
%TO.N,Net-(D2303-K)*%
X43750000Y-71350000D03*
%TO.P,U2301,7,nPRE_7*%
%TO.N,Net-(U2301A-nPRE)*%
X44250000Y-71350000D03*
%TO.P,U2301,8,VCC_8*%
%TO.N,GND*%
X44750000Y-71350000D03*
%TD*%
D11*
%TO.P,D1903,1,K_1*%
%TO.N,Net-(D1903-K)*%
X50850000Y-26250000D03*
D12*
%TO.P,D1903,2,A_2*%
%TO.N,/DCDC_AIR/+5V_TS_P_DCDC*%
X38150000Y-26250000D03*
%TD*%
D40*
%TO.P,JTAG201,1,Pin_1_1*%
%TO.N,unconnected-(JTAG201-Pin_1-Pad1)*%
X81385000Y-73560000D03*
D41*
%TO.P,JTAG201,2,Pin_2_2*%
%TO.N,unconnected-(JTAG201-Pin_2-Pad2)*%
X80115000Y-73560000D03*
%TO.P,JTAG201,3,Pin_3_3*%
%TO.N,+3.3V*%
X81385000Y-72290000D03*
%TO.P,JTAG201,4,Pin_4_4*%
%TO.N,JTMS{slash}SWDIO*%
X80115000Y-72290000D03*
%TO.P,JTAG201,5,Pin_5_5*%
%TO.N,GND*%
X81385000Y-71020000D03*
%TO.P,JTAG201,6,Pin_6_6*%
%TO.N,JCLK{slash}SWCLK*%
X80115000Y-71020000D03*
%TO.P,JTAG201,7,Pin_7_7*%
%TO.N,GND*%
X81385000Y-69750000D03*
%TO.P,JTAG201,8,Pin_8_8*%
%TO.N,JTDO{slash}SWO*%
X80115000Y-69750000D03*
%TO.P,JTAG201,9,Pin_9_9*%
%TO.N,unconnected-(JTAG201-Pin_9-Pad9)*%
X81385000Y-68480000D03*
%TO.P,JTAG201,10,Pin_10_10*%
%TO.N,JTDI{slash}NC*%
X80115000Y-68480000D03*
%TO.P,JTAG201,11,Pin_11_11*%
%TO.N,GND*%
X81385000Y-67210000D03*
%TO.P,JTAG201,12,Pin_12_12*%
%TO.N,nRES*%
X80115000Y-67210000D03*
%TO.P,JTAG201,13,Pin_13_13*%
%TO.N,T_VCP_RX*%
X81385000Y-65940000D03*
%TO.P,JTAG201,14,Pin_14_14*%
%TO.N,T_VCP_TX*%
X80115000Y-65940000D03*
%TD*%
D42*
%TO.P,C102,1*%
%TO.N,+BATT*%
X107432380Y-76000000D03*
D43*
%TO.P,C102,2*%
%TO.N,GND*%
X104932380Y-76000000D03*
%TD*%
D28*
%TO.P,C502,1*%
%TO.N,GND*%
X87362500Y-74780000D03*
%TO.P,C502,2*%
%TO.N,+3.3V*%
X85637500Y-74780000D03*
%TD*%
D17*
%TO.P,R801,1*%
%TO.N,/Buzzer/Buzzer+*%
X45000000Y-51087500D03*
%TO.P,R801,2*%
%TO.N,+BATT*%
X45000000Y-52912500D03*
%TD*%
D29*
%TO.P,C501,1*%
%TO.N,GND*%
X74637500Y-76530000D03*
%TO.P,C501,2*%
%TO.N,+5V*%
X76362500Y-76530000D03*
%TD*%
D28*
%TO.P,C201,1*%
%TO.N,+3.3V*%
X61862500Y-62750000D03*
%TO.P,C201,2*%
%TO.N,GND*%
X60137500Y-62750000D03*
%TD*%
D15*
%TO.P,NTC5,1,Pin_1_1*%
%TO.N,/TempMeas/NTC1_+_1*%
X78750000Y-162295000D03*
D14*
%TO.P,NTC5,2,Pin_2_2*%
%TO.N,/TempMeas/NTC1_-_3*%
X81750000Y-162295000D03*
%TD*%
D10*
%TO.P,R501,1*%
%TO.N,Net-(U501-RXD)*%
X76412500Y-75030000D03*
%TO.P,R501,2*%
%TO.N,/CAN1/CAN_RX*%
X74587500Y-75030000D03*
%TD*%
D13*
%TO.P,IMD_HV101,1,Pin_1_1*%
%TO.N,/TS_P_VEHI*%
X131395000Y-37137500D03*
D14*
%TO.P,IMD_HV101,2,Pin_2_2*%
%TO.N,unconnected-(IMD_HV101-Pin_2-Pad2)*%
X128395000Y-37137500D03*
%TO.P,IMD_HV101,3,Pin_3_3*%
%TO.N,unconnected-(IMD_HV101-Pin_3-Pad3)*%
X125395000Y-37137500D03*
%TO.P,IMD_HV101,4,Pin_4_4*%
%TO.N,/TS_N_VEHI*%
X122395000Y-37137500D03*
%TD*%
D17*
%TO.P,R602,1*%
%TO.N,/CAN2/CAN_N*%
X75000000Y-84617500D03*
%TO.P,R602,2*%
%TO.N,/CAN2/CAN_P*%
X75000000Y-86442500D03*
%TD*%
D10*
%TO.P,R601,1*%
%TO.N,Net-(U601-RXD)*%
X65912500Y-83280000D03*
%TO.P,R601,2*%
%TO.N,/CAN2/CAN_RX*%
X64087500Y-83280000D03*
%TD*%
D44*
%TO.P,K1901,13*%
%TO.N,/DCDC_AIR/TS_P_DCDC*%
X48230000Y-33637500D03*
%TO.P,K1901,14*%
%TO.N,Net-(D1902-A)*%
X76170000Y-33637500D03*
%TO.P,K1901,A1*%
%TO.N,Net-(D1905-K)*%
X72715000Y-46337500D03*
%TO.P,K1901,A2*%
%TO.N,GND*%
X51685000Y-46337500D03*
%TD*%
D15*
%TO.P,NTC1,1,Pin_1_1*%
%TO.N,/TempMeas/NTC1_+*%
X78750000Y-131015000D03*
D14*
%TO.P,NTC1,2,Pin_2_2*%
%TO.N,/TempMeas/NTC1_-_4*%
X81750000Y-131015000D03*
%TD*%
D10*
%TO.P,R603,1*%
%TO.N,GND*%
X76912500Y-88030000D03*
%TO.P,R603,2*%
%TO.N,Net-(U601-STBY)*%
X75087500Y-88030000D03*
%TD*%
%TO.P,R2310,1*%
%TO.N,+3.3V*%
X45162500Y-64500000D03*
%TO.P,R2310,2*%
%TO.N,/IMD_Monitoring/IMD_SC_Closed*%
X43337500Y-64500000D03*
%TD*%
D20*
%TO.P,U2002,1,+Vin_1*%
%TO.N,+5V*%
X16392500Y-43850000D03*
D21*
%TO.P,U2002,2,-Vin_2*%
%TO.N,GND*%
X16392500Y-41310000D03*
%TO.P,U2002,5,-Vout_5*%
%TO.N,/TS_N_ACCU*%
X16392500Y-33690000D03*
%TO.P,U2002,7,+Vout_7*%
%TO.N,+5V_DCDC*%
X16392500Y-28610000D03*
%TD*%
D42*
%TO.P,C1804,1*%
%TO.N,+3.3V*%
X115750000Y-72500000D03*
D43*
%TO.P,C1804,2*%
%TO.N,GND*%
X112250000Y-72500000D03*
%TD*%
D45*
%TO.P,C1801,1*%
%TO.N,+BATT*%
X105250000Y-83097349D03*
D43*
%TO.P,C1801,2*%
%TO.N,GND*%
X105250000Y-86597349D03*
%TD*%
D17*
%TO.P,R502,1*%
%TO.N,/CAN1/CAN_N*%
X85500000Y-76367500D03*
%TO.P,R502,2*%
%TO.N,/CAN1/CAN_P*%
X85500000Y-78192500D03*
%TD*%
D35*
%TO.P,IMD_LV101,1,Pin_1_1*%
%TO.N,GND*%
X30750000Y-66830000D03*
D21*
%TO.P,IMD_LV101,2,Pin_2_2*%
%TO.N,+BATT*%
X33750000Y-66830000D03*
%TO.P,IMD_LV101,3,Pin_3_3*%
%TO.N,GND*%
X36750000Y-66830000D03*
%TO.P,IMD_LV101,4,Pin_4_4*%
%TO.N,/GND Hoop*%
X30750000Y-69830000D03*
%TO.P,IMD_LV101,5,Pin_5_5*%
%TO.N,/IMD_Monitoring/M_HSLS*%
X33750000Y-69830000D03*
%TO.P,IMD_LV101,6,Pin_6_6*%
%TO.N,/IMD_Monitoring/OK_HS*%
X36750000Y-69830000D03*
%TD*%
D13*
%TO.P,ISOUART_H101,1,Pin_1_1*%
%TO.N,/StackCommInterface/IFH_H*%
X194750000Y-40415000D03*
D14*
%TO.P,ISOUART_H101,2,Pin_2_2*%
%TO.N,/StackCommInterface/IFH_L*%
X191750000Y-40415000D03*
%TD*%
D46*
%TO.P,R2308,1*%
%TO.N,Net-(Q2302-G)*%
X37837500Y-61750000D03*
%TO.P,R2308,2*%
%TO.N,Net-(Q2301-C)*%
X39662500Y-61750000D03*
%TD*%
D47*
%TO.P,R104,1*%
%TO.N,Net-(Q102-G)*%
X93575000Y-68500000D03*
%TO.P,R104,2*%
%TO.N,Net-(Q101-C)*%
X91925000Y-68500000D03*
%TD*%
D15*
%TO.P,Leak2,1,Pin_1_1*%
%TO.N,/HumiditySensing/LeakSens2/R_Leak_ElecIn*%
X118530000Y-148260000D03*
D14*
%TO.P,Leak2,2,Pin_2_2*%
%TO.N,/HumiditySensing/LeakSens2/R_Leak_ElecOut*%
X121530000Y-148260000D03*
%TD*%
D17*
%TO.P,R2305,1*%
%TO.N,/IMD_Monitoring/OK_HS*%
X36750000Y-71587500D03*
%TO.P,R2305,2*%
%TO.N,/IMD_Monitoring/IMD_OK*%
X36750000Y-73412500D03*
%TD*%
D48*
%TO.P,TH1102,1*%
%TO.N,Net-(TH1101-Pad2)*%
X160470000Y-28102500D03*
%TO.P,TH1102,2*%
%TO.N,Net-(Q1102-D)*%
X161770000Y-20602500D03*
%TD*%
%TO.P,TH1901,1*%
%TO.N,Net-(Q1902-D)*%
X86770000Y-15937500D03*
%TO.P,TH1901,2*%
%TO.N,Net-(TH1901-Pad2)*%
X79270000Y-14637500D03*
%TD*%
D49*
%TO.P,C1806,1*%
%TO.N,+5V*%
X128500000Y-84712500D03*
%TO.P,C1806,2*%
%TO.N,GND*%
X128500000Y-86787500D03*
%TD*%
D25*
%TO.P,R2306,1*%
%TO.N,GND*%
X36750000Y-76912500D03*
%TO.P,R2306,2*%
%TO.N,/IMD_Monitoring/IMD_OK*%
X36750000Y-75087500D03*
%TD*%
D17*
%TO.P,R2302,1*%
%TO.N,/IMD_Monitoring/M_HSLS*%
X33750000Y-71587500D03*
%TO.P,R2302,2*%
%TO.N,/IMD_Monitoring/IMD_State*%
X33750000Y-73412500D03*
%TD*%
D10*
%TO.P,R2307,1*%
%TO.N,/IMD_Monitoring/SC_In*%
X39662500Y-60250000D03*
%TO.P,R2307,2*%
%TO.N,Net-(Q2302-G)*%
X37837500Y-60250000D03*
%TD*%
D50*
%TO.P,C2301,1*%
%TO.N,GND*%
X42750000Y-78200000D03*
%TO.P,C2301,2*%
%TO.N,Net-(D2302-A)*%
X42750000Y-76300000D03*
%TD*%
D51*
%TO.P,C1803,1*%
%TO.N,+3.3V*%
X116537500Y-78250000D03*
%TO.P,C1803,2*%
%TO.N,GND*%
X114462500Y-78250000D03*
%TD*%
D20*
%TO.P,U1903,1,+Vin_1*%
%TO.N,+5V*%
X30967500Y-46600000D03*
D21*
%TO.P,U1903,2,-Vin_2*%
%TO.N,GND*%
X30967500Y-44060000D03*
%TO.P,U1903,5,-Vout_5*%
%TO.N,/DCDC_AIR/TS_P_DCDC*%
X30967500Y-36440000D03*
%TO.P,U1903,7,+Vout_7*%
%TO.N,/DCDC_AIR/+5V_TS_P_DCDC*%
X30967500Y-31360000D03*
%TD*%
D10*
%TO.P,R802,1*%
%TO.N,/Buzzer/Buzzer+*%
X42662500Y-46000000D03*
%TO.P,R802,2*%
%TO.N,/Buzzer/Buzzer-*%
X40837500Y-46000000D03*
%TD*%
D52*
%TO.P,U1801,1,IN_1*%
%TO.N,+BATT*%
X116457500Y-85697500D03*
D53*
%TO.P,U1801,2,GND_2*%
%TO.N,GND*%
X116457500Y-83157500D03*
%TO.P,U1801,3,OUT_3*%
%TO.N,+3.3V*%
X116457500Y-80617500D03*
%TD*%
D11*
%TO.P,D1104,1,K_1*%
%TO.N,Net-(D1104-K)*%
X165820000Y-43852500D03*
D12*
%TO.P,D1104,2,A_2*%
%TO.N,Net-(D1102-K)*%
X153120000Y-43852500D03*
%TD*%
D54*
%TO.P,D101,1,K_1*%
%TO.N,Net-(D101-K)*%
X95650000Y-60250000D03*
%TO.P,D101,2,A_2*%
%TO.N,Net-(D101-A)*%
X92350000Y-60250000D03*
%TD*%
D23*
%TO.P,D502,1,K_1*%
%TO.N,/CAN1/CAN_N*%
X80200000Y-88500000D03*
%TO.P,D502,2,A_2*%
%TO.N,GND*%
X82300000Y-88500000D03*
%TD*%
D48*
%TO.P,TH1101,1*%
%TO.N,Net-(D1103-K)*%
X143570000Y-28852500D03*
%TO.P,TH1101,2*%
%TO.N,Net-(TH1101-Pad2)*%
X151070000Y-30152500D03*
%TD*%
D36*
%TO.P,R103,1*%
%TO.N,+5V*%
X95250000Y-67325000D03*
%TO.P,R103,2*%
%TO.N,Net-(Q102-G)*%
X95250000Y-65675000D03*
%TD*%
D48*
%TO.P,TH1902,1*%
%TO.N,Net-(TH1901-Pad2)*%
X69270000Y-15587500D03*
%TO.P,TH1902,2*%
%TO.N,Net-(Q1901-D)*%
X61770000Y-14287500D03*
%TD*%
D25*
%TO.P,R2303,1*%
%TO.N,GND*%
X33750000Y-76912500D03*
%TO.P,R2303,2*%
%TO.N,/IMD_Monitoring/IMD_State*%
X33750000Y-75087500D03*
%TD*%
D55*
%TO.P,C203,1*%
%TO.N,+3.3V*%
X53500000Y-67612500D03*
%TO.P,C203,2*%
%TO.N,GND*%
X53500000Y-65887500D03*
%TD*%
D15*
%TO.P,NTC4,1,Pin_1_1*%
%TO.N,/TempMeas/NTC1_+_2*%
X78750000Y-154475000D03*
D14*
%TO.P,NTC4,2,Pin_2_2*%
%TO.N,/TempMeas/NTC1_-_2*%
X81750000Y-154475000D03*
%TD*%
D56*
%TO.P,Q2302,1,D_1*%
%TO.N,/IMD_Monitoring/SC_Out*%
X41800000Y-58862500D03*
%TO.P,Q2302,2,G_2*%
%TO.N,Net-(Q2302-G)*%
X43700000Y-58862500D03*
%TO.P,Q2302,3,S_3*%
%TO.N,/IMD_Monitoring/SC_In*%
X42750000Y-61137500D03*
%TD*%
D17*
%TO.P,R803,1*%
%TO.N,Net-(Q801-G)*%
X43500000Y-50337500D03*
%TO.P,R803,2*%
%TO.N,/Buzzer/Buzzer_CTRL*%
X43500000Y-52162500D03*
%TD*%
D57*
%TO.P,Q102,1,G_1*%
%TO.N,Net-(Q102-G)*%
X93700000Y-66637500D03*
%TO.P,Q102,2,S_2*%
%TO.N,+5V*%
X91800000Y-66637500D03*
%TO.P,Q102,3,D_3*%
%TO.N,Net-(D101-A)*%
X92750000Y-64362500D03*
%TD*%
D44*
%TO.P,K1101,13*%
%TO.N,/TS_P_VEHI*%
X138430000Y-48552500D03*
%TO.P,K1101,14*%
%TO.N,Net-(D1108-A)*%
X166370000Y-48552500D03*
%TO.P,K1101,A1*%
%TO.N,Net-(D1105-K)*%
X162915000Y-61252500D03*
%TO.P,K1101,A2*%
%TO.N,GND*%
X141885000Y-61252500D03*
%TD*%
D15*
%TO.P,FAN101,1,Pin_1_1*%
%TO.N,GND*%
X88250000Y-62835000D03*
D14*
%TO.P,FAN101,2,Pin_2_2*%
%TO.N,+BATT*%
X91250000Y-62835000D03*
%TO.P,FAN101,3,Pin_3_3*%
%TO.N,Net-(D101-K)*%
X94250000Y-62835000D03*
%TD*%
D13*
%TO.P,ISOUART_L101,1,Pin_1_1*%
%TO.N,/StackCommInterface/IFL_H*%
X183250000Y-40415000D03*
D14*
%TO.P,ISOUART_L101,2,Pin_2_2*%
%TO.N,/StackCommInterface/IFL_L*%
X180250000Y-40415000D03*
%TD*%
D58*
%TO.P,D601,1,K_1*%
%TO.N,/CAN2/CAN_P*%
X85550000Y-88500000D03*
%TO.P,D601,2,A_2*%
%TO.N,GND*%
X83450000Y-88500000D03*
%TD*%
D20*
%TO.P,U1103,1,+Vin_1*%
%TO.N,+5V*%
X130145000Y-65387500D03*
D21*
%TO.P,U1103,2,-Vin_2*%
%TO.N,GND*%
X130145000Y-62847500D03*
%TO.P,U1103,5,-Vout_5*%
%TO.N,/TS_P_VEHI*%
X130145000Y-55227500D03*
%TO.P,U1103,7,+Vout_7*%
%TO.N,/Precharge/+5V_TS_P_VEHI*%
X130145000Y-50147500D03*
%TD*%
D23*
%TO.P,D501,1,K_1*%
%TO.N,/CAN1/CAN_P*%
X98200000Y-83500000D03*
%TO.P,D501,2,A_2*%
%TO.N,GND*%
X100300000Y-83500000D03*
%TD*%
D52*
%TO.P,U1802,1,IN_1*%
%TO.N,+BATT*%
X125542500Y-80302500D03*
D53*
%TO.P,U1802,2,GND_2*%
%TO.N,GND*%
X125542500Y-82842500D03*
%TO.P,U1802,3,OUT_3*%
%TO.N,+5V*%
X125542500Y-85382500D03*
%TD*%
D11*
%TO.P,D1101,1,K_1*%
%TO.N,Net-(D1101-K)*%
X153245000Y-15137500D03*
D12*
%TO.P,D1101,2,A_2*%
%TO.N,/TS_P_ACCU*%
X140545000Y-15137500D03*
%TD*%
D16*
%TO.P,D2303,1,K_1*%
%TO.N,Net-(D2303-K)*%
X44500000Y-69650000D03*
%TO.P,D2303,2,A_2*%
%TO.N,/IMD_Monitoring/IMD_SC_Closed*%
X44500000Y-66350000D03*
%TD*%
D50*
%TO.P,C1905,1*%
%TO.N,+5V*%
X33500000Y-46450000D03*
%TO.P,C1905,2*%
%TO.N,GND*%
X33500000Y-44550000D03*
%TD*%
D59*
%TO.P,Q404,1,B_1*%
%TO.N,/AIR/DANGER_V_oD*%
X30937500Y-79880000D03*
%TO.P,Q404,2,E_2*%
%TO.N,GND*%
X30937500Y-81780000D03*
%TO.P,Q404,3,C_3*%
%TO.N,Net-(Q404-C)*%
X29062500Y-80830000D03*
%TD*%
D60*
%TO.P,U1902,1*%
%TO.N,Net-(R1904-Pad2)*%
X67625000Y-37000000D03*
%TO.P,U1902,2*%
%TO.N,Net-(D1902-A)*%
X70165000Y-37000000D03*
%TO.P,U1902,3*%
%TO.N,/DCDC_AIR/DCDC_AIR_ACTUAL*%
X70165000Y-46375000D03*
%TO.P,U1902,4*%
%TO.N,+3.3V*%
X67625000Y-46375000D03*
%TD*%
D50*
%TO.P,C920,1*%
%TO.N,+3.3V_ACCU*%
X88845000Y-35137500D03*
%TO.P,C920,2*%
%TO.N,/TS_N_ACCU*%
X88845000Y-33237500D03*
%TD*%
D36*
%TO.P,R415,1*%
%TO.N,/AIR/AIR_N_Intended*%
X21250000Y-76905000D03*
%TO.P,R415,2*%
%TO.N,GND*%
X21250000Y-75255000D03*
%TD*%
D61*
%TO.P,C1904,1*%
%TO.N,/DCDC_AIR/+5V_TS_P_DCDC*%
X33300000Y-32000000D03*
%TO.P,C1904,2*%
%TO.N,/DCDC_AIR/TS_P_DCDC*%
X35200000Y-32000000D03*
%TD*%
%TO.P,C934,1*%
%TO.N,+5V_VEHI*%
X101445000Y-45187500D03*
%TO.P,C934,2*%
%TO.N,/TS_N_VEHI*%
X103345000Y-45187500D03*
%TD*%
D47*
%TO.P,R402,1*%
%TO.N,/AIR/AIR_P_AUX1*%
X16825000Y-83580000D03*
%TO.P,R402,2*%
%TO.N,+3.3V*%
X15175000Y-83580000D03*
%TD*%
D62*
%TO.P,C921,1*%
%TO.N,+3.3V_ACCU*%
X86845000Y-35212500D03*
%TO.P,C921,2*%
%TO.N,/TS_N_ACCU*%
X86845000Y-33662500D03*
%TD*%
D63*
%TO.P,Q1903,1,B_1*%
%TO.N,Net-(Q1903-B)*%
X69125000Y-58025000D03*
%TO.P,Q1903,2,E_2*%
%TO.N,GND*%
X69125000Y-56125000D03*
%TO.P,Q1903,3,C_3*%
%TO.N,Net-(Q1903-C)*%
X71000000Y-57075000D03*
%TD*%
D64*
%TO.P,R2001,1*%
%TO.N,/TS_N_ACCU*%
X16212500Y-23750000D03*
%TO.P,R2001,2*%
%TO.N,+5V_DCDC*%
X16212500Y-25750000D03*
%TD*%
D65*
%TO.P,C922,1*%
%TO.N,+5V_ACCU*%
X85295000Y-41937500D03*
%TO.P,C922,2*%
%TO.N,/TS_N_ACCU*%
X83395000Y-41937500D03*
%TD*%
D29*
%TO.P,C2003,1*%
%TO.N,/TS_N_ACCU*%
X12350000Y-33500000D03*
%TO.P,C2003,2*%
%TO.N,+5V_DCDC*%
X14075000Y-33500000D03*
%TD*%
D27*
%TO.P,C926,1*%
%TO.N,+3.3V*%
X92320000Y-55187500D03*
%TO.P,C926,2*%
%TO.N,GND*%
X93870000Y-55187500D03*
%TD*%
D54*
%TO.P,D1906,1,K_1*%
%TO.N,Net-(D1905-K)*%
X75650000Y-49000000D03*
%TO.P,D1906,2,A_2*%
%TO.N,GND*%
X72350000Y-49000000D03*
%TD*%
D66*
%TO.P,C2008,1*%
%TO.N,+5V*%
X18712500Y-44975000D03*
%TO.P,C2008,2*%
%TO.N,GND*%
X18712500Y-46525000D03*
%TD*%
D47*
%TO.P,R414,1*%
%TO.N,/AIR/SC_END*%
X18075000Y-76080000D03*
%TO.P,R414,2*%
%TO.N,Net-(Q401-G)*%
X16425000Y-76080000D03*
%TD*%
D67*
%TO.P,D1905,1,K_1*%
%TO.N,Net-(D1905-K)*%
X77350000Y-50000000D03*
%TO.P,D1905,2,A_2*%
%TO.N,/DCDC_AIR/DCDC_AIR_Enable*%
X80650000Y-50000000D03*
%TD*%
D47*
%TO.P,R1912,1*%
%TO.N,Net-(Q1904-G)*%
X74400000Y-57075000D03*
%TO.P,R1912,2*%
%TO.N,Net-(Q1903-C)*%
X72750000Y-57075000D03*
%TD*%
D57*
%TO.P,U2004,1,IN_1*%
%TO.N,+5V_DCDC*%
X14162500Y-29637500D03*
%TO.P,U2004,2,GND_2*%
%TO.N,/TS_N_ACCU*%
X13212500Y-29637500D03*
%TO.P,U2004,3,EN_3*%
%TO.N,+5V_DCDC*%
X12262500Y-29637500D03*
%TO.P,U2004,4,NC_4*%
%TO.N,unconnected-(U2004-NC-Pad4)*%
X12262500Y-27362500D03*
%TO.P,U2004,5,OUT_5*%
%TO.N,+3.3V_DCDC*%
X14162500Y-27362500D03*
%TD*%
D68*
%TO.P,R411,1*%
%TO.N,/AIR/AIR_P_Intended*%
X22750000Y-78755000D03*
%TO.P,R411,2*%
%TO.N,/AIR/AIR_P_CTRL1*%
X22750000Y-80405000D03*
%TD*%
D69*
%TO.P,D401,1,K_1*%
%TO.N,/AIR/AIR_N_CTRL1*%
X18750000Y-73830000D03*
%TO.P,D401,2,A_2*%
%TO.N,GND*%
X18750000Y-69830000D03*
%TD*%
D31*
%TO.P,C931,1*%
%TO.N,/TS_N_VEHI*%
X104895000Y-35575000D03*
%TO.P,C931,2*%
%TO.N,+5V_VEHI*%
X104895000Y-37300000D03*
%TD*%
D25*
%TO.P,R928,1*%
%TO.N,/HV_Measurement/V_VEHI*%
X108395000Y-58850000D03*
%TO.P,R928,2*%
%TO.N,Net-(U910-OUT)*%
X108395000Y-57025000D03*
%TD*%
D70*
%TO.P,D1902,1,K_1*%
%TO.N,Net-(D1902-K)*%
X63770000Y-30937500D03*
%TO.P,D1902,2,A_2*%
%TO.N,Net-(D1902-A)*%
X66270000Y-30937500D03*
%TD*%
D36*
%TO.P,R1908,1*%
%TO.N,Net-(Q1903-B)*%
X67250000Y-57900000D03*
%TO.P,R1908,2*%
%TO.N,/DCDC_AIR/DCDC_AIR_SWITCH*%
X67250000Y-56250000D03*
%TD*%
%TO.P,R419,1*%
%TO.N,/AIR/SC_END*%
X27250000Y-84405000D03*
%TO.P,R419,2*%
%TO.N,Net-(Q403-G)*%
X27250000Y-82755000D03*
%TD*%
D71*
%TO.P,C924,1*%
%TO.N,+5V*%
X89370000Y-56437500D03*
%TO.P,C924,2*%
%TO.N,GND*%
X87820000Y-56437500D03*
%TD*%
D72*
%TO.P,R1910,1*%
%TO.N,/DCDC_AIR/TS_P_DCDC*%
X35250000Y-34000000D03*
%TO.P,R1910,2*%
%TO.N,/DCDC_AIR/+5V_TS_P_DCDC*%
X33250000Y-34000000D03*
%TD*%
D26*
%TO.P,R401,1*%
%TO.N,/AIR/AIR_N_AUX1*%
X12175000Y-83580000D03*
%TO.P,R401,2*%
%TO.N,+3.3V*%
X13825000Y-83580000D03*
%TD*%
D66*
%TO.P,C2014,1*%
%TO.N,/HV_Measurement_DCDC/V_DCDC*%
X20212500Y-48225000D03*
%TO.P,C2014,2*%
%TO.N,GND*%
X20212500Y-49775000D03*
%TD*%
%TO.P,C927,1*%
%TO.N,/HV_Measurement/V_ACCU*%
X90845000Y-57662500D03*
%TO.P,C927,2*%
%TO.N,GND*%
X90845000Y-59212500D03*
%TD*%
D68*
%TO.P,R416,1*%
%TO.N,Net-(Q401-G)*%
X14750000Y-77755000D03*
%TO.P,R416,2*%
%TO.N,Net-(Q402-C)*%
X14750000Y-79405000D03*
%TD*%
D73*
%TO.P,U1904,1,1A_1*%
%TO.N,Net-(U1904-1A)*%
X63162500Y-48550000D03*
%TO.P,U1904,2,GND_2*%
%TO.N,GND*%
X63162500Y-49500000D03*
%TO.P,U1904,3,2A_3*%
%TO.N,Net-(D1901-A)*%
X63162500Y-50450000D03*
%TO.P,U1904,4,2Y_4*%
%TO.N,Net-(U1904-1A)*%
X60887500Y-50450000D03*
%TO.P,U1904,5,V_{CC}_5*%
%TO.N,+3.3V*%
X60887500Y-49500000D03*
%TO.P,U1904,6,1Y_6*%
%TO.N,Net-(U1904-1Y)*%
X60887500Y-48550000D03*
%TD*%
D68*
%TO.P,R413,1*%
%TO.N,/AIR/AIR_N_Intended*%
X21250000Y-78255000D03*
%TO.P,R413,2*%
%TO.N,/AIR/AIR_N_CTRL1*%
X21250000Y-79905000D03*
%TD*%
D55*
%TO.P,C1907,1*%
%TO.N,GND*%
X80750000Y-55362500D03*
%TO.P,C1907,2*%
%TO.N,Net-(D1901-A)*%
X80750000Y-53637500D03*
%TD*%
D56*
%TO.P,Q401,1,G_1*%
%TO.N,Net-(Q401-G)*%
X16300000Y-77942500D03*
%TO.P,Q401,2,S_2*%
%TO.N,/AIR/SC_END*%
X18200000Y-77942500D03*
%TO.P,Q401,3,D_3*%
%TO.N,/AIR/AIR_N_CTRL1*%
X17250000Y-80217500D03*
%TD*%
D19*
%TO.P,Q402,1,B_1*%
%TO.N,Net-(Q402-B)*%
X11300000Y-77142500D03*
%TO.P,Q402,2,E_2*%
%TO.N,GND*%
X13200000Y-77142500D03*
%TO.P,Q402,3,C_3*%
%TO.N,Net-(Q402-C)*%
X12250000Y-79017500D03*
%TD*%
D74*
%TO.P,R902,1*%
%TO.N,/TS_N_ACCU*%
X83345000Y-39937500D03*
%TO.P,R902,2*%
%TO.N,+5V_ACCU*%
X85345000Y-39937500D03*
%TD*%
D75*
%TO.P,U1901,1*%
%TO.N,Net-(U1904-1Y)*%
X61540000Y-46375000D03*
%TO.P,U1901,2*%
%TO.N,Net-(R1905-Pad1)*%
X59000000Y-46375000D03*
%TO.P,U1901,3*%
%TO.N,Net-(R1902-Pad2)*%
X59000000Y-37000000D03*
%TO.P,U1901,4*%
%TO.N,Net-(D1903-K)*%
X61540000Y-37000000D03*
%TD*%
D76*
%TO.P,U910,1,VDD1_1*%
%TO.N,+3.3V_VEHI*%
X107240000Y-43987500D03*
%TO.P,U910,2,INP_2*%
%TO.N,Net-(U910-INP)*%
X108510000Y-43987500D03*
%TO.P,U910,3,SNSN_3*%
%TO.N,/TS_N_VEHI*%
X109780000Y-43987500D03*
%TO.P,U910,4,GND1_4*%
X111050000Y-43987500D03*
%TO.P,U910,5,GND2_5*%
%TO.N,GND*%
X111050000Y-54887500D03*
%TO.P,U910,6,REFIN_6*%
%TO.N,+3.3V*%
X109780000Y-54887500D03*
%TO.P,U910,7,OUT_7*%
%TO.N,Net-(U910-OUT)*%
X108510000Y-54887500D03*
%TO.P,U910,8,VDD2_8*%
%TO.N,+5V*%
X107240000Y-54887500D03*
%TD*%
%TO.P,U907,1,VDD1_1*%
%TO.N,+3.3V_ACCU*%
X89690000Y-40487500D03*
%TO.P,U907,2,INP_2*%
%TO.N,Net-(U907-INP)*%
X90960000Y-40487500D03*
%TO.P,U907,3,SNSN_3*%
%TO.N,/TS_N_ACCU*%
X92230000Y-40487500D03*
%TO.P,U907,4,GND1_4*%
X93500000Y-40487500D03*
%TO.P,U907,5,GND2_5*%
%TO.N,GND*%
X93500000Y-51387500D03*
%TO.P,U907,6,REFIN_6*%
%TO.N,+3.3V*%
X92230000Y-51387500D03*
%TO.P,U907,7,OUT_7*%
%TO.N,Net-(U907-OUT)*%
X90960000Y-51387500D03*
%TO.P,U907,8,VDD2_8*%
%TO.N,+5V*%
X89690000Y-51387500D03*
%TD*%
D65*
%TO.P,C2016,1*%
%TO.N,+3.3V_DCDC*%
X14162500Y-25250000D03*
%TO.P,C2016,2*%
%TO.N,/TS_N_ACCU*%
X12262500Y-25250000D03*
%TD*%
D26*
%TO.P,R1907,1*%
%TO.N,/DCDC_AIR/DCDC_AIR_SWITCH*%
X67175000Y-54575000D03*
%TO.P,R1907,2*%
%TO.N,GND*%
X68825000Y-54575000D03*
%TD*%
D29*
%TO.P,C2015,1*%
%TO.N,/TS_N_ACCU*%
X12350000Y-23500000D03*
%TO.P,C2015,2*%
%TO.N,+3.3V_DCDC*%
X14075000Y-23500000D03*
%TD*%
D62*
%TO.P,C2004,1*%
%TO.N,Net-(U2003-INP)*%
X19962500Y-29525000D03*
%TO.P,C2004,2*%
%TO.N,/TS_N_ACCU*%
X19962500Y-27975000D03*
%TD*%
D71*
%TO.P,C2002,1*%
%TO.N,+3.3V_DCDC*%
X19737500Y-23750000D03*
%TO.P,C2002,2*%
%TO.N,/TS_N_ACCU*%
X18187500Y-23750000D03*
%TD*%
D61*
%TO.P,C929,1*%
%TO.N,+3.3V_VEHI*%
X101445000Y-36937500D03*
%TO.P,C929,2*%
%TO.N,/TS_N_VEHI*%
X103345000Y-36937500D03*
%TD*%
D57*
%TO.P,U906,1,IN_1*%
%TO.N,+5V_ACCU*%
X85295000Y-38200320D03*
%TO.P,U906,2,GND_2*%
%TO.N,/TS_N_ACCU*%
X84345000Y-38200320D03*
%TO.P,U906,3,EN_3*%
%TO.N,+5V_ACCU*%
X83395000Y-38200320D03*
%TO.P,U906,4,NC_4*%
%TO.N,unconnected-(U906-NC-Pad4)*%
X83395000Y-35925320D03*
%TO.P,U906,5,OUT_5*%
%TO.N,+3.3V_ACCU*%
X85295000Y-35925320D03*
%TD*%
D47*
%TO.P,R422,1*%
%TO.N,/AIR/AIR_P_Switch*%
X32825000Y-83330000D03*
%TO.P,R422,2*%
%TO.N,GND*%
X31175000Y-83330000D03*
%TD*%
D65*
%TO.P,C925,1*%
%TO.N,+5V*%
X89295000Y-54687500D03*
%TO.P,C925,2*%
%TO.N,GND*%
X87395000Y-54687500D03*
%TD*%
D77*
%TO.P,U1006,1*%
%TO.N,Net-(U1001-Pad1)*%
X27095000Y-53162262D03*
%TO.P,U1006,2*%
%TO.N,Net-(U1002-Pad3)*%
X26445000Y-53162262D03*
%TO.P,U1006,3*%
%TO.N,Net-(U1002-Pad6)*%
X25795000Y-53162262D03*
%TO.P,U1006,4*%
%TO.N,Net-(U1002-Pad8)*%
X25145000Y-53162262D03*
%TO.P,U1006,5*%
%TO.N,Net-(U1003-Pad6)*%
X24495000Y-53162262D03*
%TO.P,U1006,6*%
%TO.N,N/C*%
X23845000Y-53162262D03*
%TO.P,U1006,7,VSS_7*%
%TO.N,GND*%
X23195000Y-53162262D03*
%TO.P,U1006,8*%
%TO.N,N/C*%
X23195000Y-47437262D03*
%TO.P,U1006,9*%
%TO.N,/AIR/AIR_P_Actual*%
X23845000Y-47437262D03*
%TO.P,U1006,10*%
%TO.N,/AIR/AIR_N_Actual*%
X24495000Y-47437262D03*
%TO.P,U1006,11*%
%TO.N,/MCU/PCHRG_ACTUAL*%
X25145000Y-47437262D03*
%TO.P,U1006,12*%
%TO.N,/TSAL_Logik/DANGER_V*%
X25795000Y-47437262D03*
%TO.P,U1006,13*%
%TO.N,/TSAL_Logik/TS_ON*%
X26445000Y-47437262D03*
%TO.P,U1006,14,VDD_14*%
%TO.N,+3.3V*%
X27095000Y-47437262D03*
%TD*%
D36*
%TO.P,R412,1*%
%TO.N,/AIR/AIR_P_Intended*%
X22750000Y-77405000D03*
%TO.P,R412,2*%
%TO.N,GND*%
X22750000Y-75755000D03*
%TD*%
D27*
%TO.P,C933,1*%
%TO.N,+3.3V_VEHI*%
X107620000Y-37437500D03*
%TO.P,C933,2*%
%TO.N,/TS_N_VEHI*%
X109170000Y-37437500D03*
%TD*%
D78*
%TO.P,C2007,1*%
%TO.N,+5V*%
X16462500Y-45800000D03*
%TO.P,C2007,2*%
%TO.N,GND*%
X16462500Y-47700000D03*
%TD*%
D36*
%TO.P,R406,1*%
%TO.N,GND*%
X16000000Y-88325000D03*
%TO.P,R406,2*%
%TO.N,/AIR/AIR_P_AUX2*%
X16000000Y-86675000D03*
%TD*%
D55*
%TO.P,C1901,1*%
%TO.N,GND*%
X77750000Y-56612500D03*
%TO.P,C1901,2*%
%TO.N,Net-(D1901-A)*%
X77750000Y-54887500D03*
%TD*%
D50*
%TO.P,C935,1*%
%TO.N,+5V*%
X102895000Y-55387500D03*
%TO.P,C935,2*%
%TO.N,GND*%
X102895000Y-53487500D03*
%TD*%
D78*
%TO.P,C937,1*%
%TO.N,+5V*%
X105145000Y-57487500D03*
%TO.P,C937,2*%
%TO.N,GND*%
X105145000Y-59387500D03*
%TD*%
D65*
%TO.P,C1906,1*%
%TO.N,Net-(D1905-K)*%
X75700000Y-51250000D03*
%TO.P,C1906,2*%
%TO.N,GND*%
X73800000Y-51250000D03*
%TD*%
D57*
%TO.P,U909,1,IN_1*%
%TO.N,+5V_VEHI*%
X103345000Y-41325000D03*
%TO.P,U909,2,GND_2*%
%TO.N,/TS_N_VEHI*%
X102395000Y-41325000D03*
%TO.P,U909,3,EN_3*%
%TO.N,+5V_VEHI*%
X101445000Y-41325000D03*
%TO.P,U909,4,NC_4*%
%TO.N,unconnected-(U909-NC-Pad4)*%
X101445000Y-39050000D03*
%TO.P,U909,5,OUT_5*%
%TO.N,+3.3V_VEHI*%
X103345000Y-39050000D03*
%TD*%
D68*
%TO.P,R417,1*%
%TO.N,Net-(Q402-B)*%
X9750000Y-76755000D03*
%TO.P,R417,2*%
%TO.N,/AIR/AIR_N_Switch*%
X9750000Y-78405000D03*
%TD*%
D66*
%TO.P,C936,1*%
%TO.N,+5V*%
X103145000Y-56912500D03*
%TO.P,C936,2*%
%TO.N,GND*%
X103145000Y-58462500D03*
%TD*%
D60*
%TO.P,U1102,1*%
%TO.N,Net-(R1109-Pad2)*%
X160625000Y-49000000D03*
%TO.P,U1102,2*%
%TO.N,Net-(D1108-A)*%
X163165000Y-49000000D03*
%TO.P,U1102,3*%
%TO.N,/MCU/PCHRG_ACTUAL*%
X163165000Y-58375000D03*
%TO.P,U1102,4*%
%TO.N,+3.3V*%
X160625000Y-58375000D03*
%TD*%
D50*
%TO.P,C923,1*%
%TO.N,+5V*%
X85095000Y-52137500D03*
%TO.P,C923,2*%
%TO.N,GND*%
X85095000Y-50237500D03*
%TD*%
D46*
%TO.P,R1903,1*%
%TO.N,Net-(R1902-Pad2)*%
X63607500Y-34687500D03*
%TO.P,R1903,2*%
%TO.N,Net-(D1902-A)*%
X65432500Y-34687500D03*
%TD*%
D27*
%TO.P,C930,1*%
%TO.N,Net-(U910-INP)*%
X108370000Y-41437500D03*
%TO.P,C930,2*%
%TO.N,/TS_N_VEHI*%
X109920000Y-41437500D03*
%TD*%
D65*
%TO.P,C917,1*%
%TO.N,+3.3V_ACCU*%
X85045000Y-34187500D03*
%TO.P,C917,2*%
%TO.N,/TS_N_ACCU*%
X83145000Y-34187500D03*
%TD*%
%TO.P,C2005,1*%
%TO.N,+5V_DCDC*%
X14162500Y-31750000D03*
%TO.P,C2005,2*%
%TO.N,/TS_N_ACCU*%
X12262500Y-31750000D03*
%TD*%
D46*
%TO.P,R1904,1*%
%TO.N,Net-(D1903-K)*%
X63607500Y-36687500D03*
%TO.P,R1904,2*%
%TO.N,Net-(R1904-Pad2)*%
X65432500Y-36687500D03*
%TD*%
D66*
%TO.P,C1003,1*%
%TO.N,+3.3V*%
X28625000Y-51890000D03*
%TO.P,C1003,2*%
%TO.N,GND*%
X28625000Y-53440000D03*
%TD*%
D50*
%TO.P,C2012,1*%
%TO.N,+5V*%
X14212500Y-43450000D03*
%TO.P,C2012,2*%
%TO.N,GND*%
X14212500Y-41550000D03*
%TD*%
D27*
%TO.P,C918,1*%
%TO.N,Net-(U907-INP)*%
X90820000Y-38187500D03*
%TO.P,C918,2*%
%TO.N,/TS_N_ACCU*%
X92370000Y-38187500D03*
%TD*%
D10*
%TO.P,R1109,1*%
%TO.N,Net-(D1104-K)*%
X162557500Y-46687500D03*
%TO.P,R1109,2*%
%TO.N,Net-(R1109-Pad2)*%
X160732500Y-46687500D03*
%TD*%
D65*
%TO.P,C2010,1*%
%TO.N,+3.3V_DCDC*%
X19912500Y-25500000D03*
%TO.P,C2010,2*%
%TO.N,/TS_N_ACCU*%
X18012500Y-25500000D03*
%TD*%
D29*
%TO.P,C919,1*%
%TO.N,/TS_N_ACCU*%
X83282500Y-30937500D03*
%TO.P,C919,2*%
%TO.N,+5V_ACCU*%
X85007500Y-30937500D03*
%TD*%
D68*
%TO.P,R1911,1*%
%TO.N,/AIR/SC_END*%
X71750000Y-53750000D03*
%TO.P,R1911,2*%
%TO.N,Net-(Q1904-G)*%
X71750000Y-55400000D03*
%TD*%
D66*
%TO.P,C2006,1*%
%TO.N,+3.3V*%
X21962500Y-46475000D03*
%TO.P,C2006,2*%
%TO.N,GND*%
X21962500Y-48025000D03*
%TD*%
D79*
%TO.P,R921,1*%
%TO.N,/TS_P_ACCU*%
X102845000Y-20937500D03*
%TO.P,R921,2*%
%TO.N,Net-(R921-Pad2)*%
X108945000Y-20937500D03*
%TD*%
D28*
%TO.P,C928,1*%
%TO.N,/TS_N_VEHI*%
X103257500Y-34937500D03*
%TO.P,C928,2*%
%TO.N,+3.3V_VEHI*%
X101532500Y-34937500D03*
%TD*%
D76*
%TO.P,U2003,1,VDD1_1*%
%TO.N,+3.3V_DCDC*%
X18807500Y-31800000D03*
%TO.P,U2003,2,INP_2*%
%TO.N,Net-(U2003-INP)*%
X20077500Y-31800000D03*
%TO.P,U2003,3,SNSN_3*%
%TO.N,/TS_N_ACCU*%
X21347500Y-31800000D03*
%TO.P,U2003,4,GND1_4*%
X22617500Y-31800000D03*
%TO.P,U2003,5,GND2_5*%
%TO.N,GND*%
X22617500Y-42700000D03*
%TO.P,U2003,6,REFIN_6*%
%TO.N,+3.3V*%
X21347500Y-42700000D03*
%TO.P,U2003,7,OUT_7*%
%TO.N,Net-(U2003-OUT)*%
X20077500Y-42700000D03*
%TO.P,U2003,8,VDD2_8*%
%TO.N,+5V*%
X18807500Y-42700000D03*
%TD*%
D69*
%TO.P,D403,1,K_1*%
%TO.N,/AIR/AIR_P_CTRL1*%
X25250000Y-77330000D03*
%TO.P,D403,2,A_2*%
%TO.N,GND*%
X25250000Y-73330000D03*
%TD*%
D27*
%TO.P,C938,1*%
%TO.N,+3.3V*%
X109870000Y-57937500D03*
%TO.P,C938,2*%
%TO.N,GND*%
X111420000Y-57937500D03*
%TD*%
D36*
%TO.P,R420,1*%
%TO.N,Net-(Q403-G)*%
X27250000Y-81405000D03*
%TO.P,R420,2*%
%TO.N,Net-(Q404-C)*%
X27250000Y-79755000D03*
%TD*%
D25*
%TO.P,R2008,1*%
%TO.N,/HV_Measurement_DCDC/V_DCDC*%
X20212500Y-46662500D03*
%TO.P,R2008,2*%
%TO.N,Net-(U2003-OUT)*%
X20212500Y-44837500D03*
%TD*%
D73*
%TO.P,Q403,1,G_1*%
%TO.N,Net-(Q403-G)*%
X25387500Y-82630000D03*
%TO.P,Q403,2,S_2*%
%TO.N,/AIR/SC_END*%
X25387500Y-84530000D03*
%TO.P,Q403,3,D_3*%
%TO.N,/AIR/AIR_P_CTRL1*%
X23112500Y-83580000D03*
%TD*%
D26*
%TO.P,R407,1*%
%TO.N,GND*%
X9675000Y-85000000D03*
%TO.P,R407,2*%
%TO.N,/AIR/AIR_N_AUX2*%
X11325000Y-85000000D03*
%TD*%
D28*
%TO.P,C1903,1*%
%TO.N,/DCDC_AIR/TS_P_DCDC*%
X35112500Y-30250000D03*
%TO.P,C1903,2*%
%TO.N,/DCDC_AIR/+5V_TS_P_DCDC*%
X33387500Y-30250000D03*
%TD*%
D61*
%TO.P,C932,1*%
%TO.N,+3.3V_VEHI*%
X107195000Y-39437500D03*
%TO.P,C932,2*%
%TO.N,/TS_N_VEHI*%
X109095000Y-39437500D03*
%TD*%
D46*
%TO.P,R1902,1*%
%TO.N,Net-(D1902-K)*%
X61857500Y-32937500D03*
%TO.P,R1902,2*%
%TO.N,Net-(R1902-Pad2)*%
X63682500Y-32937500D03*
%TD*%
D36*
%TO.P,R418,1*%
%TO.N,/AIR/AIR_N_Switch*%
X8000000Y-78405000D03*
%TO.P,R418,2*%
%TO.N,GND*%
X8000000Y-76755000D03*
%TD*%
D10*
%TO.P,R1909,1*%
%TO.N,Net-(D1901-A)*%
X80662500Y-52000000D03*
%TO.P,R1909,2*%
%TO.N,/DCDC_AIR/DCDC_AIR_Enable*%
X78837500Y-52000000D03*
%TD*%
D80*
%TO.P,R1905,1*%
%TO.N,Net-(R1905-Pad1)*%
X58912500Y-48750000D03*
%TO.P,R1905,2*%
%TO.N,GND*%
X57087500Y-48750000D03*
%TD*%
D68*
%TO.P,R421,1*%
%TO.N,/AIR/DANGER_V_oD*%
X32750000Y-80005000D03*
%TO.P,R421,2*%
%TO.N,/AIR/AIR_P_Switch*%
X32750000Y-81655000D03*
%TD*%
D72*
%TO.P,R904,1*%
%TO.N,/TS_N_VEHI*%
X103145000Y-43187500D03*
%TO.P,R904,2*%
%TO.N,+5V_VEHI*%
X101145000Y-43187500D03*
%TD*%
D25*
%TO.P,R924,1*%
%TO.N,/HV_Measurement/V_ACCU*%
X90845000Y-56100000D03*
%TO.P,R924,2*%
%TO.N,Net-(U907-OUT)*%
X90845000Y-54275000D03*
%TD*%
D66*
%TO.P,C939,1*%
%TO.N,/HV_Measurement/V_VEHI*%
X108395000Y-60412500D03*
%TO.P,C939,2*%
%TO.N,GND*%
X108395000Y-61962500D03*
%TD*%
D37*
%TO.P,Q1904,1,G_1*%
%TO.N,Net-(Q1904-G)*%
X73612500Y-55525000D03*
%TO.P,Q1904,2,S_2*%
%TO.N,/AIR/SC_END*%
X73612500Y-53625000D03*
%TO.P,Q1904,3,D_3*%
%TO.N,/DCDC_AIR/DCDC_AIR_Enable*%
X75887500Y-54575000D03*
%TD*%
D29*
%TO.P,C916,1*%
%TO.N,/TS_N_ACCU*%
X83232500Y-32437500D03*
%TO.P,C916,2*%
%TO.N,+3.3V_ACCU*%
X84957500Y-32437500D03*
%TD*%
D81*
%TO.P,D1901,1,K_1*%
%TO.N,/DCDC_AIR/DCDC_AIR_Enable*%
X82750000Y-49600000D03*
%TO.P,D1901,2,A_2*%
%TO.N,Net-(D1901-A)*%
X82750000Y-52900000D03*
%TD*%
D55*
%TO.P,C1902,1*%
%TO.N,GND*%
X79250000Y-55362500D03*
%TO.P,C1902,2*%
%TO.N,Net-(D1901-A)*%
X79250000Y-53637500D03*
%TD*%
D82*
%TO.P,R1906,1*%
%TO.N,/DCDC_AIR/DCDC_AIR_ACTUAL*%
X70500000Y-48587500D03*
%TO.P,R1906,2*%
%TO.N,GND*%
X70500000Y-50412500D03*
%TD*%
D83*
%TO.N,/MCU/FAN_PWM*%
X84000000Y-62500000D03*
%TO.N,/Buzzer/Buzzer_CTRL*%
X43500000Y-53500000D03*
%TO.N,/IMD_Monitoring/IMD_OK*%
X39500000Y-72000000D03*
X45750000Y-71750000D03*
X46750000Y-69125000D03*
%TO.N,/IMD_Monitoring/IMD_State*%
X35944083Y-72687560D03*
%TO.N,/IMD_Monitoring/IMD_SC_Closed*%
X45750000Y-70750000D03*
%TO.N,Net-(3V3Good1801-A)*%
X118000000Y-76000000D03*
%TO.N,Net-(5VGood1801-A)*%
X133000000Y-84750000D03*
%TO.N,/CAN1/CAN_RX*%
X64750000Y-80000000D03*
%TO.N,/CAN1/CAN_N*%
X81750000Y-76750000D03*
%TO.N,/CAN1/CAN_TX*%
X77500000Y-80500000D03*
%TO.N,/CAN2/CAN_TX*%
X53329442Y-78620558D03*
%TO.N,/CAN2/CAN_RX*%
X55250000Y-81000000D03*
%TO.N,+3.3V*%
X52000000Y-67000000D03*
%TO.N,Latch_SC*%
X59000000Y-83250000D03*
X56250000Y-81000000D03*
%TO.N,SC_Latched*%
X56492473Y-83037843D03*
X58000000Y-81350000D03*
%TO.N,/MCU/Boot0*%
X64500000Y-64250000D03*
%TO.N,+3.3V*%
X61750000Y-61500000D03*
D84*
%TO.N,/TS_N_ACCU*%
X94720000Y-38937500D03*
X22712500Y-27500000D03*
D83*
%TO.N,/StackCommInterface/VDDC*%
X204512500Y-64512500D03*
X209250000Y-65250000D03*
%TO.N,GND*%
X186000000Y-72750000D03*
X176000000Y-66250000D03*
X23000000Y-44500000D03*
X106750000Y-65000000D03*
X186250000Y-63500000D03*
X57000000Y-47250000D03*
X64500000Y-49250000D03*
X166500000Y-67250000D03*
X15000000Y-47750000D03*
X210000000Y-60000000D03*
X158500000Y-64000000D03*
X202750000Y-70500000D03*
X156750000Y-71500000D03*
X19500000Y-50500000D03*
X210000000Y-56500000D03*
X112500000Y-57500000D03*
X215500000Y-71750000D03*
X167500000Y-61750000D03*
X73500000Y-49000000D03*
X206500000Y-56500000D03*
X206500000Y-60000000D03*
X198500000Y-66000000D03*
X82000000Y-55500000D03*
X208250000Y-58250000D03*
X213250000Y-65000000D03*
X176250000Y-59500000D03*
X70000000Y-54825000D03*
%TO.N,/AIR/AIR_P_Actual*%
X27645000Y-46145000D03*
%TO.N,Net-(U1002-Pad3)*%
X26395000Y-51395000D03*
%TO.N,/AIR/AIR_N_Actual*%
X24113307Y-49292810D03*
%TO.N,Net-(U1002-Pad6)*%
X23395000Y-49645000D03*
%TO.N,Net-(U1002-Pad8)*%
X22895000Y-50395000D03*
%TO.N,/MCU/PCHRG_ACTUAL*%
X25145000Y-50145000D03*
X164250000Y-58500000D03*
%TO.N,/HV_Measurement/nDANGER_V*%
X21502396Y-58502396D03*
X20618512Y-57618512D03*
%TO.N,Net-(U1005A-nCLR)*%
X21145000Y-59395000D03*
X32645000Y-55845000D03*
D84*
%TO.N,Net-(U910-INP)*%
X114145000Y-26687500D03*
D83*
%TO.N,/HV_Measurement/V_VEHI*%
X111750000Y-59750000D03*
D84*
%TO.N,/TS_N_VEHI*%
X105895000Y-41687500D03*
X110645000Y-36687500D03*
%TO.N,Net-(R1106-Pad2)*%
X172395000Y-43437500D03*
X172167217Y-39939487D03*
%TO.N,+5V_VEHI*%
X106145000Y-37937500D03*
D83*
%TO.N,Net-(U301-IFL_H)*%
X197500000Y-73750000D03*
X200425000Y-71250000D03*
D84*
%TO.N,/DCDC_AIR/TS_P_DCDC*%
X16250000Y-10750000D03*
%TO.N,+5V_ACCU*%
X90847383Y-31048112D03*
%TO.N,Net-(U2003-INP)*%
X21250000Y-29000000D03*
D83*
%TO.N,Net-(U1003-Pad6)*%
X24645000Y-54645000D03*
%TO.N,Net-(U301-IFL_L)*%
X199906880Y-70640446D03*
X196250000Y-74375000D03*
D84*
%TO.N,Net-(U907-INP)*%
X91895000Y-32687500D03*
D83*
%TO.N,Net-(U1001-Pad1)*%
X27395000Y-55145000D03*
%TO.N,/TSAL_Logik/TS_ON*%
X27145000Y-49395000D03*
D84*
%TO.N,Net-(D1902-K)*%
X67791250Y-30958750D03*
%TO.N,Net-(R921-Pad2)*%
X108895000Y-24187500D03*
%TO.N,+3.3V_DCDC*%
X21250000Y-26250000D03*
X15250000Y-27250000D03*
X18000000Y-27250000D03*
D83*
%TO.N,Net-(D1903-K)*%
X61250000Y-35000000D03*
%TD*%
%TO.N,/MCU/FAN_PWM*%
D85*
X84175000Y-62500000D02*
X84925000Y-63250000D01*
X84000000Y-62500000D02*
X84175000Y-62500000D01*
%TO.N,GND*%
D86*
X90200000Y-64785000D02*
X88250000Y-62835000D01*
X90200000Y-65312500D02*
X90200000Y-64785000D01*
X87835000Y-63250000D02*
X88250000Y-62835000D01*
X86575000Y-63250000D02*
X87835000Y-63250000D01*
%TO.N,/MCU/FAN_PWM*%
X86600000Y-64925000D02*
X84925000Y-63250000D01*
X86750000Y-64925000D02*
X86600000Y-64925000D01*
%TO.N,Net-(Q101-B)*%
X88012500Y-65312500D02*
X86750000Y-66575000D01*
X88300000Y-65312500D02*
X88012500Y-65312500D01*
%TO.N,Net-(Q101-C)*%
X90612500Y-67187500D02*
X91925000Y-68500000D01*
X89250000Y-67187500D02*
X90612500Y-67187500D01*
%TO.N,Net-(D101-K)*%
X95650000Y-60250000D02*
X95650000Y-61435000D01*
X95650000Y-61435000D02*
X94250000Y-62835000D01*
%TO.N,Net-(D101-A)*%
X92750000Y-60650000D02*
X92350000Y-60250000D01*
X92750000Y-64362500D02*
X92750000Y-60650000D01*
%TO.N,Net-(Q102-G)*%
X93575000Y-67350000D02*
X95250000Y-65675000D01*
X93575000Y-68500000D02*
X93575000Y-67350000D01*
%TO.N,/Buzzer/Buzzer+*%
X44425000Y-50512500D02*
X45000000Y-51087500D01*
X44425000Y-49175000D02*
X44425000Y-50512500D01*
X43000000Y-47750000D02*
X44425000Y-49175000D01*
X42662500Y-47412500D02*
X43000000Y-47750000D01*
X42662500Y-46000000D02*
X42662500Y-47412500D01*
%TO.N,/Buzzer/Buzzer-*%
X39500000Y-47337500D02*
X40837500Y-46000000D01*
X39500000Y-49812500D02*
X39500000Y-47337500D01*
%TO.N,Net-(Q801-G)*%
X40662500Y-50337500D02*
X43500000Y-50337500D01*
X40450000Y-51687500D02*
X40450000Y-50550000D01*
X40450000Y-50550000D02*
X40662500Y-50337500D01*
%TO.N,/Buzzer/Buzzer_CTRL*%
D85*
X43500000Y-53500000D02*
X43500000Y-52162500D01*
%TO.N,/IMD_Monitoring/IMD_OK*%
X39412500Y-72000000D02*
X38612500Y-72800000D01*
X39500000Y-72000000D02*
X39412500Y-72000000D01*
X46750000Y-70750000D02*
X45750000Y-71750000D01*
X46750000Y-69125000D02*
X46750000Y-70750000D01*
%TO.N,/IMD_Monitoring/IMD_SC_Closed*%
X45750000Y-67600000D02*
X44500000Y-66350000D01*
X45750000Y-70750000D02*
X45750000Y-67600000D01*
%TO.N,/IMD_Monitoring/IMD_State*%
X35944083Y-72893417D02*
X35250000Y-73587500D01*
X35944083Y-72687560D02*
X35944083Y-72893417D01*
%TO.N,Net-(U2301A-nPRE)*%
X41300000Y-74700000D02*
X40887500Y-74700000D01*
X43447184Y-73000000D02*
X43000000Y-73000000D01*
X44250000Y-72197184D02*
X43447184Y-73000000D01*
X44250000Y-71350000D02*
X44250000Y-72197184D01*
X43000000Y-73000000D02*
X41300000Y-74700000D01*
%TO.N,Net-(D2303-K)*%
X42200000Y-72800000D02*
X40887500Y-72800000D01*
X43750000Y-72060788D02*
X43310788Y-72500000D01*
X42500000Y-72500000D02*
X42200000Y-72800000D01*
X43750000Y-71350000D02*
X43750000Y-72060788D01*
X43310788Y-72500000D02*
X42500000Y-72500000D01*
%TO.N,+3.3V*%
X43250000Y-74860788D02*
X44389212Y-76000000D01*
X44389212Y-76000000D02*
X44475000Y-76000000D01*
X43250000Y-74150000D02*
X43250000Y-74860788D01*
%TO.N,Net-(D2303-K)*%
X43750000Y-70400000D02*
X44500000Y-69650000D01*
X43750000Y-71350000D02*
X43750000Y-70400000D01*
%TO.N,Net-(D2301-K)*%
X43250000Y-70900000D02*
X42000000Y-69650000D01*
X43250000Y-71350000D02*
X43250000Y-70900000D01*
%TO.N,Net-(Q2302-G)*%
D86*
X38762500Y-59325000D02*
X37837500Y-60250000D01*
X40203854Y-59325000D02*
X38762500Y-59325000D01*
X40878854Y-60000000D02*
X40203854Y-59325000D01*
X42562500Y-60000000D02*
X40878854Y-60000000D01*
X43700000Y-58862500D02*
X42562500Y-60000000D01*
%TO.N,/IMD_Monitoring/SC_In*%
X40550000Y-61137500D02*
X39662500Y-60250000D01*
X42750000Y-61137500D02*
X40550000Y-61137500D01*
%TO.N,Net-(Q2302-G)*%
X37837500Y-61750000D02*
X37837500Y-60250000D01*
%TO.N,Net-(Q2301-C)*%
X40187500Y-61750000D02*
X41000000Y-62562500D01*
X39662500Y-61750000D02*
X40187500Y-61750000D01*
%TO.N,/IMD_Monitoring/IMD_SC_Closed*%
X43337500Y-65187500D02*
X44500000Y-66350000D01*
X43337500Y-64500000D02*
X43337500Y-65187500D01*
X42000000Y-64487500D02*
X41950000Y-64437500D01*
X42000000Y-66350000D02*
X42000000Y-64487500D01*
%TO.N,Net-(D2302-A)*%
X42700000Y-76350000D02*
X42750000Y-76300000D01*
X39000000Y-76350000D02*
X42700000Y-76350000D01*
X38612500Y-75962500D02*
X39000000Y-76350000D01*
X38612500Y-74700000D02*
X38612500Y-75962500D01*
%TO.N,/IMD_Monitoring/IMD_OK*%
X37362500Y-72800000D02*
X36750000Y-73412500D01*
X38612500Y-72800000D02*
X37362500Y-72800000D01*
X36750000Y-73412500D02*
X36750000Y-75087500D01*
%TO.N,/IMD_Monitoring/IMD_State*%
X33925000Y-73587500D02*
X33750000Y-73412500D01*
X35250000Y-73587500D02*
X33925000Y-73587500D01*
X33750000Y-73412500D02*
X33750000Y-75087500D01*
%TO.N,/IMD_Monitoring/OK_HS*%
X36750000Y-69830000D02*
X36750000Y-71587500D01*
%TO.N,/IMD_Monitoring/M_HSLS*%
X33750000Y-69830000D02*
X33750000Y-71587500D01*
%TO.N,Net-(3V3Good1801-A)*%
X118250000Y-76250000D02*
X118000000Y-76000000D01*
X118250000Y-77087500D02*
X118250000Y-76250000D01*
%TO.N,Net-(5VGood1801-A)*%
X132162500Y-84750000D02*
X133000000Y-84750000D01*
%TO.N,+5V*%
D87*
X126750000Y-84750000D02*
X130337500Y-84750000D01*
X126117500Y-85382500D02*
X126750000Y-84750000D01*
X125542500Y-85382500D02*
X126117500Y-85382500D01*
%TO.N,+BATT*%
X128500000Y-82787500D02*
X128027500Y-82787500D01*
X128027500Y-82787500D02*
X125542500Y-80302500D01*
%TO.N,+3.3V*%
X115750000Y-75250000D02*
X116537500Y-76037500D01*
X115750000Y-72500000D02*
X115750000Y-75250000D01*
X116537500Y-76037500D02*
X116537500Y-78250000D01*
X116537500Y-80537500D02*
X116457500Y-80617500D01*
X116537500Y-78250000D02*
X116537500Y-80537500D01*
X118162500Y-78912500D02*
X116457500Y-80617500D01*
X118250000Y-78912500D02*
X118162500Y-78912500D01*
%TO.N,/CAN1/CAN_RX*%
D85*
X69720000Y-75030000D02*
X64750000Y-80000000D01*
X74587500Y-75030000D02*
X69720000Y-75030000D01*
%TO.N,Net-(U501-RXD)*%
X76757500Y-75375000D02*
X76412500Y-75030000D01*
X78525000Y-75375000D02*
X76757500Y-75375000D01*
%TO.N,Net-(U501-STBY)*%
X84992500Y-79185000D02*
X85587500Y-79780000D01*
X83475000Y-79185000D02*
X84992500Y-79185000D01*
%TO.N,/CAN1/CAN_P*%
X91112500Y-78192500D02*
X96500000Y-83580000D01*
X85500000Y-78192500D02*
X91112500Y-78192500D01*
%TO.N,/CAN1/CAN_N*%
X81750000Y-76750000D02*
X83370000Y-76750000D01*
X83370000Y-76750000D02*
X83475000Y-76645000D01*
%TO.N,/CAN1/CAN_P*%
X85222500Y-77915000D02*
X85500000Y-78192500D01*
X83475000Y-77915000D02*
X85222500Y-77915000D01*
%TO.N,/CAN1/CAN_N*%
X85222500Y-76645000D02*
X85500000Y-76367500D01*
X83475000Y-76645000D02*
X85222500Y-76645000D01*
%TO.N,/CAN1/CAN_TX*%
X77500000Y-80500000D02*
X77500000Y-80210000D01*
X77500000Y-80210000D02*
X78525000Y-79185000D01*
%TO.N,/CAN2/CAN_RX*%
X59000000Y-84250000D02*
X56820746Y-84250000D01*
X59970000Y-83280000D02*
X59000000Y-84250000D01*
X64087500Y-83280000D02*
X59970000Y-83280000D01*
X56820746Y-84250000D02*
X56570746Y-84000000D01*
%TO.N,/CAN2/CAN_TX*%
X59369350Y-87435000D02*
X68025000Y-87435000D01*
X53329442Y-81395092D02*
X59369350Y-87435000D01*
X53329442Y-78620558D02*
X53329442Y-81395092D01*
%TO.N,/CAN2/CAN_RX*%
X56570746Y-84000000D02*
X56600746Y-84030000D01*
%TO.N,Net-(U601-RXD)*%
X66257500Y-83625000D02*
X65912500Y-83280000D01*
X68025000Y-83625000D02*
X66257500Y-83625000D01*
%TO.N,Net-(U601-STBY)*%
X74492500Y-87435000D02*
X75087500Y-88030000D01*
X72975000Y-87435000D02*
X74492500Y-87435000D01*
%TO.N,/CAN1/CAN_P*%
X98120000Y-83580000D02*
X98200000Y-83500000D01*
X96500000Y-83580000D02*
X98120000Y-83580000D01*
%TO.N,/CAN2/CAN_N*%
X87500000Y-87700000D02*
X86700000Y-88500000D01*
X87500000Y-86580000D02*
X87500000Y-87700000D01*
%TO.N,/CAN2/CAN_P*%
X84500000Y-87450000D02*
X85550000Y-88500000D01*
X84500000Y-86580000D02*
X84500000Y-87450000D01*
%TO.N,/CAN1/CAN_N*%
X80200000Y-87880000D02*
X80200000Y-88290000D01*
X81500000Y-86580000D02*
X80200000Y-87880000D01*
%TO.N,/CAN2/CAN_N*%
X75037500Y-84655000D02*
X85575000Y-84655000D01*
X75000000Y-84617500D02*
X75037500Y-84655000D01*
X85575000Y-84655000D02*
X87500000Y-86580000D01*
%TO.N,/CAN2/CAN_P*%
X83425000Y-85505000D02*
X84500000Y-86580000D01*
X75937500Y-85505000D02*
X83425000Y-85505000D01*
X75000000Y-86442500D02*
X75937500Y-85505000D01*
X74722500Y-86165000D02*
X75000000Y-86442500D01*
X72975000Y-86165000D02*
X74722500Y-86165000D01*
%TO.N,/CAN2/CAN_N*%
X74722500Y-84895000D02*
X75000000Y-84617500D01*
X72975000Y-84895000D02*
X74722500Y-84895000D01*
%TO.N,/CAN2/CAN_RX*%
X55250000Y-82679254D02*
X56570746Y-84000000D01*
X55250000Y-81000000D02*
X55250000Y-82679254D01*
%TO.N,+3.3V*%
X52000000Y-67000000D02*
X52887500Y-67000000D01*
X52887500Y-67000000D02*
X53500000Y-67612500D01*
%TO.N,Latch_SC*%
X58258884Y-80725000D02*
X59000000Y-81466116D01*
X56525000Y-80725000D02*
X58258884Y-80725000D01*
X56250000Y-81000000D02*
X56525000Y-80725000D01*
X59000000Y-81466116D02*
X59000000Y-83250000D01*
%TO.N,SC_Latched*%
X58000000Y-81530316D02*
X56492473Y-83037843D01*
X58000000Y-81350000D02*
X58000000Y-81530316D01*
%TO.N,/MCU/Boot0*%
X64500000Y-64250000D02*
X63162500Y-64250000D01*
%TO.N,+3.3V*%
X61750000Y-61500000D02*
X61750000Y-62637500D01*
X61750000Y-62637500D02*
X61862500Y-62750000D01*
%TO.N,/AIR/SC_END*%
D86*
X25387500Y-84145184D02*
X25387500Y-84530000D01*
X23990000Y-82747684D02*
X25387500Y-84145184D01*
X23990000Y-80641644D02*
X23990000Y-82747684D01*
X25036424Y-79595220D02*
X23990000Y-80641644D01*
X26010000Y-79595220D02*
X25036424Y-79595220D01*
X26600000Y-79005220D02*
X26010000Y-79595220D01*
X26600000Y-76033122D02*
X26600000Y-79005220D01*
X26196878Y-75630000D02*
X26600000Y-76033122D01*
X24903122Y-75630000D02*
X26196878Y-75630000D01*
X21403122Y-72130000D02*
X24903122Y-75630000D01*
X17803122Y-72130000D02*
X21403122Y-72130000D01*
X17400000Y-72533122D02*
X17803122Y-72130000D01*
X17400000Y-77142500D02*
X17400000Y-72533122D01*
X18200000Y-77942500D02*
X17400000Y-77142500D01*
%TO.N,GND*%
X22000000Y-85000000D02*
X19000000Y-85000000D01*
X30937500Y-83092500D02*
X31175000Y-83330000D01*
X30937500Y-81780000D02*
X30937500Y-83092500D01*
%TO.N,/AIR/AIR_P_Switch*%
X32750000Y-83255000D02*
X32825000Y-83330000D01*
X32750000Y-81655000D02*
X32750000Y-83255000D01*
%TO.N,/AIR/DANGER_V_oD*%
X32625000Y-79880000D02*
X32750000Y-80005000D01*
X30937500Y-79880000D02*
X32625000Y-79880000D01*
%TO.N,Net-(Q404-C)*%
X27987500Y-79755000D02*
X29062500Y-80830000D01*
X27250000Y-79755000D02*
X27987500Y-79755000D01*
%TO.N,Net-(Q403-G)*%
X27250000Y-81405000D02*
X27250000Y-82755000D01*
X25387500Y-82630000D02*
X27125000Y-82630000D01*
X27125000Y-82630000D02*
X27250000Y-82755000D01*
%TO.N,/AIR/SC_END*%
X27125000Y-84530000D02*
X27250000Y-84405000D01*
X25387500Y-84530000D02*
X27125000Y-84530000D01*
%TO.N,/AIR/AIR_P_AUX2*%
X16000000Y-86675000D02*
X16000000Y-85000000D01*
%TO.N,/AIR/AIR_N_Switch*%
X9750000Y-78405000D02*
X8000000Y-78405000D01*
%TO.N,Net-(Q402-B)*%
X10137500Y-77142500D02*
X9750000Y-76755000D01*
X11300000Y-77142500D02*
X10137500Y-77142500D01*
%TO.N,Net-(Q402-C)*%
X12637500Y-79405000D02*
X12250000Y-79017500D01*
X14750000Y-79405000D02*
X12637500Y-79405000D01*
%TO.N,/AIR/AIR_N_CTRL1*%
X19000000Y-74080000D02*
X19000000Y-77655000D01*
X18750000Y-73830000D02*
X19000000Y-74080000D01*
X19000000Y-77655000D02*
X21250000Y-79905000D01*
%TO.N,GND*%
X21750000Y-75755000D02*
X21250000Y-75255000D01*
X22750000Y-75755000D02*
X21750000Y-75755000D01*
%TO.N,/AIR/AIR_N_Intended*%
X21250000Y-78255000D02*
X21250000Y-76905000D01*
%TO.N,/AIR/AIR_P_Intended*%
X22750000Y-78755000D02*
X22750000Y-77405000D01*
%TO.N,/AIR/AIR_P_CTRL1*%
X25250000Y-77905000D02*
X25250000Y-77330000D01*
X22750000Y-80405000D02*
X25250000Y-77905000D01*
X22750000Y-81250000D02*
X22000000Y-82000000D01*
X22750000Y-80405000D02*
X22750000Y-81250000D01*
X23112500Y-83112500D02*
X22000000Y-82000000D01*
X23112500Y-83580000D02*
X23112500Y-83112500D01*
%TO.N,/AIR/AIR_N_AUX2*%
X11325000Y-85000000D02*
X13000000Y-85000000D01*
%TO.N,+3.3V*%
X13825000Y-83580000D02*
X15175000Y-83580000D01*
%TO.N,/AIR/AIR_N_AUX1*%
X12175000Y-82825000D02*
X13000000Y-82000000D01*
X12175000Y-83580000D02*
X12175000Y-82825000D01*
%TO.N,/AIR/AIR_P_AUX1*%
X16825000Y-82825000D02*
X16000000Y-82000000D01*
X16825000Y-83580000D02*
X16825000Y-82825000D01*
%TO.N,Net-(Q401-G)*%
X16112500Y-77755000D02*
X16300000Y-77942500D01*
X14750000Y-77755000D02*
X16112500Y-77755000D01*
X16300000Y-77942500D02*
X16300000Y-76205000D01*
X16300000Y-76205000D02*
X16425000Y-76080000D01*
%TO.N,/AIR/SC_END*%
X18200000Y-76205000D02*
X18075000Y-76080000D01*
X18200000Y-77942500D02*
X18200000Y-76205000D01*
%TO.N,/AIR/AIR_N_CTRL1*%
X21095000Y-79905000D02*
X19000000Y-82000000D01*
X21250000Y-79905000D02*
X21095000Y-79905000D01*
X17250000Y-80250000D02*
X19000000Y-82000000D01*
X17250000Y-80217500D02*
X17250000Y-80250000D01*
%TO.N,/TS_P_ACCU*%
D88*
X133840000Y-15187500D02*
X113915762Y-15187500D01*
X102245000Y-16916738D02*
X102245000Y-24352500D01*
X113915762Y-15187500D02*
X111990762Y-13262500D01*
D86*
X102520000Y-24352500D02*
X102520000Y-21262500D01*
D88*
X140495000Y-15187500D02*
X140545000Y-15137500D01*
X111990762Y-13262500D02*
X105899238Y-13262500D01*
X105899238Y-13262500D02*
X102245000Y-16916738D01*
X133840000Y-15187500D02*
X140495000Y-15187500D01*
X140330000Y-15352500D02*
X140545000Y-15137500D01*
D86*
X102520000Y-21262500D02*
X102845000Y-20937500D01*
%TO.N,/TS_N_ACCU*%
X88420000Y-33662500D02*
X88845000Y-33237500D01*
X12262500Y-25250000D02*
X11512500Y-26000000D01*
X91262500Y-30000000D02*
X91797500Y-30535000D01*
X83172364Y-34187500D02*
X83145000Y-34187500D01*
X20437500Y-27500000D02*
X19962500Y-27975000D01*
X93500000Y-40487500D02*
X92230000Y-40487500D01*
X83145000Y-34187500D02*
X82645000Y-34687500D01*
X93120000Y-38937500D02*
X92370000Y-38187500D01*
X92230000Y-40487500D02*
X92230000Y-41517500D01*
X83145000Y-32525000D02*
X83232500Y-32437500D01*
X83216146Y-30937500D02*
X83232500Y-30937500D01*
X82301996Y-36757551D02*
X82301996Y-38894496D01*
X84220000Y-30000000D02*
X91262500Y-30000000D01*
X83232500Y-34100000D02*
X83145000Y-34187500D01*
X16392500Y-33690000D02*
X21057500Y-33690000D01*
X94720000Y-38937500D02*
X93120000Y-38937500D01*
X13483646Y-22575000D02*
X15037500Y-22575000D01*
X92370000Y-38187500D02*
X92370000Y-40347500D01*
X12262500Y-31750000D02*
X12262500Y-33412500D01*
X83282500Y-30937500D02*
X84220000Y-30000000D01*
X92230000Y-41517500D02*
X91620000Y-42127500D01*
X91797500Y-30535000D02*
X93520000Y-28812500D01*
X90001497Y-33237500D02*
X91797500Y-31441497D01*
D87*
X57650000Y-22811346D02*
X49588654Y-14750000D01*
D86*
X84345000Y-38200320D02*
X84345000Y-38937500D01*
X84345000Y-38937500D02*
X83345000Y-39937500D01*
X15642500Y-34440000D02*
X13290000Y-34440000D01*
X92370000Y-40347500D02*
X92230000Y-40487500D01*
X18012500Y-23925000D02*
X18187500Y-23750000D01*
X12350000Y-23708646D02*
X13483646Y-22575000D01*
X88845000Y-33237500D02*
X90001497Y-33237500D01*
X12350000Y-24000000D02*
X12350000Y-23708646D01*
X84570000Y-43112500D02*
X86577500Y-43112500D01*
D87*
X93520000Y-24352500D02*
X91978846Y-22811346D01*
D86*
X86845000Y-33662500D02*
X88420000Y-33662500D01*
X13212500Y-30800000D02*
X12262500Y-31750000D01*
X91797500Y-30543997D02*
X91797500Y-30535000D01*
X13290000Y-34440000D02*
X12350000Y-33500000D01*
X16212500Y-23750000D02*
X18187500Y-23750000D01*
X83345000Y-39937500D02*
X83345000Y-41887500D01*
X86577500Y-43112500D02*
X87562500Y-42127500D01*
X12350000Y-24000000D02*
X12350000Y-25162500D01*
X19962500Y-27975000D02*
X19962500Y-27450000D01*
X21347500Y-33400000D02*
X21347500Y-31800000D01*
X22712500Y-27500000D02*
X20437500Y-27500000D01*
X13212500Y-29637500D02*
X13212500Y-30800000D01*
X82645000Y-34687500D02*
X82645000Y-36414547D01*
X91620000Y-42127500D02*
X87562500Y-42127500D01*
X21057500Y-33690000D02*
X21347500Y-33400000D01*
X11512500Y-26000000D02*
X11512500Y-31000000D01*
D87*
X49588654Y-14750000D02*
X32750000Y-14750000D01*
D86*
X22617500Y-32130000D02*
X21347500Y-33400000D01*
X18012500Y-25500000D02*
X18012500Y-23925000D01*
X22617500Y-31800000D02*
X22617500Y-32130000D01*
X12350000Y-25162500D02*
X12262500Y-25250000D01*
X83232500Y-30937500D02*
X83232500Y-34100000D01*
X83345000Y-41887500D02*
X83395000Y-41937500D01*
X82301996Y-38894496D02*
X83345000Y-39937500D01*
X91797500Y-31441497D02*
X91797500Y-30543997D01*
X93520000Y-28812500D02*
X93520000Y-24352500D01*
X15037500Y-22575000D02*
X16212500Y-23750000D01*
X12350000Y-23500000D02*
X12350000Y-24000000D01*
X12262500Y-33412500D02*
X12350000Y-33500000D01*
X83395000Y-41937500D02*
X84570000Y-43112500D01*
X16392500Y-33690000D02*
X15642500Y-34440000D01*
D87*
X91978846Y-22811346D02*
X57650000Y-22811346D01*
D86*
X19962500Y-27450000D02*
X18012500Y-25500000D01*
X82645000Y-36414547D02*
X82301996Y-36757551D01*
X11512500Y-31000000D02*
X12262500Y-31750000D01*
%TO.N,/StackCommInterface/VDDC*%
D85*
X205508883Y-65508883D02*
X204512500Y-64512500D01*
X208991117Y-65508883D02*
X205508883Y-65508883D01*
X209250000Y-65250000D02*
X208991117Y-65508883D01*
%TO.N,GND*%
D86*
X104622500Y-53487500D02*
X105112500Y-52997500D01*
X108395000Y-61962500D02*
X107720000Y-61962500D01*
X31457500Y-44550000D02*
X30967500Y-44060000D01*
X21962500Y-48025000D02*
X20212500Y-49775000D01*
X85095000Y-50237500D02*
X87072500Y-50237500D01*
X17637500Y-46525000D02*
X16462500Y-47700000D01*
X77750000Y-56612500D02*
X79000000Y-55362500D01*
X68825000Y-54575000D02*
X69750000Y-54575000D01*
X22617500Y-44117500D02*
X23000000Y-44500000D01*
X16462500Y-47700000D02*
X15050000Y-47700000D01*
X33500000Y-44550000D02*
X31457500Y-44550000D01*
X102895000Y-53487500D02*
X104622500Y-53487500D01*
X80750000Y-55362500D02*
X81862500Y-55362500D01*
X69125000Y-54875000D02*
X68825000Y-54575000D01*
X70937500Y-50412500D02*
X72350000Y-49000000D01*
X21500000Y-48487500D02*
X21962500Y-48025000D01*
X73800000Y-50450000D02*
X72350000Y-49000000D01*
X87072500Y-50237500D02*
X87562500Y-49747500D01*
X70500000Y-50412500D02*
X70937500Y-50412500D01*
X111050000Y-54887500D02*
X111050000Y-57567500D01*
X81862500Y-55362500D02*
X82000000Y-55500000D01*
X106750000Y-63607500D02*
X108395000Y-61962500D01*
X18712500Y-46525000D02*
X17637500Y-46525000D01*
X15050000Y-47700000D02*
X15000000Y-47750000D01*
X87395000Y-54687500D02*
X87395000Y-55898328D01*
X111420000Y-57937500D02*
X112062500Y-57937500D01*
X112062500Y-57937500D02*
X112500000Y-57500000D01*
X19500000Y-50500000D02*
X21500000Y-48500000D01*
X57087500Y-47337500D02*
X57000000Y-47250000D01*
X107720000Y-61962500D02*
X105145000Y-59387500D01*
X104070000Y-59387500D02*
X103145000Y-58462500D01*
X111050000Y-57567500D02*
X111420000Y-57937500D01*
X14212500Y-41550000D02*
X16152500Y-41550000D01*
X21500000Y-48500000D02*
X21500000Y-48487500D01*
X69750000Y-54575000D02*
X70000000Y-54825000D01*
X64250000Y-49500000D02*
X64500000Y-49250000D01*
X72350000Y-49000000D02*
X73500000Y-49000000D01*
X73800000Y-51250000D02*
X73800000Y-50450000D01*
X79000000Y-55362500D02*
X80750000Y-55362500D01*
X105145000Y-59387500D02*
X104070000Y-59387500D01*
X16152500Y-41550000D02*
X16392500Y-41310000D01*
X93500000Y-51387500D02*
X93500000Y-54817500D01*
X106750000Y-65000000D02*
X106750000Y-63607500D01*
X93500000Y-54817500D02*
X93870000Y-55187500D01*
X63162500Y-49500000D02*
X64250000Y-49500000D01*
X90709172Y-59212500D02*
X90845000Y-59212500D01*
X87395000Y-55898328D02*
X90709172Y-59212500D01*
X57087500Y-48750000D02*
X57087500Y-47337500D01*
X22617500Y-42700000D02*
X22617500Y-44117500D01*
X69125000Y-56125000D02*
X69125000Y-54875000D01*
%TO.N,/AIR/AIR_P_Actual*%
D85*
X24399763Y-46145000D02*
X23845000Y-46699763D01*
X27645000Y-46145000D02*
X24399763Y-46145000D01*
X23845000Y-46699763D02*
X23845000Y-47437262D01*
%TO.N,Net-(U1002-Pad3)*%
X26395000Y-53112262D02*
X26445000Y-53162262D01*
X26395000Y-51395000D02*
X26395000Y-53112262D01*
%TO.N,/AIR/AIR_N_Actual*%
X24113307Y-49292810D02*
X24495000Y-48911117D01*
X24495000Y-48911117D02*
X24495000Y-47437262D01*
%TO.N,Net-(U1002-Pad6)*%
X25795000Y-52045000D02*
X25795000Y-53162262D01*
X23395000Y-49645000D02*
X25795000Y-52045000D01*
%TO.N,Net-(U1002-Pad8)*%
X23115237Y-50395000D02*
X25145000Y-52424763D01*
X22895000Y-50395000D02*
X23115237Y-50395000D01*
X25145000Y-52424763D02*
X25145000Y-53162262D01*
%TO.N,/MCU/PCHRG_ACTUAL*%
X25145000Y-50145000D02*
X25145000Y-47437262D01*
D86*
X163290000Y-58500000D02*
X163165000Y-58375000D01*
X164250000Y-58500000D02*
X163290000Y-58500000D01*
%TO.N,+3.3V*%
X109780000Y-57847500D02*
X109870000Y-57937500D01*
X109780000Y-54887500D02*
X109780000Y-57847500D01*
X21347500Y-42700000D02*
X21347500Y-45860000D01*
X21347500Y-45860000D02*
X21962500Y-46475000D01*
X92230000Y-55097500D02*
X92320000Y-55187500D01*
X92230000Y-51387500D02*
X92230000Y-55097500D01*
%TO.N,/HV_Measurement/nDANGER_V*%
D85*
X20618512Y-57618512D02*
X21502396Y-58502396D01*
%TO.N,+5V*%
D86*
X102895000Y-56662500D02*
X103145000Y-56912500D01*
X15992500Y-43450000D02*
X16392500Y-43850000D01*
X89370000Y-56437500D02*
X89370000Y-54095000D01*
X88462500Y-51387500D02*
X87562500Y-52287500D01*
X104570000Y-56912500D02*
X105145000Y-57487500D01*
X14212500Y-43450000D02*
X15992500Y-43450000D01*
X103145000Y-56912500D02*
X104570000Y-56912500D01*
X102895000Y-55387500D02*
X102895000Y-56662500D01*
X16462500Y-43920000D02*
X16392500Y-43850000D01*
X18807500Y-44880000D02*
X18712500Y-44975000D01*
X105145000Y-57487500D02*
X105145000Y-55570000D01*
X105145000Y-55570000D02*
X105112500Y-55537500D01*
X33500000Y-46450000D02*
X31117500Y-46450000D01*
X85095000Y-52137500D02*
X87412500Y-52137500D01*
X18712500Y-44975000D02*
X17517500Y-44975000D01*
X107240000Y-54887500D02*
X105762500Y-54887500D01*
X17517500Y-44975000D02*
X16392500Y-43850000D01*
X16462500Y-45800000D02*
X16462500Y-43920000D01*
X87412500Y-52137500D02*
X87562500Y-52287500D01*
X18807500Y-42700000D02*
X18807500Y-44880000D01*
X31117500Y-46450000D02*
X30967500Y-46600000D01*
X105762500Y-54887500D02*
X105112500Y-55537500D01*
X89370000Y-54095000D02*
X87562500Y-52287500D01*
X89690000Y-51387500D02*
X88462500Y-51387500D01*
%TO.N,/HV_Measurement/V_ACCU*%
X90845000Y-56100000D02*
X90845000Y-57662500D01*
%TO.N,Net-(Q1903-B)*%
X67375000Y-58025000D02*
X67250000Y-57900000D01*
X69125000Y-58025000D02*
X67375000Y-58025000D01*
%TO.N,Net-(Q1903-C)*%
X72750000Y-57075000D02*
X71000000Y-57075000D01*
%TO.N,/AIR/SC_END*%
X73487500Y-53750000D02*
X73612500Y-53625000D01*
X71750000Y-53750000D02*
X73487500Y-53750000D01*
%TO.N,Net-(Q1904-G)*%
X73612500Y-55525000D02*
X73612500Y-56287500D01*
X73612500Y-56287500D02*
X74400000Y-57075000D01*
X71875000Y-55525000D02*
X71750000Y-55400000D01*
X73612500Y-55525000D02*
X71875000Y-55525000D01*
%TO.N,Net-(U1005A-nCLR)*%
D85*
X32163460Y-55845000D02*
X28613460Y-59395000D01*
X28613460Y-59395000D02*
X21145000Y-59395000D01*
X32645000Y-55845000D02*
X32163460Y-55845000D01*
%TO.N,Net-(U910-INP)*%
D86*
X109310000Y-45587500D02*
X108510000Y-44787500D01*
X114145000Y-26687500D02*
X112645000Y-28187500D01*
X111750000Y-45587500D02*
X109310000Y-45587500D01*
X108510000Y-41577500D02*
X108370000Y-41437500D01*
X112645000Y-44692500D02*
X111750000Y-45587500D01*
X108510000Y-44787500D02*
X108510000Y-43987500D01*
X108510000Y-43987500D02*
X108510000Y-41577500D01*
X112645000Y-28187500D02*
X112645000Y-44692500D01*
%TO.N,/HV_Measurement/V_VEHI*%
X111750000Y-59750000D02*
X109295000Y-59750000D01*
X108395000Y-58850000D02*
X108395000Y-60412500D01*
X109295000Y-59750000D02*
X108395000Y-58850000D01*
%TO.N,/TS_N_VEHI*%
X109170000Y-37437500D02*
X109895000Y-37437500D01*
X104395000Y-43187500D02*
X105895000Y-41687500D01*
X104922500Y-45187500D02*
X105112500Y-45377500D01*
X104895000Y-35575000D02*
X107307500Y-35575000D01*
X103257500Y-36850000D02*
X103345000Y-36937500D01*
X109895000Y-37437500D02*
X110645000Y-36687500D01*
X107307500Y-35575000D02*
X109170000Y-37437500D01*
X109170000Y-39362500D02*
X109095000Y-39437500D01*
X111050000Y-43987500D02*
X111050000Y-42567500D01*
X102395000Y-41325000D02*
X102395000Y-42437500D01*
X103145000Y-43187500D02*
X104395000Y-43187500D01*
X103345000Y-45187500D02*
X104922500Y-45187500D01*
X102395000Y-42437500D02*
X103145000Y-43187500D01*
X109170000Y-37437500D02*
X109170000Y-39362500D01*
X103145000Y-44987500D02*
X103345000Y-45187500D01*
X109095000Y-39437500D02*
X109095000Y-40612500D01*
X111050000Y-42567500D02*
X109920000Y-41437500D01*
X103145000Y-43187500D02*
X103145000Y-44987500D01*
X104895000Y-35575000D02*
X103895000Y-35575000D01*
X109095000Y-40612500D02*
X109920000Y-41437500D01*
X109780000Y-41577500D02*
X109920000Y-41437500D01*
X103257500Y-34937500D02*
X103257500Y-36850000D01*
X103895000Y-35575000D02*
X103257500Y-34937500D01*
X109780000Y-43987500D02*
X109780000Y-41577500D01*
%TO.N,Net-(R1106-Pad2)*%
D89*
X172167217Y-43209717D02*
X172395000Y-43437500D01*
X172167217Y-39939487D02*
X172167217Y-43209717D01*
%TO.N,Net-(D1108-A)*%
X165922500Y-49000000D02*
X166370000Y-48552500D01*
X163165000Y-49000000D02*
X165922500Y-49000000D01*
%TO.N,/DCDC_AIR/DCDC_AIR_SWITCH*%
D86*
X67250000Y-56250000D02*
X67250000Y-54650000D01*
X67250000Y-54650000D02*
X67175000Y-54575000D01*
%TO.N,+5V_VEHI*%
X101895001Y-40212500D02*
X101445000Y-40662501D01*
X105112500Y-40297500D02*
X105027500Y-40212500D01*
X105507500Y-37300000D02*
X106145000Y-37937500D01*
X103345000Y-40262500D02*
X103395000Y-40212500D01*
X104895000Y-37300000D02*
X105507500Y-37300000D01*
X105027500Y-40212500D02*
X103395000Y-40212500D01*
X101445000Y-40662501D02*
X101445000Y-41325000D01*
X101445000Y-45187500D02*
X101445000Y-41325000D01*
X103395000Y-40212500D02*
X101895001Y-40212500D01*
X103345000Y-41325000D02*
X103345000Y-40262500D01*
%TO.N,Net-(U301-IFL_H)*%
D85*
X200425000Y-71250000D02*
X197925000Y-73750000D01*
X197925000Y-73750000D02*
X197500000Y-73750000D01*
%TO.N,/DCDC_AIR/TS_P_DCDC*%
D87*
X47500000Y-34000000D02*
X35250000Y-34000000D01*
D86*
X32750000Y-23495281D02*
X20004720Y-10750001D01*
D87*
X35112500Y-33862500D02*
X35250000Y-34000000D01*
X47862500Y-33637500D02*
X47500000Y-34000000D01*
D86*
X32810000Y-36440000D02*
X35250000Y-34000000D01*
X20004720Y-10750000D02*
X16250000Y-10750000D01*
D87*
X32750000Y-23750000D02*
X35112500Y-26112500D01*
X35112500Y-30250000D02*
X35112500Y-33862500D01*
X35112500Y-26112500D02*
X35112500Y-30250000D01*
D86*
X32750000Y-23750000D02*
X32750000Y-23495281D01*
X35112500Y-29112500D02*
X35112500Y-30250000D01*
X20004720Y-10750001D02*
X20004720Y-10750000D01*
X30967500Y-36440000D02*
X32810000Y-36440000D01*
D87*
X48230000Y-33637500D02*
X47862500Y-33637500D01*
%TO.N,+5V_ACCU*%
D90*
X85295000Y-41362500D02*
X85345000Y-41312500D01*
D86*
X84957500Y-30937500D02*
X84957500Y-30700000D01*
X83395000Y-37537821D02*
X83395000Y-38200320D01*
X90736771Y-30937500D02*
X90847383Y-31048112D01*
X85045000Y-31025000D02*
X84957500Y-30937500D01*
D90*
X85345000Y-41887500D02*
X85295000Y-41937500D01*
D86*
X85295000Y-39987500D02*
X85345000Y-39937500D01*
X85485000Y-42127500D02*
X85295000Y-41937500D01*
X85007500Y-30937500D02*
X90736771Y-30937500D01*
X86409680Y-38200320D02*
X87562500Y-37047500D01*
X85295000Y-38200320D02*
X85295000Y-41937500D01*
X85295000Y-38200320D02*
X86409680Y-38200320D01*
X87562500Y-37047500D02*
X83885321Y-37047500D01*
X83885321Y-37047500D02*
X83395000Y-37537821D01*
%TO.N,Net-(U1904-1A)*%
X61452684Y-50450000D02*
X60887500Y-50450000D01*
X62597316Y-48550000D02*
X62000000Y-49147316D01*
X62000000Y-49147316D02*
X62000000Y-49902684D01*
X62000000Y-49902684D02*
X61452684Y-50450000D01*
X63162500Y-48550000D02*
X62597316Y-48550000D01*
%TO.N,Net-(D1901-A)*%
X73927684Y-52425000D02*
X65137500Y-52425000D01*
X80662500Y-52000000D02*
X80662500Y-53550000D01*
X80662500Y-52000000D02*
X81850000Y-52000000D01*
X80750000Y-53637500D02*
X79000000Y-53637500D01*
X74725000Y-55122316D02*
X74725000Y-53222316D01*
X81850000Y-52000000D02*
X82750000Y-52900000D01*
X79000000Y-53637500D02*
X77750000Y-54887500D01*
X80662500Y-53550000D02*
X80750000Y-53637500D01*
X74725000Y-53222316D02*
X73927684Y-52425000D01*
X77750000Y-54887500D02*
X77312500Y-55325000D01*
X65137500Y-52425000D02*
X63162500Y-50450000D01*
X74927684Y-55325000D02*
X74725000Y-55122316D01*
X77312500Y-55325000D02*
X74927684Y-55325000D01*
%TO.N,Net-(U1904-1Y)*%
X61540000Y-46375000D02*
X61500000Y-46415000D01*
X60887500Y-48112500D02*
X60887500Y-48197500D01*
X61500000Y-46415000D02*
X61500000Y-47500000D01*
X61500000Y-47500000D02*
X60887500Y-48112500D01*
%TO.N,Net-(D1103-K)*%
D88*
X140620000Y-22852500D02*
X140620000Y-25902500D01*
X140620000Y-25902500D02*
X143570000Y-28852500D01*
%TO.N,Net-(D1101-K)*%
X153245000Y-15137500D02*
X153245000Y-22777500D01*
X153245000Y-22777500D02*
X153320000Y-22852500D01*
%TO.N,Net-(U2003-INP)*%
D86*
X20725000Y-29525000D02*
X21250000Y-29000000D01*
X20077500Y-31800000D02*
X20077500Y-29640000D01*
X19962500Y-29525000D02*
X20725000Y-29525000D01*
X20077500Y-29640000D02*
X19962500Y-29525000D01*
%TO.N,Net-(U1003-Pad6)*%
D85*
X24645000Y-54645000D02*
X24495000Y-54495000D01*
X24495000Y-54495000D02*
X24495000Y-53162262D01*
%TO.N,Net-(U301-IFL_L)*%
X196250000Y-74116116D02*
X196250000Y-74375000D01*
X199906880Y-70640446D02*
X199725670Y-70640446D01*
X199725670Y-70640446D02*
X196250000Y-74116116D01*
%TO.N,Net-(U907-INP)*%
D86*
X90960000Y-38327500D02*
X90820000Y-38187500D01*
X90820000Y-33762500D02*
X91895000Y-32687500D01*
X90960000Y-40487500D02*
X90960000Y-38327500D01*
X90820000Y-38187500D02*
X90820000Y-33762500D01*
%TO.N,Net-(U1001-Pad1)*%
D85*
X27095000Y-54845000D02*
X27395000Y-55145000D01*
X27095000Y-53162262D02*
X27095000Y-54845000D01*
%TO.N,/TSAL_Logik/TS_ON*%
X26445000Y-48695000D02*
X26445000Y-47437262D01*
X27145000Y-49395000D02*
X26445000Y-48695000D01*
%TO.N,/DCDC_AIR/DCDC_AIR_ACTUAL*%
D86*
X70165000Y-46375000D02*
X70165000Y-48252500D01*
X70165000Y-48252500D02*
X70500000Y-48587500D01*
%TO.N,/HV_Measurement_DCDC/V_DCDC*%
X20212500Y-48225000D02*
X20212500Y-46662500D01*
%TO.N,Net-(D1104-K)*%
D89*
X162985000Y-46687500D02*
X165820000Y-43852500D01*
X162557500Y-46687500D02*
X162985000Y-46687500D01*
%TO.N,Net-(D1902-K)*%
D86*
X67220000Y-30390622D02*
X66816878Y-29987500D01*
X64720000Y-29987500D02*
X63770000Y-30937500D01*
X67223122Y-30390622D02*
X67220000Y-30390622D01*
X61857500Y-32850000D02*
X63770000Y-30937500D01*
X66816878Y-29987500D02*
X64720000Y-29987500D01*
X67791250Y-30958750D02*
X67223122Y-30390622D01*
X61857500Y-32937500D02*
X61857500Y-32850000D01*
%TO.N,Net-(D1902-A)*%
X70165000Y-37000000D02*
X67852500Y-34687500D01*
X73527500Y-33637500D02*
X76170000Y-33637500D01*
X65432500Y-34687500D02*
X65432500Y-31775000D01*
X65432500Y-31775000D02*
X66270000Y-30937500D01*
X70165000Y-37000000D02*
X73527500Y-33637500D01*
X67852500Y-34687500D02*
X65432500Y-34687500D01*
%TO.N,Net-(R921-Pad2)*%
X108895000Y-24187500D02*
X108895000Y-20987500D01*
X108895000Y-20987500D02*
X108945000Y-20937500D01*
%TO.N,Net-(D1905-K)*%
X75650000Y-49000000D02*
X75377500Y-49000000D01*
X77350000Y-50000000D02*
X76650000Y-50000000D01*
X75700000Y-51250000D02*
X75700000Y-49050000D01*
X75700000Y-49050000D02*
X75650000Y-49000000D01*
X75377500Y-49000000D02*
X72715000Y-46337500D01*
X76650000Y-50000000D02*
X75650000Y-49000000D01*
%TO.N,+5V_DCDC*%
X12262500Y-29072316D02*
X12809816Y-28525000D01*
X14162500Y-29637500D02*
X15365000Y-29637500D01*
X12262500Y-29637500D02*
X12262500Y-29072316D01*
X13850000Y-28525000D02*
X14162500Y-28837500D01*
X16392500Y-28610000D02*
X16392500Y-25930000D01*
X15365000Y-29637500D02*
X16392500Y-28610000D01*
X14075000Y-29725000D02*
X14162500Y-29637500D01*
X14162500Y-28837500D02*
X14162500Y-29637500D01*
X12809816Y-28525000D02*
X13850000Y-28525000D01*
X16392500Y-25930000D02*
X16212500Y-25750000D01*
X14075000Y-33500000D02*
X14075000Y-29725000D01*
%TO.N,Net-(TH1101-Pad2)*%
D88*
X158420000Y-30152500D02*
X160470000Y-28102500D01*
X151070000Y-30152500D02*
X158420000Y-30152500D01*
%TO.N,/DCDC_AIR/+5V_TS_P_DCDC*%
D86*
X33250000Y-30387500D02*
X33387500Y-30250000D01*
X33250000Y-34000000D02*
X33250000Y-30387500D01*
X32277500Y-31360000D02*
X33387500Y-30250000D01*
X30967500Y-31360000D02*
X32277500Y-31360000D01*
%TO.N,/DCDC_AIR/DCDC_AIR_Enable*%
X81050000Y-49600000D02*
X80650000Y-50000000D01*
X77587501Y-52000000D02*
X75887500Y-53700001D01*
X75887500Y-53700001D02*
X75887500Y-54575000D01*
X80650000Y-50000000D02*
X80650000Y-50187500D01*
X78837500Y-52000000D02*
X77587501Y-52000000D01*
X82750000Y-49600000D02*
X81050000Y-49600000D01*
X80650000Y-50187500D02*
X78837500Y-52000000D01*
%TO.N,Net-(R1905-Pad1)*%
X58912500Y-46462500D02*
X59000000Y-46375000D01*
X58912500Y-48750000D02*
X58912500Y-46462500D01*
%TO.N,Net-(R1904-Pad2)*%
X65432500Y-36687500D02*
X67312500Y-36687500D01*
X67312500Y-36687500D02*
X67625000Y-37000000D01*
%TO.N,+3.3V_ACCU*%
X84957500Y-32437500D02*
X84957500Y-35587820D01*
X86082820Y-35137500D02*
X85295000Y-35925320D01*
X88845000Y-35137500D02*
X89690000Y-35982500D01*
X84957500Y-35587820D02*
X85295000Y-35925320D01*
X89690000Y-35982500D02*
X89690000Y-40487500D01*
X88845000Y-35137500D02*
X86082820Y-35137500D01*
%TO.N,+3.3V_DCDC*%
X20662500Y-26250000D02*
X19912500Y-25500000D01*
X18807500Y-28057500D02*
X18000000Y-27250000D01*
X15250000Y-27250000D02*
X14275000Y-27250000D01*
X21250000Y-26250000D02*
X20662500Y-26250000D01*
X19737500Y-25325000D02*
X19912500Y-25500000D01*
X19737500Y-23750000D02*
X19737500Y-25325000D01*
X14075000Y-27275000D02*
X14162500Y-27362500D01*
X18807500Y-31800000D02*
X18807500Y-28057500D01*
X14275000Y-27250000D02*
X14162500Y-27362500D01*
X14075000Y-23500000D02*
X14075000Y-27275000D01*
%TO.N,Net-(U910-OUT)*%
X108510000Y-56910000D02*
X108395000Y-57025000D01*
X108510000Y-54887500D02*
X108510000Y-56910000D01*
%TO.N,Net-(R1902-Pad2)*%
X59000000Y-36087501D02*
X59000000Y-37000000D01*
X63157500Y-34237500D02*
X60850001Y-34237500D01*
X63607500Y-34687500D02*
X63157500Y-34237500D01*
X63607500Y-33012500D02*
X63682500Y-32937500D01*
X63607500Y-34687500D02*
X63607500Y-33012500D01*
X60850001Y-34237500D02*
X59000000Y-36087501D01*
%TO.N,+3.3V_VEHI*%
X107620000Y-37437500D02*
X107620000Y-39012500D01*
X103345000Y-38837500D02*
X101445000Y-36937500D01*
X101445000Y-36937500D02*
X101445000Y-35025000D01*
X107620000Y-39012500D02*
X107195000Y-39437500D01*
X103345000Y-39050000D02*
X103345000Y-38837500D01*
X107240000Y-39482500D02*
X107195000Y-39437500D01*
X106807500Y-39050000D02*
X107195000Y-39437500D01*
X103345000Y-39050000D02*
X106807500Y-39050000D01*
X107240000Y-43987500D02*
X107240000Y-39482500D01*
X101445000Y-35025000D02*
X101532500Y-34937500D01*
%TO.N,Net-(U907-OUT)*%
X90960000Y-51387500D02*
X90960000Y-54160000D01*
X90960000Y-54160000D02*
X90845000Y-54275000D01*
%TO.N,Net-(R1109-Pad2)*%
D89*
X160625000Y-49000000D02*
X160625000Y-46795000D01*
X160625000Y-46795000D02*
X160732500Y-46687500D01*
%TO.N,Net-(U2003-OUT)*%
D86*
X20077500Y-42700000D02*
X20077500Y-44702500D01*
X20077500Y-44702500D02*
X20212500Y-44837500D01*
%TO.N,Net-(D1903-K)*%
X61540000Y-35290000D02*
X61250000Y-35000000D01*
X61540000Y-37000000D02*
X61540000Y-35290000D01*
X61852500Y-36687500D02*
X61540000Y-37000000D01*
X63607500Y-36687500D02*
X61852500Y-36687500D01*
%TD*%
M02*
