%TF.GenerationSoftware,KiCad,Pcbnew,10.0.3*%
%TF.CreationDate,2026-08-01T18:23:17+02:00*%
%TF.ProjectId,Pack_Controller,5061636b-5f43-46f6-9e74-726f6c6c6572,rev?*%
%TF.SameCoordinates,Original*%
%TF.FileFunction,Paste,Top*%
%TF.FilePolarity,Positive*%
%FSLAX46Y46*%
G04 Gerber Fmt 4.6, Leading zero omitted, Abs format (unit mm)*
G04 Created by KiCad (PCBNEW 10.0.3) date 2026-08-01 18:23:17*
%MOMM*%
%LPD*%
G01*
G04 APERTURE LIST*
G04 Aperture macros list*
%AMRoundRect*
0 Rectangle with rounded corners*
0 $1 Rounding radius*
0 $2 $3 $4 $5 $6 $7 $8 $9 X,Y pos of 4 corners*
0 Add a 4 corners polygon primitive as box body*
4,1,4,$2,$3,$4,$5,$6,$7,$8,$9,$2,$3,0*
0 Add four circle primitives for the rounded corners*
1,1,$1+$1,$2,$3*
1,1,$1+$1,$4,$5*
1,1,$1+$1,$6,$7*
1,1,$1+$1,$8,$9*
0 Add four rect primitives between the rounded corners*
20,1,$1+$1,$2,$3,$4,$5,0*
20,1,$1+$1,$4,$5,$6,$7,0*
20,1,$1+$1,$6,$7,$8,$9,0*
20,1,$1+$1,$8,$9,$2,$3,0*%
G04 Aperture macros list end*
%ADD10RoundRect,0.250000X-0.450000X0.325000X-0.450000X-0.325000X0.450000X-0.325000X0.450000X0.325000X0*%
%ADD11RoundRect,0.150000X-0.150000X0.587500X-0.150000X-0.587500X0.150000X-0.587500X0.150000X0.587500X0*%
%ADD12RoundRect,0.250000X0.475000X-0.337500X0.475000X0.337500X-0.475000X0.337500X-0.475000X-0.337500X0*%
%ADD13RoundRect,0.237500X0.250000X0.237500X-0.250000X0.237500X-0.250000X-0.237500X0.250000X-0.237500X0*%
%ADD14RoundRect,0.237500X0.237500X-0.250000X0.237500X0.250000X-0.237500X0.250000X-0.237500X-0.250000X0*%
%ADD15RoundRect,0.225000X0.375000X-0.225000X0.375000X0.225000X-0.375000X0.225000X-0.375000X-0.225000X0*%
%ADD16RoundRect,0.087500X-0.537500X-0.087500X0.537500X-0.087500X0.537500X0.087500X-0.537500X0.087500X0*%
%ADD17RoundRect,0.250000X0.250000X0.250000X-0.250000X0.250000X-0.250000X-0.250000X0.250000X-0.250000X0*%
%ADD18RoundRect,0.200000X-0.200000X-0.275000X0.200000X-0.275000X0.200000X0.275000X-0.200000X0.275000X0*%
%ADD19RoundRect,0.150000X-0.150000X0.825000X-0.150000X-0.825000X0.150000X-0.825000X0.150000X0.825000X0*%
%ADD20RoundRect,0.237500X-0.250000X-0.237500X0.250000X-0.237500X0.250000X0.237500X-0.250000X0.237500X0*%
%ADD21RoundRect,0.237500X-0.237500X0.250000X-0.237500X-0.250000X0.237500X-0.250000X0.237500X0.250000X0*%
%ADD22RoundRect,0.237500X-0.300000X-0.237500X0.300000X-0.237500X0.300000X0.237500X-0.300000X0.237500X0*%
%ADD23RoundRect,0.200000X0.200000X0.275000X-0.200000X0.275000X-0.200000X-0.275000X0.200000X-0.275000X0*%
%ADD24RoundRect,0.250000X0.475000X-0.250000X0.475000X0.250000X-0.475000X0.250000X-0.475000X-0.250000X0*%
%ADD25RoundRect,0.237500X-0.237500X0.300000X-0.237500X-0.300000X0.237500X-0.300000X0.237500X0.300000X0*%
%ADD26RoundRect,0.225000X-0.375000X0.225000X-0.375000X-0.225000X0.375000X-0.225000X0.375000X0.225000X0*%
%ADD27RoundRect,0.225000X-0.225000X-0.250000X0.225000X-0.250000X0.225000X0.250000X-0.225000X0.250000X0*%
%ADD28RoundRect,0.237500X0.237500X-0.300000X0.237500X0.300000X-0.237500X0.300000X-0.237500X-0.300000X0*%
%ADD29RoundRect,0.225000X0.225000X0.375000X-0.225000X0.375000X-0.225000X-0.375000X0.225000X-0.375000X0*%
%ADD30RoundRect,0.112500X-0.187500X-0.112500X0.187500X-0.112500X0.187500X0.112500X-0.187500X0.112500X0*%
%ADD31RoundRect,0.150000X0.150000X-0.512500X0.150000X0.512500X-0.150000X0.512500X-0.150000X-0.512500X0*%
%ADD32RoundRect,0.249999X0.450001X1.425001X-0.450001X1.425001X-0.450001X-1.425001X0.450001X-1.425001X0*%
%ADD33RoundRect,0.150000X0.825000X0.150000X-0.825000X0.150000X-0.825000X-0.150000X0.825000X-0.150000X0*%
%ADD34RoundRect,0.200000X-0.275000X0.200000X-0.275000X-0.200000X0.275000X-0.200000X0.275000X0.200000X0*%
%ADD35RoundRect,0.249999X-1.425001X0.450001X-1.425001X-0.450001X1.425001X-0.450001X1.425001X0.450001X0*%
%ADD36RoundRect,0.250000X-0.650000X0.325000X-0.650000X-0.325000X0.650000X-0.325000X0.650000X0.325000X0*%
%ADD37RoundRect,0.150000X-0.512500X-0.150000X0.512500X-0.150000X0.512500X0.150000X-0.512500X0.150000X0*%
%ADD38R,1.000000X2.200000*%
%ADD39RoundRect,0.250000X0.325000X0.450000X-0.325000X0.450000X-0.325000X-0.450000X0.325000X-0.450000X0*%
%ADD40RoundRect,0.225000X0.225000X0.250000X-0.225000X0.250000X-0.225000X-0.250000X0.225000X-0.250000X0*%
%ADD41RoundRect,0.087500X-0.425000X-0.087500X0.425000X-0.087500X0.425000X0.087500X-0.425000X0.087500X0*%
%ADD42RoundRect,0.250000X0.650000X-0.325000X0.650000X0.325000X-0.650000X0.325000X-0.650000X-0.325000X0*%
%ADD43RoundRect,0.249999X-0.450001X-1.425001X0.450001X-1.425001X0.450001X1.425001X-0.450001X1.425001X0*%
%ADD44RoundRect,0.150000X-0.825000X-0.150000X0.825000X-0.150000X0.825000X0.150000X-0.825000X0.150000X0*%
%ADD45RoundRect,0.250000X1.000000X0.650000X-1.000000X0.650000X-1.000000X-0.650000X1.000000X-0.650000X0*%
%ADD46RoundRect,0.150000X-0.587500X-0.150000X0.587500X-0.150000X0.587500X0.150000X-0.587500X0.150000X0*%
%ADD47RoundRect,0.250000X-0.262500X-0.450000X0.262500X-0.450000X0.262500X0.450000X-0.262500X0.450000X0*%
%ADD48RoundRect,0.225000X-0.225000X-0.375000X0.225000X-0.375000X0.225000X0.375000X-0.225000X0.375000X0*%
%ADD49RoundRect,0.250000X2.375000X-2.025000X2.375000X2.025000X-2.375000X2.025000X-2.375000X-2.025000X0*%
%ADD50RoundRect,0.400000X0.400000X-1.100000X0.400000X1.100000X-0.400000X1.100000X-0.400000X-1.100000X0*%
%ADD51RoundRect,0.075000X-0.075000X0.725000X-0.075000X-0.725000X0.075000X-0.725000X0.075000X0.725000X0*%
%ADD52RoundRect,0.075000X-0.725000X0.075000X-0.725000X-0.075000X0.725000X-0.075000X0.725000X0.075000X0*%
%ADD53RoundRect,0.162500X0.162500X-0.750000X0.162500X0.750000X-0.162500X0.750000X-0.162500X-0.750000X0*%
%ADD54RoundRect,0.250000X-1.125000X1.275000X-1.125000X-1.275000X1.125000X-1.275000X1.125000X1.275000X0*%
%ADD55RoundRect,0.250000X-0.350000X0.850000X-0.350000X-0.850000X0.350000X-0.850000X0.350000X0.850000X0*%
%ADD56RoundRect,0.250000X2.025000X2.375000X-2.025000X2.375000X-2.025000X-2.375000X2.025000X-2.375000X0*%
%ADD57RoundRect,0.400000X1.100000X0.400000X-1.100000X0.400000X-1.100000X-0.400000X1.100000X-0.400000X0*%
%ADD58RoundRect,0.200000X0.275000X-0.200000X0.275000X0.200000X-0.275000X0.200000X-0.275000X-0.200000X0*%
%ADD59RoundRect,0.225000X0.250000X-0.225000X0.250000X0.225000X-0.250000X0.225000X-0.250000X-0.225000X0*%
%ADD60RoundRect,0.250000X0.250000X0.475000X-0.250000X0.475000X-0.250000X-0.475000X0.250000X-0.475000X0*%
%ADD61RoundRect,0.250000X-0.255000X0.255000X-0.255000X-0.255000X0.255000X-0.255000X0.255000X0.255000X0*%
%ADD62RoundRect,0.075000X-0.075000X0.662500X-0.075000X-0.662500X0.075000X-0.662500X0.075000X0.662500X0*%
%ADD63RoundRect,0.075000X-0.662500X0.075000X-0.662500X-0.075000X0.662500X-0.075000X0.662500X0.075000X0*%
%ADD64RoundRect,0.250000X0.312500X0.625000X-0.312500X0.625000X-0.312500X-0.625000X0.312500X-0.625000X0*%
%ADD65R,1.000000X0.900000*%
%ADD66RoundRect,0.150000X0.512500X0.150000X-0.512500X0.150000X-0.512500X-0.150000X0.512500X-0.150000X0*%
%ADD67RoundRect,0.250000X-0.450000X0.262500X-0.450000X-0.262500X0.450000X-0.262500X0.450000X0.262500X0*%
%ADD68RoundRect,0.250000X-0.312500X-0.625000X0.312500X-0.625000X0.312500X0.625000X-0.312500X0.625000X0*%
%ADD69RoundRect,0.250000X-0.350000X-0.450000X0.350000X-0.450000X0.350000X0.450000X-0.350000X0.450000X0*%
%ADD70RoundRect,0.237500X0.300000X0.237500X-0.300000X0.237500X-0.300000X-0.237500X0.300000X-0.237500X0*%
%ADD71RoundRect,0.225000X-0.250000X0.225000X-0.250000X-0.225000X0.250000X-0.225000X0.250000X0.225000X0*%
G04 APERTURE END LIST*
D10*
%TO.C,Heart201*%
X65500000Y-56775000D03*
X65500000Y-54725000D03*
%TD*%
D11*
%TO.C,U201*%
X73500000Y-73937500D03*
X72550000Y-72062500D03*
X74450000Y-72062500D03*
%TD*%
D10*
%TO.C,Error201*%
X63500000Y-56775000D03*
X63500000Y-54725000D03*
%TD*%
D12*
%TO.C,C207*%
X47500000Y-71712500D03*
X47500000Y-73787500D03*
%TD*%
D13*
%TO.C,R216*%
X49087500Y-75750000D03*
X50912500Y-75750000D03*
%TD*%
D14*
%TO.C,R213*%
X59000000Y-78837500D03*
X59000000Y-80662500D03*
%TD*%
D15*
%TO.C,D205*%
X59500000Y-82100000D03*
X59500000Y-85400000D03*
%TD*%
%TO.C,D206*%
X57000000Y-82100000D03*
X57000000Y-85400000D03*
%TD*%
%TO.C,D207*%
X54500000Y-82100000D03*
X54500000Y-85400000D03*
%TD*%
D16*
%TO.C,U203*%
X52400000Y-80750000D03*
X52400000Y-81250000D03*
X52400000Y-81750000D03*
X52400000Y-82250000D03*
X49600000Y-82250000D03*
X49600000Y-81750000D03*
X49600000Y-81250000D03*
X49600000Y-80750000D03*
%TD*%
D17*
%TO.C,D202*%
X46750000Y-67000000D03*
X44250000Y-67000000D03*
%TD*%
D18*
%TO.C,R311*%
X200675000Y-59000000D03*
X202325000Y-59000000D03*
%TD*%
%TO.C,R1104*%
X153925000Y-72000000D03*
X155575000Y-72000000D03*
%TD*%
D17*
%TO.C,D102*%
X95500000Y-74000000D03*
X93000000Y-74000000D03*
%TD*%
D19*
%TO.C,U1002*%
X28955000Y-47920000D03*
X27685000Y-47920000D03*
X26415000Y-47920000D03*
X25145000Y-47920000D03*
X23875000Y-47920000D03*
X22605000Y-47920000D03*
X21335000Y-47920000D03*
X21335000Y-52870000D03*
X22605000Y-52870000D03*
X23875000Y-52870000D03*
X25145000Y-52870000D03*
X26415000Y-52870000D03*
X27685000Y-52870000D03*
X28955000Y-52870000D03*
%TD*%
D20*
%TO.C,R1503*%
X96067500Y-146035000D03*
X97892500Y-146035000D03*
%TD*%
D13*
%TO.C,R909*%
X115412500Y-66250000D03*
X113587500Y-66250000D03*
%TD*%
D20*
%TO.C,R1705*%
X111087500Y-155770000D03*
X112912500Y-155770000D03*
%TD*%
D21*
%TO.C,R218*%
X62000000Y-78837500D03*
X62000000Y-80662500D03*
%TD*%
D11*
%TO.C,Q202*%
X49450000Y-85562500D03*
X47550000Y-85562500D03*
X48500000Y-87437500D03*
%TD*%
D22*
%TO.C,C212*%
X55387500Y-56750000D03*
X57112500Y-56750000D03*
%TD*%
%TO.C,C1401*%
X87417500Y-146035000D03*
X89142500Y-146035000D03*
%TD*%
D23*
%TO.C,R1102*%
X160325000Y-68000000D03*
X158675000Y-68000000D03*
%TD*%
D21*
%TO.C,R209*%
X63500000Y-78837500D03*
X63500000Y-80662500D03*
%TD*%
D20*
%TO.C,R917*%
X99587500Y-59750000D03*
X101412500Y-59750000D03*
%TD*%
D21*
%TO.C,R1116*%
X171990000Y-64337500D03*
X171990000Y-66162500D03*
%TD*%
D22*
%TO.C,C213*%
X50137500Y-79500000D03*
X51862500Y-79500000D03*
%TD*%
D14*
%TO.C,R212*%
X61750000Y-55162500D03*
X61750000Y-53337500D03*
%TD*%
D24*
%TO.C,C1106*%
X127345000Y-65302500D03*
X127345000Y-63402500D03*
%TD*%
D25*
%TO.C,C210*%
X44000000Y-68887500D03*
X44000000Y-70612500D03*
%TD*%
D26*
%TO.C,D1107*%
X162500000Y-63850000D03*
X162500000Y-67150000D03*
%TD*%
D18*
%TO.C,R1005*%
X38570000Y-63145000D03*
X40220000Y-63145000D03*
%TD*%
D27*
%TO.C,C1002*%
X40870000Y-59145000D03*
X42420000Y-59145000D03*
%TD*%
D20*
%TO.C,R1703*%
X111087500Y-153260000D03*
X112912500Y-153260000D03*
%TD*%
D28*
%TO.C,C1107*%
X166990000Y-66112500D03*
X166990000Y-64387500D03*
%TD*%
D29*
%TO.C,D1105*%
X160400000Y-64000000D03*
X157100000Y-64000000D03*
%TD*%
D20*
%TO.C,R915*%
X99587500Y-62000000D03*
X101412500Y-62000000D03*
%TD*%
D22*
%TO.C,C1301*%
X87417500Y-143525000D03*
X89142500Y-143525000D03*
%TD*%
D30*
%TO.C,D1301*%
X87225000Y-128995000D03*
X89325000Y-128995000D03*
%TD*%
D31*
%TO.C,U1007*%
X37695000Y-58782500D03*
X38645000Y-58782500D03*
X39595000Y-58782500D03*
X39595000Y-56507500D03*
X38645000Y-56507500D03*
X37695000Y-56507500D03*
%TD*%
D13*
%TO.C,R203*%
X75912500Y-65250000D03*
X74087500Y-65250000D03*
%TD*%
D32*
%TO.C,R926*%
X125445000Y-23102500D03*
X119345000Y-23102500D03*
%TD*%
D20*
%TO.C,R1301*%
X91717500Y-143525000D03*
X93542500Y-143525000D03*
%TD*%
D33*
%TO.C,U901*%
X109725000Y-67310000D03*
X109725000Y-66040000D03*
X109725000Y-64770000D03*
X109725000Y-63500000D03*
X109725000Y-62230000D03*
X109725000Y-60960000D03*
X109725000Y-59690000D03*
X104775000Y-59690000D03*
X104775000Y-60960000D03*
X104775000Y-62230000D03*
X104775000Y-63500000D03*
X104775000Y-64770000D03*
X104775000Y-66040000D03*
X104775000Y-67310000D03*
%TD*%
D34*
%TO.C,R301*%
X215600000Y-63100000D03*
X215600000Y-64750000D03*
%TD*%
D35*
%TO.C,R927*%
X116395000Y-24837500D03*
X116395000Y-30937500D03*
%TD*%
D22*
%TO.C,C208*%
X73887500Y-63000000D03*
X75612500Y-63000000D03*
%TD*%
D13*
%TO.C,R1107*%
X167382500Y-37852500D03*
X165557500Y-37852500D03*
%TD*%
D36*
%TO.C,C304*%
X203000000Y-66025000D03*
X203000000Y-68975000D03*
%TD*%
D22*
%TO.C,C1701*%
X111137500Y-140710000D03*
X112862500Y-140710000D03*
%TD*%
D37*
%TO.C,Q1101*%
X161612500Y-69300000D03*
X161612500Y-71200000D03*
X163887500Y-70250000D03*
%TD*%
D13*
%TO.C,R908*%
X115412500Y-64000000D03*
X113587500Y-64000000D03*
%TD*%
D28*
%TO.C,C1108*%
X168750000Y-66112500D03*
X168750000Y-64387500D03*
%TD*%
D30*
%TO.C,D1502*%
X87225000Y-137845000D03*
X89325000Y-137845000D03*
%TD*%
D13*
%TO.C,R901*%
X115412500Y-61000000D03*
X113587500Y-61000000D03*
%TD*%
D20*
%TO.C,R1401*%
X91717500Y-148545000D03*
X93542500Y-148545000D03*
%TD*%
D38*
%TO.C,T302*%
X184290000Y-46905000D03*
X181750000Y-46905000D03*
X179210000Y-46905000D03*
X179210000Y-60595000D03*
X181750000Y-60595000D03*
X184290000Y-60595000D03*
%TD*%
D27*
%TO.C,C1001*%
X35620000Y-62395000D03*
X37170000Y-62395000D03*
%TD*%
D39*
%TO.C,3V3Good1801*%
X121025000Y-75250000D03*
X118975000Y-75250000D03*
%TD*%
D34*
%TO.C,R303*%
X182500000Y-69175000D03*
X182500000Y-70825000D03*
%TD*%
D22*
%TO.C,C204*%
X66387500Y-60500000D03*
X68112500Y-60500000D03*
%TD*%
D40*
%TO.C,C1005*%
X19645000Y-52875000D03*
X18095000Y-52875000D03*
%TD*%
D18*
%TO.C,R306*%
X180925000Y-62750000D03*
X182575000Y-62750000D03*
%TD*%
D20*
%TO.C,R1605*%
X111087500Y-148240000D03*
X112912500Y-148240000D03*
%TD*%
%TO.C,R1003*%
X13707500Y-63875000D03*
X15532500Y-63875000D03*
%TD*%
D41*
%TO.C,U1004*%
X10282500Y-58225000D03*
X10282500Y-58875000D03*
X10282500Y-59525000D03*
X11957500Y-59525000D03*
X11957500Y-58225000D03*
%TD*%
D42*
%TO.C,C308*%
X184500000Y-65725000D03*
X184500000Y-62775000D03*
%TD*%
D23*
%TO.C,R313*%
X209075000Y-69500000D03*
X207425000Y-69500000D03*
%TD*%
D42*
%TO.C,C306*%
X196000000Y-70475000D03*
X196000000Y-67525000D03*
%TD*%
D43*
%TO.C,R2005*%
X14700000Y-20250000D03*
X20800000Y-20250000D03*
%TD*%
D15*
%TO.C,D209*%
X51500000Y-86900000D03*
X51500000Y-83600000D03*
%TD*%
D35*
%TO.C,R2004*%
X13000000Y-10700000D03*
X13000000Y-16800000D03*
%TD*%
D42*
%TO.C,C311*%
X179000000Y-70475000D03*
X179000000Y-67525000D03*
%TD*%
D36*
%TO.C,C302*%
X213750000Y-68275000D03*
X213750000Y-71225000D03*
%TD*%
D44*
%TO.C,U1003*%
X14145000Y-54565000D03*
X14145000Y-55835000D03*
X14145000Y-57105000D03*
X14145000Y-58375000D03*
X14145000Y-59645000D03*
X14145000Y-60915000D03*
X14145000Y-62185000D03*
X19095000Y-62185000D03*
X19095000Y-60915000D03*
X19095000Y-59645000D03*
X19095000Y-58375000D03*
X19095000Y-57105000D03*
X19095000Y-55835000D03*
X19095000Y-54565000D03*
%TD*%
D45*
%TO.C,D103*%
X94250000Y-78250000D03*
X90250000Y-78250000D03*
%TD*%
D20*
%TO.C,R1602*%
X111087500Y-143220000D03*
X112912500Y-143220000D03*
%TD*%
D34*
%TO.C,R403*%
X28000000Y-85755000D03*
X28000000Y-87405000D03*
%TD*%
D18*
%TO.C,R304*%
X192425000Y-44500000D03*
X194075000Y-44500000D03*
%TD*%
D13*
%TO.C,R201*%
X45412500Y-65250000D03*
X43587500Y-65250000D03*
%TD*%
D20*
%TO.C,R202*%
X46837500Y-65250000D03*
X48662500Y-65250000D03*
%TD*%
D34*
%TO.C,R310*%
X210500000Y-64425000D03*
X210500000Y-66075000D03*
%TD*%
D40*
%TO.C,C901*%
X107775000Y-67750000D03*
X106225000Y-67750000D03*
%TD*%
D13*
%TO.C,R1106*%
X170882500Y-37852500D03*
X169057500Y-37852500D03*
%TD*%
D34*
%TO.C,R309*%
X181000000Y-69175000D03*
X181000000Y-70825000D03*
%TD*%
D35*
%TO.C,R2006*%
X23712500Y-23200000D03*
X23712500Y-29300000D03*
%TD*%
D42*
%TO.C,C310*%
X190500000Y-70475000D03*
X190500000Y-67525000D03*
%TD*%
D21*
%TO.C,R204*%
X42500000Y-68837500D03*
X42500000Y-70662500D03*
%TD*%
D34*
%TO.C,R404*%
X34500000Y-84255000D03*
X34500000Y-85905000D03*
%TD*%
D23*
%TO.C,R408*%
X29575000Y-84330000D03*
X27925000Y-84330000D03*
%TD*%
D46*
%TO.C,Q1002*%
X14182500Y-65425000D03*
X14182500Y-67325000D03*
X16057500Y-66375000D03*
%TD*%
D47*
%TO.C,R1108*%
X173337500Y-58500000D03*
X175162500Y-58500000D03*
%TD*%
D48*
%TO.C,D204*%
X54100000Y-80250000D03*
X57400000Y-80250000D03*
%TD*%
D20*
%TO.C,R1502*%
X96067500Y-143525000D03*
X97892500Y-143525000D03*
%TD*%
%TO.C,R1603*%
X111087500Y-145730000D03*
X112912500Y-145730000D03*
%TD*%
D35*
%TO.C,R923*%
X94895000Y-31137500D03*
X94895000Y-37237500D03*
%TD*%
D15*
%TO.C,D201*%
X74500000Y-70150000D03*
X74500000Y-66850000D03*
%TD*%
D49*
%TO.C,Q1102*%
X169485000Y-23752500D03*
X175035000Y-23752500D03*
X169485000Y-18902500D03*
X175035000Y-18902500D03*
D50*
X169720000Y-31602500D03*
X174800000Y-31602500D03*
%TD*%
D20*
%TO.C,R1001*%
X15957500Y-68875000D03*
X17782500Y-68875000D03*
%TD*%
D18*
%TO.C,R305*%
X192425000Y-62750000D03*
X194075000Y-62750000D03*
%TD*%
D19*
%TO.C,U401*%
X34560000Y-77355000D03*
X33290000Y-77355000D03*
X32020000Y-77355000D03*
X30750000Y-77355000D03*
X29480000Y-77355000D03*
X28210000Y-77355000D03*
X26940000Y-77355000D03*
X26940000Y-82305000D03*
X28210000Y-82305000D03*
X29480000Y-82305000D03*
X30750000Y-82305000D03*
X32020000Y-82305000D03*
X33290000Y-82305000D03*
X34560000Y-82305000D03*
%TD*%
D20*
%TO.C,R1504*%
X96067500Y-148545000D03*
X97892500Y-148545000D03*
%TD*%
%TO.C,R1501*%
X91717500Y-153565000D03*
X93542500Y-153565000D03*
%TD*%
D51*
%TO.C,U204*%
X64250000Y-60075000D03*
X63750000Y-60075000D03*
X63250000Y-60075000D03*
X62750000Y-60075000D03*
X62250000Y-60075000D03*
X61750000Y-60075000D03*
X61250000Y-60075000D03*
X60750000Y-60075000D03*
X60250000Y-60075000D03*
X59750000Y-60075000D03*
X59250000Y-60075000D03*
X58750000Y-60075000D03*
X58250000Y-60075000D03*
X57750000Y-60075000D03*
X57250000Y-60075000D03*
X56750000Y-60075000D03*
X56250000Y-60075000D03*
X55750000Y-60075000D03*
X55250000Y-60075000D03*
X54750000Y-60075000D03*
X54250000Y-60075000D03*
X53750000Y-60075000D03*
X53250000Y-60075000D03*
X52750000Y-60075000D03*
X52250000Y-60075000D03*
D52*
X50575000Y-61750000D03*
X50575000Y-62250000D03*
X50575000Y-62750000D03*
X50575000Y-63250000D03*
X50575000Y-63750000D03*
X50575000Y-64250000D03*
X50575000Y-64750000D03*
X50575000Y-65250000D03*
X50575000Y-65750000D03*
X50575000Y-66250000D03*
X50575000Y-66750000D03*
X50575000Y-67250000D03*
X50575000Y-67750000D03*
X50575000Y-68250000D03*
X50575000Y-68750000D03*
X50575000Y-69250000D03*
X50575000Y-69750000D03*
X50575000Y-70250000D03*
X50575000Y-70750000D03*
X50575000Y-71250000D03*
X50575000Y-71750000D03*
X50575000Y-72250000D03*
X50575000Y-72750000D03*
X50575000Y-73250000D03*
X50575000Y-73750000D03*
D51*
X52250000Y-75425000D03*
X52750000Y-75425000D03*
X53250000Y-75425000D03*
X53750000Y-75425000D03*
X54250000Y-75425000D03*
X54750000Y-75425000D03*
X55250000Y-75425000D03*
X55750000Y-75425000D03*
X56250000Y-75425000D03*
X56750000Y-75425000D03*
X57250000Y-75425000D03*
X57750000Y-75425000D03*
X58250000Y-75425000D03*
X58750000Y-75425000D03*
X59250000Y-75425000D03*
X59750000Y-75425000D03*
X60250000Y-75425000D03*
X60750000Y-75425000D03*
X61250000Y-75425000D03*
X61750000Y-75425000D03*
X62250000Y-75425000D03*
X62750000Y-75425000D03*
X63250000Y-75425000D03*
X63750000Y-75425000D03*
X64250000Y-75425000D03*
D52*
X65925000Y-73750000D03*
X65925000Y-73250000D03*
X65925000Y-72750000D03*
X65925000Y-72250000D03*
X65925000Y-71750000D03*
X65925000Y-71250000D03*
X65925000Y-70750000D03*
X65925000Y-70250000D03*
X65925000Y-69750000D03*
X65925000Y-69250000D03*
X65925000Y-68750000D03*
X65925000Y-68250000D03*
X65925000Y-67750000D03*
X65925000Y-67250000D03*
X65925000Y-66750000D03*
X65925000Y-66250000D03*
X65925000Y-65750000D03*
X65925000Y-65250000D03*
X65925000Y-64750000D03*
X65925000Y-64250000D03*
X65925000Y-63750000D03*
X65925000Y-63250000D03*
X65925000Y-62750000D03*
X65925000Y-62250000D03*
X65925000Y-61750000D03*
%TD*%
D22*
%TO.C,C1502*%
X87417500Y-151055000D03*
X89142500Y-151055000D03*
%TD*%
D20*
%TO.C,R1002*%
X17207500Y-63875000D03*
X19032500Y-63875000D03*
%TD*%
D53*
%TO.C,U1101*%
X169375000Y-58125000D03*
X171915000Y-58125000D03*
X171915000Y-48750000D03*
X169375000Y-48750000D03*
%TD*%
D54*
%TO.C,Q1902*%
X83972500Y-26362500D03*
X80922500Y-26362500D03*
X83972500Y-29712500D03*
X80922500Y-29712500D03*
D55*
X84727500Y-21737500D03*
X80167500Y-21737500D03*
%TD*%
D36*
%TO.C,C301*%
X213600000Y-63200000D03*
X213600000Y-66150000D03*
%TD*%
D32*
%TO.C,R922*%
X107695000Y-32187500D03*
X101595000Y-32187500D03*
%TD*%
D13*
%TO.C,R219*%
X46912500Y-62750000D03*
X45087500Y-62750000D03*
%TD*%
D56*
%TO.C,Q1901*%
X63525000Y-27775000D03*
X63525000Y-22225000D03*
X58675000Y-27775000D03*
X58675000Y-22225000D03*
D57*
X71375000Y-27540000D03*
X71375000Y-22460000D03*
%TD*%
D58*
%TO.C,R1101*%
X159750000Y-71075000D03*
X159750000Y-69425000D03*
%TD*%
D59*
%TO.C,C401*%
X31250000Y-74775000D03*
X31250000Y-73225000D03*
%TD*%
D27*
%TO.C,C1004*%
X33370000Y-56645000D03*
X34920000Y-56645000D03*
%TD*%
D36*
%TO.C,C101*%
X99250000Y-76775000D03*
X99250000Y-79725000D03*
%TD*%
D42*
%TO.C,C316*%
X187500000Y-67975000D03*
X187500000Y-65025000D03*
%TD*%
D37*
%TO.C,U1104*%
X168862500Y-60800000D03*
X168862500Y-61750000D03*
X168862500Y-62700000D03*
X171137500Y-62700000D03*
X171137500Y-61750000D03*
X171137500Y-60800000D03*
%TD*%
D18*
%TO.C,R1006*%
X35820000Y-60895000D03*
X37470000Y-60895000D03*
%TD*%
D14*
%TO.C,R210*%
X65500000Y-53162500D03*
X65500000Y-51337500D03*
%TD*%
D40*
%TO.C,C1008*%
X30920000Y-55395000D03*
X29370000Y-55395000D03*
%TD*%
D22*
%TO.C,C205*%
X51887500Y-56750000D03*
X53612500Y-56750000D03*
%TD*%
D28*
%TO.C,C1109*%
X170490000Y-66112500D03*
X170490000Y-64387500D03*
%TD*%
D20*
%TO.C,R214*%
X53587500Y-87000000D03*
X55412500Y-87000000D03*
%TD*%
D42*
%TO.C,C315*%
X176500000Y-70475000D03*
X176500000Y-67525000D03*
%TD*%
D48*
%TO.C,D203*%
X69350000Y-66500000D03*
X72650000Y-66500000D03*
%TD*%
D60*
%TO.C,C1105*%
X128045000Y-51637500D03*
X126145000Y-51637500D03*
%TD*%
D61*
%TO.C,U301*%
X210125000Y-56375000D03*
X208875000Y-56375000D03*
X207625000Y-56375000D03*
X206375000Y-56375000D03*
X210125000Y-57625000D03*
X208875000Y-57625000D03*
X207625000Y-57625000D03*
X206375000Y-57625000D03*
X210125000Y-58875000D03*
X208875000Y-58875000D03*
X207625000Y-58875000D03*
X206375000Y-58875000D03*
X210125000Y-60125000D03*
X208875000Y-60125000D03*
X207625000Y-60125000D03*
X206375000Y-60125000D03*
D62*
X211000000Y-54087500D03*
X210500000Y-54087500D03*
X210000000Y-54087500D03*
X209500000Y-54087500D03*
X209000000Y-54087500D03*
X208500000Y-54087500D03*
X208000000Y-54087500D03*
X207500000Y-54087500D03*
X207000000Y-54087500D03*
X206500000Y-54087500D03*
X206000000Y-54087500D03*
X205500000Y-54087500D03*
D63*
X204087500Y-55500000D03*
X204087500Y-56000000D03*
X204087500Y-56500000D03*
X204087500Y-57000000D03*
X204087500Y-57500000D03*
X204087500Y-58000000D03*
X204087500Y-58500000D03*
X204087500Y-59000000D03*
X204087500Y-59500000D03*
X204087500Y-60000000D03*
X204087500Y-60500000D03*
X204087500Y-61000000D03*
D62*
X205500000Y-62412500D03*
X206000000Y-62412500D03*
X206500000Y-62412500D03*
X207000000Y-62412500D03*
X207500000Y-62412500D03*
X208000000Y-62412500D03*
X208500000Y-62412500D03*
X209000000Y-62412500D03*
X209500000Y-62412500D03*
X210000000Y-62412500D03*
X210500000Y-62412500D03*
X211000000Y-62412500D03*
D63*
X212412500Y-61000000D03*
X212412500Y-60500000D03*
X212412500Y-60000000D03*
X212412500Y-59500000D03*
X212412500Y-59000000D03*
X212412500Y-58500000D03*
X212412500Y-58000000D03*
X212412500Y-57500000D03*
X212412500Y-57000000D03*
X212412500Y-56500000D03*
X212412500Y-56000000D03*
X212412500Y-55500000D03*
%TD*%
D20*
%TO.C,R1702*%
X111087500Y-150750000D03*
X112912500Y-150750000D03*
%TD*%
%TO.C,R205*%
X46087500Y-81250000D03*
X47912500Y-81250000D03*
%TD*%
D34*
%TO.C,R302*%
X194000000Y-69175000D03*
X194000000Y-70825000D03*
%TD*%
D20*
%TO.C,R206*%
X55337500Y-78250000D03*
X57162500Y-78250000D03*
%TD*%
D42*
%TO.C,C312*%
X179000000Y-65725000D03*
X179000000Y-62775000D03*
%TD*%
D21*
%TO.C,R217*%
X60500000Y-78837500D03*
X60500000Y-80662500D03*
%TD*%
D18*
%TO.C,R1004*%
X32570000Y-60895000D03*
X34220000Y-60895000D03*
%TD*%
D64*
%TO.C,R1105*%
X173682500Y-35352500D03*
X170757500Y-35352500D03*
%TD*%
D58*
%TO.C,R410*%
X29500000Y-87405000D03*
X29500000Y-85755000D03*
%TD*%
D20*
%TO.C,R903*%
X113587500Y-59500000D03*
X115412500Y-59500000D03*
%TD*%
D36*
%TO.C,C303*%
X211000000Y-68275000D03*
X211000000Y-71225000D03*
%TD*%
D30*
%TO.C,D1401*%
X87225000Y-131945000D03*
X89325000Y-131945000D03*
%TD*%
D34*
%TO.C,R308*%
X192500000Y-69175000D03*
X192500000Y-70825000D03*
%TD*%
D20*
%TO.C,R1506*%
X96067500Y-153565000D03*
X97892500Y-153565000D03*
%TD*%
D42*
%TO.C,C305*%
X196000000Y-65725000D03*
X196000000Y-62775000D03*
%TD*%
D29*
%TO.C,D1001*%
X42295000Y-61145000D03*
X38995000Y-61145000D03*
%TD*%
D22*
%TO.C,C1501*%
X87417500Y-148545000D03*
X89142500Y-148545000D03*
%TD*%
D15*
%TO.C,D1106*%
X173990000Y-67400000D03*
X173990000Y-64100000D03*
%TD*%
D37*
%TO.C,U1008*%
X23507500Y-57195000D03*
X23507500Y-58145000D03*
X23507500Y-59095000D03*
X25782500Y-59095000D03*
X25782500Y-58145000D03*
X25782500Y-57195000D03*
%TD*%
D20*
%TO.C,R1402*%
X91717500Y-151055000D03*
X93542500Y-151055000D03*
%TD*%
D42*
%TO.C,C313*%
X198500000Y-70475000D03*
X198500000Y-67525000D03*
%TD*%
D60*
%TO.C,C1103*%
X160450000Y-66250000D03*
X158550000Y-66250000D03*
%TD*%
D40*
%TO.C,C1007*%
X11895000Y-56875000D03*
X10345000Y-56875000D03*
%TD*%
D13*
%TO.C,R918*%
X101412500Y-63500000D03*
X99587500Y-63500000D03*
%TD*%
D23*
%TO.C,R312*%
X206575000Y-68000000D03*
X204925000Y-68000000D03*
%TD*%
D12*
%TO.C,C1802*%
X101500000Y-79287500D03*
X101500000Y-77212500D03*
%TD*%
D36*
%TO.C,C314*%
X187500000Y-69775000D03*
X187500000Y-72725000D03*
%TD*%
D22*
%TO.C,C1104*%
X126232500Y-49637500D03*
X127957500Y-49637500D03*
%TD*%
D31*
%TO.C,Q104*%
X89550000Y-75387500D03*
X91450000Y-75387500D03*
X90500000Y-73112500D03*
%TD*%
D65*
%TO.C,Y201*%
X57425000Y-55275000D03*
X59575000Y-55275000D03*
X59575000Y-53725000D03*
X57425000Y-53725000D03*
%TD*%
D32*
%TO.C,R925*%
X133520000Y-23102500D03*
X127420000Y-23102500D03*
%TD*%
D18*
%TO.C,R105*%
X92925000Y-75750000D03*
X94575000Y-75750000D03*
%TD*%
D20*
%TO.C,R1505*%
X96067500Y-151055000D03*
X97892500Y-151055000D03*
%TD*%
D66*
%TO.C,U202*%
X72137500Y-64450000D03*
X72137500Y-63500000D03*
X72137500Y-62550000D03*
X69862500Y-62550000D03*
X69862500Y-64450000D03*
%TD*%
D20*
%TO.C,R920*%
X99587500Y-66000000D03*
X101412500Y-66000000D03*
%TD*%
D31*
%TO.C,Q201*%
X43800000Y-84387500D03*
X45700000Y-84387500D03*
X44750000Y-82112500D03*
%TD*%
D67*
%TO.C,R1112*%
X165000000Y-63587500D03*
X165000000Y-65412500D03*
%TD*%
D39*
%TO.C,5VGood1801*%
X138525000Y-84750000D03*
X136475000Y-84750000D03*
%TD*%
D58*
%TO.C,R409*%
X34750000Y-75405000D03*
X34750000Y-73755000D03*
%TD*%
D29*
%TO.C,D1002*%
X36045000Y-58895000D03*
X32745000Y-58895000D03*
%TD*%
D58*
%TO.C,R405*%
X33250000Y-75405000D03*
X33250000Y-73755000D03*
%TD*%
D15*
%TO.C,D1003*%
X22370000Y-67275000D03*
X22370000Y-63975000D03*
%TD*%
D68*
%TO.C,R1901*%
X75057500Y-21687500D03*
X77982500Y-21687500D03*
%TD*%
D42*
%TO.C,C309*%
X190500000Y-65725000D03*
X190500000Y-62775000D03*
%TD*%
%TO.C,C307*%
X184500000Y-70475000D03*
X184500000Y-67525000D03*
%TD*%
D17*
%TO.C,D1108*%
X170970000Y-39602500D03*
X168470000Y-39602500D03*
%TD*%
D46*
%TO.C,Q1103*%
X156062500Y-68550000D03*
X156062500Y-70450000D03*
X157937500Y-69500000D03*
%TD*%
D20*
%TO.C,R910*%
X113587500Y-62500000D03*
X115412500Y-62500000D03*
%TD*%
%TO.C,R208*%
X47587500Y-83500000D03*
X49412500Y-83500000D03*
%TD*%
D22*
%TO.C,C1601*%
X111137500Y-138200000D03*
X112862500Y-138200000D03*
%TD*%
D18*
%TO.C,R307*%
X180925000Y-44500000D03*
X182575000Y-44500000D03*
%TD*%
D21*
%TO.C,R207*%
X46000000Y-86087500D03*
X46000000Y-87912500D03*
%TD*%
D13*
%TO.C,R919*%
X101412500Y-58250000D03*
X99587500Y-58250000D03*
%TD*%
D28*
%TO.C,C209*%
X71000000Y-73862500D03*
X71000000Y-72137500D03*
%TD*%
D20*
%TO.C,R1302*%
X91717500Y-146035000D03*
X93542500Y-146035000D03*
%TD*%
D22*
%TO.C,C1503*%
X87417500Y-153565000D03*
X89142500Y-153565000D03*
%TD*%
D46*
%TO.C,Q1001*%
X18182500Y-65425000D03*
X18182500Y-67325000D03*
X20057500Y-66375000D03*
%TD*%
D69*
%TO.C,R1110*%
X126145000Y-53887500D03*
X128145000Y-53887500D03*
%TD*%
D70*
%TO.C,C211*%
X61612500Y-56750000D03*
X59887500Y-56750000D03*
%TD*%
D16*
%TO.C,U1005*%
X32995000Y-53645000D03*
X32995000Y-54145000D03*
X32995000Y-54645000D03*
X32995000Y-55145000D03*
X35795000Y-55145000D03*
X35795000Y-54645000D03*
X35795000Y-54145000D03*
X35795000Y-53645000D03*
%TD*%
D38*
%TO.C,T301*%
X195790000Y-46905000D03*
X193250000Y-46905000D03*
X190710000Y-46905000D03*
X190710000Y-60595000D03*
X193250000Y-60595000D03*
X195790000Y-60595000D03*
%TD*%
D66*
%TO.C,Q1104*%
X170857500Y-43302500D03*
X170857500Y-41402500D03*
X168582500Y-42352500D03*
%TD*%
D71*
%TO.C,C1006*%
X30645000Y-51870000D03*
X30645000Y-53420000D03*
%TD*%
D20*
%TO.C,R211*%
X50087500Y-88500000D03*
X51912500Y-88500000D03*
%TD*%
D16*
%TO.C,U1001*%
X28245000Y-56645000D03*
X28245000Y-57145000D03*
X28245000Y-57645000D03*
X28245000Y-58145000D03*
X31045000Y-58145000D03*
X31045000Y-57645000D03*
X31045000Y-57145000D03*
X31045000Y-56645000D03*
%TD*%
D25*
%TO.C,C206*%
X66250000Y-75137500D03*
X66250000Y-76862500D03*
%TD*%
D30*
%TO.C,D1501*%
X87225000Y-134895000D03*
X89325000Y-134895000D03*
%TD*%
%TO.C,D1503*%
X87225000Y-140795000D03*
X89325000Y-140795000D03*
%TD*%
D34*
%TO.C,R1103*%
X154000000Y-68675000D03*
X154000000Y-70325000D03*
%TD*%
M02*
